<svg xmlns="http://www.w3.org/2000/svg" viewBox="0 0 18.54 22"><defs><style>.cls-1{fill:#665861;}.cls-2{fill:#f4d0cb;}</style></defs><title>icon_gourmand</title><g id="レイヤー_2" data-name="レイヤー 2"><g id="レイヤー_1-2" data-name="レイヤー 1"><g id="グルメ"><path class="cls-1" d="M10,5.36A2.87,2.87,0,0,1,8.51,7.88a8.37,8.37,0,0,0-1.14.7L7,9.36V20.5A1.5,1.5,0,0,1,5.5,22h0A1.5,1.5,0,0,1,4,20.5V9.5a1,1,0,0,0-.4-.8L1.36,7.64A2.38,2.38,0,0,1,0,5.49V2C0,.45.45,0,1,0H1A1,1,0,0,1,2,1V4A1,1,0,0,0,3,5H3A1,1,0,0,0,4,4V1A1,1,0,0,1,5,0H5A1,1,0,0,1,6,1V4A1,1,0,0,0,7,5H7A1,1,0,0,0,8,4V1A1,1,0,0,1,9,0H9a1,1,0,0,1,1,1V5.36Z"/><path class="cls-1" d="M18.5,4c-.24-2.23-1.51-4-3-4s-3,2.64-3,5c0,2.18,1.45,3.36,2,5,.93,2.8,1,5.6.18,10.85a1,1,0,0,0,1,1.15h.68a1,1,0,0,0,1-1.13c-.83-6.15-.74-9.54.16-11.87A9.86,9.86,0,0,0,18.5,4Z"/><rect class="cls-2" x="4" y="16" width="3" height="4"/><polygon class="cls-2" points="15.22 16 14.81 20 17.23 20 16.84 16 15.22 16"/></g></g></g></svg>