<svg xmlns="http://www.w3.org/2000/svg" viewBox="0 0 17.46 21.02"><defs><style>.cls-1{fill:#665861;}.cls-2{fill:#f4d0cb;}</style></defs><title>icon_modelrout</title><g id="レイヤー_2" data-name="レイヤー 2"><g id="レイヤー_1-2" data-name="レイヤー 1"><g id="モデルルート"><path class="cls-1" d="M15.37,11a7.18,7.18,0,0,0,2-6c-.44-2.62-2.52-5.26-4-5-1.21.21-2.5,2.49-3,11Z"/><path class="cls-2" d="M9.37,13.52c.94-1.26,3.8-1.39,5,0,1.65,1.89-.39,5.87-2,6S8,15.34,9.37,13.52Z"/><path class="cls-1" d="M1.68,12.19a7.14,7.14,0,0,1,.16-6.32C3.14,3.56,6,1.78,7.3,2.53c1.07.62,1.5,3.19-.92,11.36Z"/><path class="cls-2" d="M5.61,15c-.93-1.26-3.79-1.39-5,0-1.65,1.89.39,5.87,2,6S7,16.84,5.61,15Z"/></g></g></g></svg>