<svg xmlns="http://www.w3.org/2000/svg" xmlns:xlink="http://www.w3.org/1999/xlink" viewBox="0 0 671.4 161.42"><defs><style>.cls-1{fill:url(#名称未設定グラデーション_22);}.cls-2{fill:url(#名称未設定グラデーション_22-2);}</style><radialGradient id="名称未設定グラデーション_22" cx="25.93" cy="33.73" r="23.25" gradientUnits="userSpaceOnUse"><stop offset="0" stop-color="#fff"/><stop offset="0.21" stop-color="#fffdfd" stop-opacity="0.99"/><stop offset="0.28" stop-color="#fff6f6" stop-opacity="0.98"/><stop offset="0.34" stop-color="#ffebeb" stop-opacity="0.94"/><stop offset="0.38" stop-color="#ffdada" stop-opacity="0.9"/><stop offset="0.42" stop-color="#ffc4c4" stop-opacity="0.84"/><stop offset="0.45" stop-color="#ffa8a8" stop-opacity="0.76"/><stop offset="0.48" stop-color="#f88" stop-opacity="0.67"/><stop offset="0.51" stop-color="#fe6262" stop-opacity="0.57"/><stop offset="0.53" stop-color="#fe3737" stop-opacity="0.45"/><stop offset="0.56" stop-color="#fe0909" stop-opacity="0.33"/><stop offset="0.56" stop-color="#fe0000" stop-opacity="0.3"/></radialGradient><radialGradient id="名称未設定グラデーション_22-2" cx="630.97" cy="33.73" r="23.25" xlink:href="#名称未設定グラデーション_22"/></defs><title>logo_sp</title><g id="レイヤー_2" data-name="レイヤー 2"><g id="レイヤー_2-2" data-name="レイヤー 2"><g id="アウトライン化"><path d="M145.8,76.13a.23.23,0,0,1-.16,0,.22.22,0,0,0-.16,0,3.73,3.73,0,0,1-.68,0,3.14,3.14,0,0,0-.67,0,.66.66,0,0,1-.17.15c0-.17,0-.22-.15-.16a.29.29,0,0,0-.17.15l-.13.06c.09,0-.27-.06-1.06-.06l-.22-.14L141,76a.26.26,0,0,1-.15-.16,4,4,0,0,1-1.69-.57,1.63,1.63,0,0,1-1.23-.78,1.13,1.13,0,0,1-.67-.25l-.06-.13a.06.06,0,0,0,0-.09s-.09,0-.16-.09a6.51,6.51,0,0,0-.59-.52l-.41-.2h-.16a.25.25,0,0,0,0-.19.21.21,0,0,1,0-.19c0-.05-.12,0-.3,0l-1.19-2.07s-.18,0-.49.15c-.06-.13-.13-.18-.22-.13s0,0,0,.09l-.07,0a2.3,2.3,0,0,1-.53,0,1.84,1.84,0,0,0-.66.11l0,.09a.48.48,0,0,0,.39,0s.09.09.22.14-.06.26-.24.35a.68.68,0,0,1-.24,0,.4.4,0,0,0-.24,0s0,.07,0,.16l-.22-.14a18,18,0,0,1-2.6-.14,4.4,4.4,0,0,0-.93-.13.19.19,0,0,0-.1.13,2,2,0,0,0-.76-.44c-.47-.21-.73-.38-.79-.51a2,2,0,0,1-.16-1c.2-.14.28-.22.25-.23s0,0,.08-.08l.13-.06a.22.22,0,0,0,.16,0,.42.42,0,0,0,.14-.22l.22.14.07-.19.6.27c.34.17.55.23.64.19-.13.06.6.2,2.18.42l2.09.06.29.11s.05,0,0-.1,0-.07,0-.09l.28.1c0-.23-.11-.53-.16-.87s-.14-.76-.25-1.23a3.22,3.22,0,0,1,.77,1.15l.34.4.21.45c.12.16.23.22.32.17s0,0,0-.09l.07,0a4.82,4.82,0,0,1,.87,0h.43a4.84,4.84,0,0,0,.86-.12l1,0c0,.07,0,.11.06.13s.12-.13.29-.21a20,20,0,0,1,2.68-.21q.39,0,.39.06c0,.06,0,.06.13,0l.06,0s0-.07,0-.09l.58-.11.19.07.29-.14a2.4,2.4,0,0,1,.46-.13.75.75,0,0,0,.51.08s.06,0,0-.09-.08,0,0-.07a1.34,1.34,0,0,1,.4,0,1.16,1.16,0,0,0,.4,0,.07.07,0,0,0,0-.1s0-.09.1-.13.12,0,.22.06.18.08.23,0a5.59,5.59,0,0,1,1.61-.27.41.41,0,0,0,.21-.25c.08.18.36.15.84-.07l.13-.06a.06.06,0,0,1,0-.09s.11,0,.19.07.15.09.19.07a.62.62,0,0,0,.28-.45c0,.2.18.24.44.12l.26-.13c.18-.08.25-.32.22-.73a4.65,4.65,0,0,0,.35-1.23c.09-.54.19-1.21.3-2l.29-.93a2.17,2.17,0,0,1,.16-1c0-.13,0-.2-.09-.2a1.76,1.76,0,0,0,.27-1,10.2,10.2,0,0,1,0-1.32l.16.33c.17-.19.18-.35,0-.48l.26,0a2.48,2.48,0,0,1,.14.64c-.09.73-.2,1.07-.33,1a1.92,1.92,0,0,0,.21.61c0,.13-.1.29-.17.48a.38.38,0,0,0,0,.45,1.86,1.86,0,0,0-.14.66,15.51,15.51,0,0,1-.23,1.81,4.76,4.76,0,0,0-.36,1.12.2.2,0,0,0,.13.1l.66-1.65-.06-.13a.63.63,0,0,1-.07-.25c0-.07,0-.19,0-.34a2.28,2.28,0,0,0,.49-1.17c0-.45.09-.89.1-1.32a4.69,4.69,0,0,0,.17-1.35l.21-.25-.13-.26c.14-.06.1-.36-.1-.91a3.14,3.14,0,0,1,0-1l.21-.26a.65.65,0,0,1-.06-.29,1.09,1.09,0,0,1-.3-.81l.23.13.15-.86a.4.4,0,0,0-.32,0c-.13.06-.19.11-.17.16l-.63-.51a2.33,2.33,0,0,0,.32-.7,1,1,0,0,1,0-.45q-.22-.3-.18-.39a.74.74,0,0,0,.13-.3c0-.12.07-.24.11-.37,0-.58,0-1.26,0-2.05s0-1.69,0-2.72c.05,0,.09-.09.14-.22a6.42,6.42,0,0,1-.13-1.13c.07,0,.12,0,.16,0a8.35,8.35,0,0,1,0-1.14q0-.69,0-1.56h.33l.1.23a1.39,1.39,0,0,1,.1.39l.13.1a.33.33,0,0,0,0-.23.54.54,0,0,1-.05-.29c.28-.18.35-.5.19-1,0,0,.05.06.09,0l-.27-.59a.33.33,0,0,0,.21-.41l-.65.14-.21-.46c0-.05,0-.08,0-.12a1.05,1.05,0,0,0,0-.33.21.21,0,0,0-.13-.11.1.1,0,0,1,.13-.06,1.47,1.47,0,0,0,.12-.77l.09-.67a1.13,1.13,0,0,1,0-.5,11.41,11.41,0,0,0-.07-1.44,4.61,4.61,0,0,0,.11-1.31l.1-.29-.11-.58.27-1.48c.05-.12,0-.19-.09-.19a1.89,1.89,0,0,0,.22-1.77c.05-.12.09-.25.14-.38a.69.69,0,0,0-.08-.52.23.23,0,0,1,.16,0l.15-.71a4.12,4.12,0,0,0,.09-.67.68.68,0,0,0-.36-.07.27.27,0,0,0-.16.15l-.2.09q-.14.06-.09,0c0-.07,0-.09,0-.07a.53.53,0,0,0-.23.19l-.27.12s-.07,0-.09,0l-.33.15a.25.25,0,0,1-.24,0,.19.19,0,0,0-.18,0l-.06,0s0,.07,0,.09-.13,0-.51-.08l-.07.19-1.26.19-.07,0a.23.23,0,0,1-.1.13,4.67,4.67,0,0,1-.68.07,4.12,4.12,0,0,0-.68.08.06.06,0,0,0,0,.09l-.07,0q-.34-.07-.33-.12s-.13,0-.42,0-1,.24-2.13.55a.67.67,0,0,1-.39.18l-.57.06a5.36,5.36,0,0,0-.89.22l-.09,0c-.13,0-.28,0-.46.21h-.16c-.05,0-.08,0-.1,0l-.13.06s0,.05,0,.07l-.06,0s-.08,0-.38.05L140,33c-.26.07-.37.09-.33.07-.17,0-.28,0-.33.16h-.32a.11.11,0,0,0-.06.11.14.14,0,0,1-.07.11s0,0-.24-.09a1.27,1.27,0,0,0-.76.15c-.05,0-.06,0,0,.1s0,.08-.1.12-.08,0-.09,0a.07.07,0,0,0-.1,0,.12.12,0,0,0-.07.11.1.1,0,0,1-.07.11.06.06,0,0,1-.09,0c0-.06,0-.09,0-.07s-.12.09-.1.13h-.87l-.07.19-.29-.1-.07.19c-.13-.05-.2,0-.23,0h-.16a2.1,2.1,0,0,0-.79.09,4.45,4.45,0,0,0-.6.16l-.17.31a.35.35,0,0,0-.45-.11.07.07,0,0,0,0,.1l-.07,0c.09,0,0-.06-.19-.07l0,.09-1.52.31c-.17.08-.38.16-.6.24s-.51.17-.83.26c0-.12,0-.17-.06-.13a.3.3,0,0,0-.17.16l-.2.09s-.07,0-.09,0l-.07,0-.13.23-.19-.07s-.08.06-.1.12a.24.24,0,0,1-.1.13l-1,.16a.32.32,0,0,0-.17.15l-.52.24c-.09,0-.3.12-.65.23s-.54.17-.59.19a.06.06,0,0,0,0,.09c.06,0,.07,0,0,.07a1.07,1.07,0,0,1-.31,0,.87.87,0,0,0-.43.08l-.2.09a.67.67,0,0,1-.23.19q.19-.09-.48-.18a.48.48,0,0,0,0,.39h-.32l-.39.18a1.25,1.25,0,0,0-.36.09s-.06,0,0,.09,0,.09-.1.13a.54.54,0,0,1-.29,0,.62.62,0,0,0-.29,0s-.06.06-.05.14,0,.11-.15.11l-.78.2s0,0,0,.07a.06.06,0,0,1,0,.09s-.08,0-.1,0-.07-.05-.16,0c.07,0-.06.16-.36.41l-.4.18a.26.26,0,0,0-.16.15l-.46.22a1.61,1.61,0,0,0-.55.17,1.39,1.39,0,0,1-.27.28l-.29-.1v.16a.13.13,0,0,0-.19-.07s-.1.1-.17.24a.62.62,0,0,1-.17.23.22.22,0,0,1-.16,0,.18.18,0,0,0-.16,0l-2.11,1.45a.06.06,0,0,0,0,.09.07.07,0,0,1,0,.1s-.1,0-.18,0a.24.24,0,0,0-.17,0,.81.81,0,0,0-.2.26.88.88,0,0,1-.2.25,3.88,3.88,0,0,0-.89.49,1.44,1.44,0,0,1-.64.85.23.23,0,0,1-.16,0l-.13.06a.74.74,0,0,0-.2.25,5.28,5.28,0,0,0-.36,1.12l-.18.64a4.42,4.42,0,0,0-.46,1.4.27.27,0,0,1,0,.23.83.83,0,0,1,.25.36.77.77,0,0,1,0,.71s0,.05.1,0a1,1,0,0,0,.42.76c-.06,0-.06,0,0,.16a4.14,4.14,0,0,0,.77,1.15,3.21,3.21,0,0,0,.55.42c.34.24.56.33.65.29l.15.33a1.27,1.27,0,0,0,.35.24l.18.39a.3.3,0,0,1,.22,0l.09.2.92.45a.82.82,0,0,0,.45.27,2.79,2.79,0,0,0,.82.41l.1-.12.09.19a1.47,1.47,0,0,0,.54.31,10,10,0,0,0,1.89.48.23.23,0,0,1,0,.16l.32.17c.65.49,1.16.63,1.53.4.07,0,.11.11.12.26l1.22.31c.51.14,1.08.27,1.72.4a1.13,1.13,0,0,1,.43-.12c.21.12.36.15.44.11.59.36,1,.48,1.35.33a3,3,0,0,0,1.19,0,5.63,5.63,0,0,1,.77.12,1.55,1.55,0,0,0,.87,0,.2.2,0,0,1,.1-.13l.06.13c.12.26.27.3.45.11s.34-.16.51.08a.39.39,0,0,0,0-.26,1.84,1.84,0,0,0,.54.31,2.1,2.1,0,0,1,.61,0l-.4.34c-.1-.11-.26-.12-.48,0l-.19.09a.72.72,0,0,0-.24.19,4.09,4.09,0,0,1-.93-.13,1,1,0,0,0-.48,0l-.1.12,0-.09a.82.82,0,0,0-.51-.08c.05,0,0,0-.07.19-.1-.11-.59-.15-1.48-.11a.56.56,0,0,0-.34-.24,1.81,1.81,0,0,0-.84.07s0,0,0,.07l-.07,0a5.25,5.25,0,0,1-1.35-.17,4.75,4.75,0,0,0-1.34-.17.12.12,0,0,0-.07.19c-.34-.16-.53-.29-.57-.38s-.3,0-.64-.18L123,57l-.32-.17c-.25-.3-.47-.33-.67-.08l-.34-.4a.41.41,0,0,1-.21.25l-.28-.1-.13.06a1,1,0,0,1-.76-.09,3.69,3.69,0,0,1-.87-.51l-.61-.12-.06-.13a.79.79,0,0,0-.47-.34,2.93,2.93,0,0,1-.73-.13s-.17-.11-.38-.22a.22.22,0,0,1,0-.16,1.15,1.15,0,0,0-.28-.27s-.15-.09-.38-.14a1.56,1.56,0,0,1-.34-.4c-.2,0-.57-.19-1.11-.68-.13,0-.2,0-.23,0a.9.9,0,0,0-.21-.46l-.2-.1a7.9,7.9,0,0,1-.71-.67c-.12-.15-.3-.39-.52-.71s-.32-.43-.28-.34a1.5,1.5,0,0,1-.06-.3,2.69,2.69,0,0,1,0-.38,1.86,1.86,0,0,0-.3-.66,1.45,1.45,0,0,1-.25-.36,22.94,22.94,0,0,0-.18-2.45,3.86,3.86,0,0,1,.19-1.83,5.49,5.49,0,0,0,.89-1.84,2,2,0,0,0,.3-.22,3.74,3.74,0,0,0,.47-.61c.2-.31.38-.47.53-.49-.08-.17-.11-.29-.08-.35a12.25,12.25,0,0,1,1.23-1.45l.07,0c0,.05.07.05.16,0a2.53,2.53,0,0,1,.37-.57.18.18,0,0,1,.16,0l.07,0a.18.18,0,0,0,.1-.28s-.07,0-.09,0l.72-.49,1-.68a1.12,1.12,0,0,0,.63-.53.36.36,0,0,0,.25,0q.39-.18.3-.21l.07-.19a6.74,6.74,0,0,1,1.77-.82l.19.07,0-.25.78-.37s0,.07.22.14l.13-.06a.47.47,0,0,0,.22-.22.55.55,0,0,1,.15-.19.92.92,0,0,1,.35,0,1.13,1.13,0,0,0,.36,0c.09,0,.12-.08.1-.12s0-.08,0-.1l.07,0c0,.06,0,.09,0,.07a.24.24,0,0,0,.09-.16c0-.09,0-.14.08-.16a1.06,1.06,0,0,1,.45,0,1.09,1.09,0,0,0,.46,0,.19.19,0,0,0,.1-.29l.29-.05c.09,0,.12-.11.07-.19a1.43,1.43,0,0,0,1.23-.09l.85-.4a2,2,0,0,1,.55-.17c1.39-.32,2.12-.5,2.21-.55s.1-.07,0-.09a7.54,7.54,0,0,0,2-.29s.06,0,0-.1l.13-.06.78-.2.26-.12c.1.22.18.34.25.36v-.16a5.64,5.64,0,0,1,.78,0c.13-.06.18-.06.16,0h-.16l-.07,0a.12.12,0,0,0-.07.11.11.11,0,0,1-.06.11.39.39,0,0,1-.26,0,.47.47,0,0,0-.26,0l-.66.46c-.08,0-.11.06-.06,0l.06,0c0-.06-.12,0-.45,0a4.53,4.53,0,0,0-.94.36q-.08,0-.12.18a.35.35,0,0,1-.12.17c-.26.12-.43.17-.49.14v.16l.28.11.11-.29a.39.39,0,0,0,.26,0q.12-.06,0-.09a1.25,1.25,0,0,0,.87-.17l.27-.12c0,.07,0,.11.06.13s.12-.13.29-.21c0,0,0,0,.21,0a5.84,5.84,0,0,0,.86-.12,3,3,0,0,0,1-.22c1-.49,1.7-.61,2-.36l.1-.13a.83.83,0,0,0,.56-.17,5.55,5.55,0,0,1,.7,0l1.12-.52.64,0a2.49,2.49,0,0,0,.63-.09,3.72,3.72,0,0,0,.44-.16.22.22,0,0,1,.16,0,.18.18,0,0,0,.16,0s.06-.05,0-.1a.06.06,0,0,1,0-.09l1-.13.33-.15s.09,0,.14.05.12,0,.18-.05l.23-.18s.12.08.29.1l.07-.19a5.15,5.15,0,0,0,.87,0,1.83,1.83,0,0,1,.93-.23c.22,0,.31.05.27.07a.3.3,0,0,0,.16-.15l.2-.09a1,1,0,0,1,.42,0,.87.87,0,0,0,.42,0s0-.05,0-.07-.07,0,0-.06a.6.6,0,0,1,.23,0,.62.62,0,0,0,.22,0,.78.78,0,0,1,.55-.1.72.72,0,0,0,.49-.06l.13-.07a.06.06,0,0,1,0-.09.62.62,0,0,1,.29,0,.54.54,0,0,0,.29,0l.59-.27,1.13-.13.09.2a.22.22,0,0,0,.16,0,.29.29,0,0,0,.17-.15l.39-.18.72-.17q.09,0,.21-.66a9.67,9.67,0,0,0,.14-1.49l-.06-.13.13-.06a4.71,4.71,0,0,0,.27-1.32c0-.06,0-.14.09-.23a2.07,2.07,0,0,0,.06-.47.92.92,0,0,0,.45-.92,10.65,10.65,0,0,1,0-1.1.22.22,0,0,0,.12.11,3,3,0,0,0,.21-.42q-.09,0,0-.06s0,0,0,.06a.18.18,0,0,0,.16,0,2.17,2.17,0,0,1,.31-1.57,4.94,4.94,0,0,0,.52-1.11c0-.13.08-.22.1-.29a1.46,1.46,0,0,0,.07-.19,7.46,7.46,0,0,1,.33-.67,3,3,0,0,1,.42-.63l.53,0a1.18,1.18,0,0,1,.59.16.64.64,0,0,0,.09.36,1,1,0,0,1,.41.36,14,14,0,0,1-1,1.81l-.51,1.66a.29.29,0,0,0-.22,0l-.12-.26c-.07,0,0-.19.08-.51a.23.23,0,0,0-.13-.1c-.33.42-.44.6-.31.54a.39.39,0,0,1-.25-.05,12.24,12.24,0,0,0-.34,1.43c-.08.46-.13.88-.17,1.27a.3.3,0,0,0-.16.15c0,.11,0,.29,0,.53a5.64,5.64,0,0,1-.14.82l.08.52a10.07,10.07,0,0,0-.26,2,1.48,1.48,0,0,0,.48,0,1.33,1.33,0,0,1,.6-.16.6.6,0,0,0,.34,0,2,2,0,0,1,.74-.22.69.69,0,0,0,.44-.16.34.34,0,0,0,.44.11c.13-.06.21-.12.23-.19l.81-.14a1.81,1.81,0,0,0,.39,0,4.16,4.16,0,0,0,.52-.08,2,2,0,0,1,.55-.17c.41,0,.59,0,.55,0l0-.09.19.07c.3-.14.42-.23.36-.25a1.54,1.54,0,0,1,.39,0l.19-.09a.06.06,0,0,1,0-.09l.55,0,.19-.09.52-.08.52-.24a2.58,2.58,0,0,1,.43-.28.07.07,0,0,1,.1,0q0,.09,0,.06a2.38,2.38,0,0,0,.62-.36l.19.07c.05-.13.09-.21.14-.23a.11.11,0,0,1,.12,0,.13.13,0,0,0,.13,0c.05,0,.06-.06,0-.1s-.08-.05,0-.07l.13-.06a.18.18,0,0,0,.16,0l.2-.09.51-.08a.08.08,0,0,0-.06-.13h.28a4.86,4.86,0,0,0,.76-.31,2,2,0,0,0,.32-.35,1.49,1.49,0,0,1,.32-.34.06.06,0,0,1,.09,0l.07,0,.4-.34a1.23,1.23,0,0,0,.36-.25q.69-.55.63-.69l0,.07a3,3,0,0,0,.39-.54,5.42,5.42,0,0,0,.53-1.08,1.93,1.93,0,0,1,.31-.53l-.14-.65c.13-.06.21-.05.25,0l-.06-.13a1.74,1.74,0,0,1-.1-.75l.5.41c.07,0,.15.14.25.36s.18.45.11.42a2.49,2.49,0,0,0,.22,1.33.18.18,0,0,1-.16,0,2.26,2.26,0,0,1-.29.85,2.07,2.07,0,0,1-.3.46l-.13.06a.19.19,0,0,0-.11.28c-.61.29-.89.58-.86.88l-.26,0,0,.06a.86.86,0,0,0-.35.09.41.41,0,0,0-.21.25c0-.06,0-.08-.09,0l-.39.19a1,1,0,0,1-.44.43.63.63,0,0,1-.25,0,3.1,3.1,0,0,0-.79.28c.05,0,0,.09-.17.32l-.19.09-.45-.11a1.29,1.29,0,0,0-.5.47l-.19-.07,0,.26-.19-.08-1,.31-1.07.34-.07.19-.1,0-.14.22a.23.23,0,0,1,0-.16,3.49,3.49,0,0,0-1.62.28c-.09,0-.12.08-.1.12l0,.07-.07,0,0-.1a4,4,0,0,0-1.23.25.44.44,0,0,0-.29.06,2,2,0,0,1-.49.14.28.28,0,0,0-.16-.16l-.07.19-1.07.26c-.13-.05-.21-.07-.26,0l-.06,0c0,.05,0,.08,0,.1s-.26,0-.38-.14a.36.36,0,0,0-.13.14.37.37,0,0,1-.14.14.73.73,0,0,1-.3,0,1,1,0,0,0-.31,0,.2.2,0,0,0-.1.12l-.06,0c-.05,0-.14,0-.29-.1l-.1.12-.35-.07-.13.06s0,.07,0,.09a1.41,1.41,0,0,0-.94.2,18,18,0,0,0-.08,2.41l0,1.68-.12,1.8c0,.13,0,.23.15.32a.88.88,0,0,0,0,.81l-.11.29.09,1.38-.1,1.16.1.9-.08,2.58a1.65,1.65,0,0,0,0,.45c0,.2.08.41.14.65a2.38,2.38,0,0,0-.19,1,24.66,24.66,0,0,1,.19,2.49,15.78,15.78,0,0,1-.13,2.64,2.83,2.83,0,0,0,0,.3.6.6,0,0,1,0,.34l.21,3.71c-.16.13-.16.34,0,.64,0,.22,0,.47-.06.74a7.31,7.31,0,0,0,0,1c0,.58,0,1.27-.08,2.06s-.13,1.66-.23,2.6a3.43,3.43,0,0,0-.11.53c0,.22-.08.49-.15.78a2.2,2.2,0,0,1,0,.63c0,.23-.06.48-.09.76a7.26,7.26,0,0,1-.39,1.21,1.6,1.6,0,0,1-.29.92s.1.09.22.14l.08-.19.19.07c0-.06.14-.15.36-.25a.92.92,0,0,1,.35,0,1.15,1.15,0,0,0,.36,0,.76.76,0,0,0,.2-.17.79.79,0,0,1,.26-.2.18.18,0,0,1,.16,0,8.16,8.16,0,0,1,1.54-1,.6.6,0,0,1,.3-.06l.26-.12a.94.94,0,0,0,.37-.41s.16.08.44.11l.09.2a2.54,2.54,0,0,1-.49.47c-.09,0-.13,0-.13,0s0-.07-.07,0l-1,.7-1.83.85a.36.36,0,0,1-.19,0,.36.36,0,0,0-.19,0,.11.11,0,0,0-.07.11A.12.12,0,0,1,154,67a.37.37,0,0,1-.19,0,.42.42,0,0,0-.2,0l-.39.34s-.08,0-.1,0,0-.09,0-.07l-.26.12a.75.75,0,0,0-.21.41l-.66,1.66a2.27,2.27,0,0,1-.48.69,14.36,14.36,0,0,1-1.25,2.09l-.07,0a1.38,1.38,0,0,0-.47.61,5.41,5.41,0,0,1-.47.78l-.4.18a4.61,4.61,0,0,1-.62.53l-.14.06s0-.06-.09,0a4.56,4.56,0,0,0-1.43,1.37c-.08-.17-.19-.23-.32-.17.05,0,0,.07-.2.26S145.76,76.15,145.8,76.13ZM134.57,57.28c-.28,0-.44-.08-.48-.17a1.12,1.12,0,0,0,.52-.08C134.67,57.16,134.66,57.24,134.57,57.28Zm1.2-24.89a2.08,2.08,0,0,1-.94.19.2.2,0,0,0-.13-.1c.05-.12.09-.2.14-.22l.74-.1.39.14Zm8.46,42.4a.53.53,0,0,0,.23-.19l.33-.15a.18.18,0,0,1,.16,0l.07,0a4.5,4.5,0,0,0,1.32-1.17c.54-.62,1.19-1.4,2-2.34a.42.42,0,0,1,.14-.38c.09-.25.21-.55.35-.87s.31-.73.52-1.2l-.26,0c0,.09,0,.14,0,.16a.53.53,0,0,1-.31,0,.4.4,0,0,0-.24,0l-.17.15a.26.26,0,0,1-.22,0l-.2.09-1.72.24a.25.25,0,0,0-.1.12l-.06,0a.79.79,0,0,1-.31,0,.88.88,0,0,0-.3,0l-.07,0s0,.08-.1.12a2,2,0,0,1-.52,0,1.86,1.86,0,0,0-.51,0,.07.07,0,0,0,0,.1l-.06,0a2.27,2.27,0,0,1-1.91.16c0,.09,0,.15,0,.17a1.64,1.64,0,0,1-.39,0,1.22,1.22,0,0,0-.39,0l-.13.06a.06.06,0,0,1,0,.09,1.22,1.22,0,0,1-.39,0,1.59,1.59,0,0,0-.39,0l-.06,0a.24.24,0,0,1-.1.13,1,1,0,0,1-.36,0,1.08,1.08,0,0,0-.35,0c-.09,0-.1.07,0,.09l-.06,0-.52-.08a.38.38,0,0,0-.26,0,1,1,0,0,1-.38.1,7.51,7.51,0,0,0-1,.09l-.24.07-1,.16c0-.09-.08-.12-.12-.1s-.06,0,0,.1l-.13,0c.05-.12-.13-.17-.54-.14A4.36,4.36,0,0,0,136.36,72a.25.25,0,0,0-.1.12,4,4,0,0,0,.76.61,1.19,1.19,0,0,1,.11.42.42.42,0,0,1,.33,0,.51.51,0,0,0-.05.26l1.3.75a1.42,1.42,0,0,0,.31.33,5.83,5.83,0,0,0,1.44.44.25.25,0,0,1,.19,0l.13-.06.12.27.07,0a.2.2,0,0,1,.1-.13c.34.16.55.22.64.18s0,0,0-.07a.06.06,0,0,1,0-.09s.14,0,.27.07.23.1.28.08a.46.46,0,0,0,.23-.19l.38.14.07,0a.06.06,0,0,1,0-.09s.09,0,.14,0,.1.07.15,0l.32-.15Zm-8-42.52-.25-.2.13-.06.25.2Z"/><path d="M171.77,61.12c-.05.13-.24.25-.55.37a.93.93,0,0,1-.41,0,1.29,1.29,0,0,0-.34,0,2,2,0,0,0-.27.18,1.27,1.27,0,0,1-.35.21,2,2,0,0,1-.44.06,1.9,1.9,0,0,0-.51.08c-.27-.57-.87-.59-1.8-.08l-.06-.13a1.24,1.24,0,0,0-.48-.66,2.42,2.42,0,0,1-.67-.75,1.75,1.75,0,0,1-.36-.21,2,2,0,0,1-.54-.91l0-.32c0-.06-.06-.15-.26-.28a7,7,0,0,0-.15-1.18c0-.24-.08-.43-.11-.58a3.46,3.46,0,0,0-.09-.35c-.36-.12-.57-.27-.64-.45l0-.54a1,1,0,0,0,.5-.12l.27-.1c0-.17.08-.35.13-.55a4.33,4.33,0,0,1,.24-.68c.27-.1.42-.44.46-1l-.17-.24a.86.86,0,0,1,.05-.26l.07,0-.07,0a.76.76,0,0,1,.23,0l.16-.37a7,7,0,0,1,.47-.8,4.64,4.64,0,0,1,.41-.93,4.48,4.48,0,0,1,.7-.88,2,2,0,0,0,.42-.63l.32,0a5.92,5.92,0,0,0,.89-.88c0,.19.1.27.24.22l.47-.19.26-.33a3,3,0,0,1,1.89.12.31.31,0,0,0,.23,0l.42,1.07a.37.37,0,0,1-.32,0l0,.71.42.3a4.92,4.92,0,0,0-.23,1.4l.21.54a1.41,1.41,0,0,0-.44.25,6,6,0,0,1-.93,1.2l-.13,0a.23.23,0,0,0-.16,0,1.81,1.81,0,0,0-.64.55c0,.07-.06.17-.11.32a.46.46,0,0,1-.27.29l-.07,0a.06.06,0,0,0-.09,0,2.79,2.79,0,0,0-.61.51,5.53,5.53,0,0,1-.55.48l-.14,0a.23.23,0,0,0-.16,0l-.12.28-.4.16a.62.62,0,0,1-.46,0l-.87.34a3.38,3.38,0,0,1,.14.87,4.87,4.87,0,0,0,.07.67,3.17,3.17,0,0,0,.83.76l.39.19a5,5,0,0,0,.82.34,2.12,2.12,0,0,0,.61.38.75.75,0,0,0,.3,0,.87.87,0,0,1,.36-.06l.3.19a.77.77,0,0,1,.61-.24l.41.07.34-.13,0-.06q.09,0,0,.06a.19.19,0,0,0,.16,0,.36.36,0,0,0,.13-.17.31.31,0,0,1,.12-.16l.14,0s.05.06.09,0a.76.76,0,0,0,.37-.45.67.67,0,0,0,.4-.16l.09,0,.08.21a2.22,2.22,0,0,0-.26.33,2.91,2.91,0,0,1-.43.47l.1.27s.12,0,.3,0a2.64,2.64,0,0,0,1.55-1.38l.32,0a.13.13,0,0,0,.09-.18l.33-.13a2,2,0,0,0,.26-.53.8.8,0,0,1,.42-.51l.3,0v-.62l.26.06c.05-.12.23-.25.55-.37a.27.27,0,0,1,0-.23A4.15,4.15,0,0,0,178,54.15l.27-.1.69-1.19a.88.88,0,0,1,.05-.48.39.39,0,0,1,.25,0l.29-1A.88.88,0,0,0,180,51l.28.12-.24.79a11.12,11.12,0,0,0-.7,1.19c-.26.52-.55,1.12-.85,1.8-.31.12-.46.28-.43.47a1.75,1.75,0,0,0-.57.92l-.28-.12-.26.44a6.48,6.48,0,0,1-.75,1c-.06.12-.14.3-.26.52a.89.89,0,0,1-.45.45c-.09,0-.12,0-.09,0l-.07,0a1,1,0,0,0-.46.41c-.12.2-.17.35-.14.44a.42.42,0,0,1-.25-.06,4.61,4.61,0,0,1-.83.86l-.13,0-.09,0-.91.66a.3.3,0,0,0-.14-.18l-.1.35a.33.33,0,0,0-.14.13.32.32,0,0,1-.14.13S172,61.21,171.77,61.12Zm-4-6c-.1-.12-.08-.2.05-.25s.08,0,.1,0l.13,0a1,1,0,0,0,.22-.32c.11-.2.18-.3.23-.32a.52.52,0,0,1,.23,0,.48.48,0,0,0,.22,0c-.09,0,0-.16.16-.6l.25.06c.77-1.07,1.06-1.85.87-2.35a1.07,1.07,0,0,0-1.25-.75l-1.74.21A.42.42,0,0,1,167,51a2.86,2.86,0,0,1-.43,1.09c-.09,0-.27.36-.55,1a3,3,0,0,1-.17.76c0,.35,0,.63,0,.83a1.15,1.15,0,0,0,.06.44c.3.25.54.33.72.27l.06,0a.26.26,0,0,1,.11-.12A2.3,2.3,0,0,1,167.76,55.11Zm12.65-4.42-.06-.13a.47.47,0,0,1,.23-.63A1.65,1.65,0,0,1,180.41,50.69Z"/><path d="M180.19,58.3a.3.3,0,0,1-.14-.18,1.8,1.8,0,0,1,.14-1l-.34-1.25a2.78,2.78,0,0,1,.36-.73,2.15,2.15,0,0,1-.07-.66c0,.06-.12-.14-.28-.59a1.07,1.07,0,0,0,.12-.34,5,5,0,0,1-.48-1.21s0-.09.09-.41a1.8,1.8,0,0,1-.23-.68,2.82,2.82,0,0,0,0-.65,1.37,1.37,0,0,0-.19-.58l-.64-1.46a3.43,3.43,0,0,1-.35-1,.61.61,0,0,1-.13-.64,3.38,3.38,0,0,0-2.19-1.54l-.12-.34a.49.49,0,0,0,.18-.14.59.59,0,0,1,.19-.14,1.14,1.14,0,0,1,.35,0,1.37,1.37,0,0,0,.35,0l.89-.3c0,.06.2.25.68.57a4.12,4.12,0,0,1,1.19,1.16,1.48,1.48,0,0,0,.26.44.55.55,0,0,0,.42.24,4.11,4.11,0,0,1,.64,1.23,4.59,4.59,0,0,1,.16.59,6.38,6.38,0,0,1,.12.68l.27.14a2.58,2.58,0,0,1,.55.95h.23L183,48q0-.08.3-.48a2.24,2.24,0,0,1,.22-.68c.23-.08.32-.2.26-.36s.09-.49.42-1A1.22,1.22,0,0,1,184.9,44l0-.07c-.09-.27,0-.46.19-.56s.3-.31.24-.65l.48-.61c0-.11,0-.21,0-.32s0-.24.09-.41a2,2,0,0,1,.48-.39,14.58,14.58,0,0,0,1-1.31.64.64,0,0,1,.17-.28l.22-.23a2.82,2.82,0,0,1,.3-.25c.07-.38.16-.59.25-.62a.07.07,0,0,1,.09,0l.07,0c-.09,0,.1-.21.59-.73a1.82,1.82,0,0,1,.38-.35l.46-.31a1.36,1.36,0,0,1,.93-1.07.13.13,0,0,1,.13,0,.2.2,0,0,0,.19,0,.35.35,0,0,0,.15-.13.27.27,0,0,1,.15-.12,1.14,1.14,0,0,1,1.27.4,6.75,6.75,0,0,1,1.42,2.41l.59,1.78a.49.49,0,0,0,.21.16.57.57,0,0,1,0,.29L196.08,43l1.12,2a5.35,5.35,0,0,0,.54.47,3.33,3.33,0,0,1,.58.6l.25.07c.26,0,.45.2.57.56l.93.07.37.18.68-.68.32,0c.09,0,.23-.25.42-.67a2.54,2.54,0,0,0,.28-.85.3.3,0,0,1,.23,0l.23.22a7.31,7.31,0,0,1-.84,2s-.08.07-.11.15-.05.13-.1.15-.12,0-.09-.05l-.07,0c-.09,0-.13.19-.13.5l-.68.91.09.27-1,.78c-.2.17-.27.24-.23.23-.18.06-.31.05-.38,0s-.14-.1-.18-.09l-.07,0a.07.07,0,0,1,0,.1.57.57,0,0,1-.68-.23l-.05.09c-.18.06-.46,0-.85-.28s-.64-.41-.76-.47l.09-.18c0-.09-.15-.13-.35-.11q-.48-.75-.57-.57c-.06.12-.21-.11-.45-.68a1,1,0,0,0-.06-.4,2.16,2.16,0,0,1-.1-.54c-.37-.33-.66-.38-.89-.16a2.77,2.77,0,0,0-.32-.49.84.84,0,0,0,0-.23,1.24,1.24,0,0,1-.37-.87l-.07-.66-.29-.2-.21-.62a1.18,1.18,0,0,1-.51-.17A.88.88,0,0,0,192,43l-.39-1.17a1.57,1.57,0,0,1,.06-.47l-.5-.37,0-.13a1.4,1.4,0,0,0-.31-.47l-.6-.67a1.22,1.22,0,0,0-1-.13c-.05,0-.07.05-.08.1s-.06.09-.15.12c.09,0,0-.05-.25-.06a.36.36,0,0,0,0,.31,1.33,1.33,0,0,0-.75.71c-.05,0-.08,0-.1,0s0-.08,0-.06l-.68,1.14A.28.28,0,0,0,187,42c-.19.22-.25.39-.21.53A5.08,5.08,0,0,0,185.38,45a1.27,1.27,0,0,0-.29.25q-.3.7-.78,1.74c-.33.69-.7,1.49-1.11,2.38a3.52,3.52,0,0,0-.2.53c-.05.16-.18.59-.41,1.27l-.13.28c-.06.12-.12.24-.19.36a1.65,1.65,0,0,1,0,.73,2.75,2.75,0,0,0,.16,1.27,1.57,1.57,0,0,1-.13.73,1.59,1.59,0,0,0-.09.87.3.3,0,0,0,.14.18,3.9,3.9,0,0,0-.49.47,1.67,1.67,0,0,1-.38.35s-.08,0-.12,0a.13.13,0,0,0-.13,0c-.09,0-.2.17-.32.41l.05.14a1.5,1.5,0,0,1,0,.68c-.32.11-.43.3-.34.57A.66.66,0,0,1,180.19,58.3Z"/><path d="M204,81.31a.62.62,0,0,1-.44-.25l-.08.25-.42.12a1,1,0,0,1-1-.23c-.12-.26-.25-.38-.39-.34a.21.21,0,0,0-.12.11l-.21.06a.08.08,0,0,0-.05.09l-.07,0a4.16,4.16,0,0,1-.65,0,4,4,0,0,0-.64,0c.09,0,0,.06-.31.24l-.06-.21s-.11,0-.3,0l-.08-.27a2.49,2.49,0,0,0-1.44-.34,2.8,2.8,0,0,0-1.23-.62,2.4,2.4,0,0,1-.4-.63q0-.15-.33-.24a6.37,6.37,0,0,1-1.36-1.45l-.13-.49-.74-1a2.45,2.45,0,0,0-.1-.86l-.17-.1-.06-.21a1.58,1.58,0,0,0-.15-.37,1.9,1.9,0,0,0-.21-.35,2.2,2.2,0,0,0-.09-1.1c-.13-.27-.16-.46-.09-.58s0-.11-.2-.16l0-.14s-.06-.21-.14-.49a6.81,6.81,0,0,1,.05-.87,5.08,5.08,0,0,1,.13-.6.76.76,0,0,0-.15-.26,1.26,1.26,0,0,0-.09-.57l.2-.36a4,4,0,0,1-.1-.46c0-.21-.06-.44-.08-.68.06-.82.14-1.17.23-1,.41-.32.44-.8.1-1.45.1,0,.14-.07.12-.11l1.36-4.66a3.84,3.84,0,0,0,.35-1.15,5.89,5.89,0,0,0,.76-1.79,11,11,0,0,1,.74-1.34l1-1.92L197.94,53l-.08-.28a2.07,2.07,0,0,0,.56-.53c.2-.26.57-.77,1.1-1.52a.4.4,0,0,0,.11-.4,4.33,4.33,0,0,0,1-1.19c.08-.07.29-.28.64-.64a2,2,0,0,1,.26-.26,3.28,3.28,0,0,0,.63-.81l.28-.08a3.21,3.21,0,0,0,.49-.63c.17-.27.39-.57.64-.9a5.7,5.7,0,0,1,.75-.28l0-.07-.07,0,.07,0c.09,0,.09,0,0,.07l.06,0q.39-1,.87-1.14c.19-.56.49-.84.88-.85l.27-.38c.05,0,.08,0,.09,0l.07,0a4.51,4.51,0,0,0,.62-.7l.18.09a7.11,7.11,0,0,0,.83-.76l.07,0s0,.07.09,0,.11-.13.19-.35l.28-.08a1.74,1.74,0,0,0,.33-.17l.33-.28a1.68,1.68,0,0,1,.63-.3L210,40.2l-.57-.66a.2.2,0,0,0,0-.16l-1.23-.92a.8.8,0,0,0,0,.59c0,.05.06.11.16.18a.43.43,0,0,1,.18.25l.06.21a.36.36,0,0,1-.23.21l-.1-.34a3,3,0,0,1-1.26-1c-.53-.1-.79-.3-.77-.6a2.43,2.43,0,0,0-1.46-.11.67.67,0,0,0-.33-.65l-.5-.31a.82.82,0,0,0-.81-.07A.65.65,0,0,1,203,36c-.13-.11-.24-.13-.32-.06l-.07-.27c.11-.14.29-.37.54-.72a2.56,2.56,0,0,1,.44-.54h0s.23.08.64.12l.27-.08a2,2,0,0,1,.44,0l.81.22A4.76,4.76,0,0,1,208,36.26a3.15,3.15,0,0,1,.29.22,3,3,0,0,1,.48.61,4.7,4.7,0,0,1,.78.9l.29.22a5.43,5.43,0,0,1,.75.94c.23.36.44.72.64,1.06.37-.31.52-.45.48-.44l.34-.1c0,.29,0,.43,0,.41a2.51,2.51,0,0,0-.57.5l1.41,3.34s.08.11.2.17a.43.43,0,0,1,.21.24.32.32,0,0,1-.17.42l.21.77c.33.1.52.22.56.36a.57.57,0,0,1-.16.5l.5.68a1.49,1.49,0,0,1-.18.42l.51.23a1.4,1.4,0,0,1-.37.78c0,.2.1.27.28.22-.08.07,0,0,.19-.13l.52,1.8.63.64c-.16.5-.3.77-.44.8,0,0-.06,0-.32,0a.27.27,0,0,0,0,.22,1,1,0,0,1,0,.37l.16,0a.28.28,0,0,1,.19-.13l.08.28c.21,0,.35.35.41.93s0,.76.08.8a.77.77,0,0,0-.36,0q-.42.12-.33.69c.06,0,.13.19.21.46-.13.09-.14.29,0,.62l.1.34.14-.56c.19,0,.38.29.55.89,0-.14-.06-.06-.08.25a1.64,1.64,0,0,0,.21.46l-.19,1.7.18.63c0,.13,0,.22-.08.24s-.12,0-.08-.05l-.14,0c.09,0,0,.21-.4.71.27.43.39.59.37.5a.6.6,0,0,1-.14.41c-.13.19-.18.3-.17.35a1.31,1.31,0,0,0,.24.31.82.82,0,0,1-.4.41l-.07,0a.08.08,0,0,0-.09,0c-.14,0-.22.19-.25.45l.18.1.18.1.23.83a1,1,0,0,1-.33.39l.14.49a2.64,2.64,0,0,1-.13.6,4.06,4.06,0,0,0-.16.75l-.49-.15a1,1,0,0,0-.11.29,2.63,2.63,0,0,1-.25.56.86.86,0,0,0,.44,0l.16.55a1.65,1.65,0,0,1-.24.74l-.34.4c.07.23-.1.68-.51,1.34l.08.28s-.08.1-.11.26a3.27,3.27,0,0,1-.18.57c-.46.83-.6,1.37-.43,1.62l-.43.58a1,1,0,0,0-.28.22,2,2,0,0,0-.36.71,1.28,1.28,0,0,0-.67.79l0,.45a1.83,1.83,0,0,0-.42.35,3.52,3.52,0,0,0-.49.66c-.09,0-.14,0-.16,0l-.13,0c-.1,0-.22.19-.39.49a.73.73,0,0,1,.05.43q-.24.22-.36,0c-.29.24-.38.34-.29.31l-.44.05-.05.61a2,2,0,0,1-.52,0,1.21,1.21,0,0,0-.16.5c-1.14.72-1.59,1.06-1.36,1a.63.63,0,0,1-.27,0,.83.83,0,0,0-.28,0s-.06,0,0,.09l-.07,0c-.05,0-.17-.05-.36-.2l-.16.5a2.46,2.46,0,0,0-.43.19,1.82,1.82,0,0,1-.36.18.27.27,0,0,1-.19,0,.47.47,0,0,0-.19,0C204.38,80.68,204.22,80.9,204,81.31Zm-1.74-1.38.19-.65a1.08,1.08,0,0,1,.86.13,1.94,1.94,0,0,0,.31-.47c.14-.23.25-.37.34-.39a.11.11,0,0,1,.12,0s.1,0,.2,0,.06,0,0-.09a.07.07,0,0,1,.05-.09l.14,0a.08.08,0,0,0,.09,0,.33.33,0,0,0,.21-.17c0-.09.1-.15.15-.16a.84.84,0,0,1,.31.06.91.91,0,0,0,.32.06l.28-.08a1,1,0,0,1,.16-.72l.28-.23a3.65,3.65,0,0,1,.41-.27c.45-.33.63-.5.52-.52l-.07,0,.07,0h.23a3.73,3.73,0,0,1,.88-1.23,4.82,4.82,0,0,0,.91-1.16,1.88,1.88,0,0,1,.29-.53,1.25,1.25,0,0,1,0-.46.45.45,0,0,1,.34-.39l.14,0a.32.32,0,0,0,.22,0q.34-.11.36-.33c-.12-.07-.17-.23-.14-.48a.74.74,0,0,1,.46-.51.81.81,0,0,0,.47-.43l.18.09.18-.42-.5-.16-.08-.27c.1-.18.19-.28.29-.31l.14,0a.21.21,0,0,0,.15,0c.65-.19.84-.84.57-2l.72-.88a2.44,2.44,0,0,1,.22-1,.63.63,0,0,0,.36-.33L214,65a1.88,1.88,0,0,1-.08-.57l.31-.47-.37-.27a4.32,4.32,0,0,0,.46-.73,3,3,0,0,1,.36-1.6c0,.06-.11,0-.23-.31l.21-1.86a2,2,0,0,0,.3-.53,1.08,1.08,0,0,1-.22-.76l.18-1a3.3,3.3,0,0,1-.31-.81l.15-.27a8.55,8.55,0,0,1-.2-2.26c-.06-.54-.1-1.2-.12-2l-.15-.26a3.3,3.3,0,0,1-.07-1,1.18,1.18,0,0,1-.19-.39,2.87,2.87,0,0,0,0-.82,7.28,7.28,0,0,0-.62-1.4l-.08-.27a2.75,2.75,0,0,1-.13-.72L213,46l-.12-.41a2.07,2.07,0,0,0-.21-.47.77.77,0,0,1,0-.36l-.1-.35a5.14,5.14,0,0,0-.29-.78c-.14-.28-.3-.6-.5-.94a4.28,4.28,0,0,1-.29-.48l-.32-.62-.29-.21c-.11-.37-.3-.52-.58-.44.05,0-.06.12-.33.4l-.18-.1a.93.93,0,0,1-.57.61s-.08,0-.09-.05l-.14,0c-.05,0-.08.06-.11.15a.25.25,0,0,1-.18.16.07.07,0,0,1-.09,0l-.06,0c.13,0,0,.13-.49.51s-1.16.91-2.06,1.57a4,4,0,0,1-.28.34.83.83,0,0,1-.37.29l-.07,0a1.75,1.75,0,0,1-.38.49l-2.48,2.58-1.24,1.7a5.18,5.18,0,0,0-1.08,1.44l-.48.43c-.15.15-.29.29-.4.42l-.79,1.16c-.32.47-.66,1-1,1.68.11,0,0,.32-.41.9a7.79,7.79,0,0,0-.75,1.31c-.27.47-.74,1.53-1.42,3.17l-.62,1.75.08.28c-.05.16-.12.38-.22.66a8.93,8.93,0,0,0-.26,1c0,.06-.13.29-.29.68a6.47,6.47,0,0,0-.26,2.1l-.1.18-.15.26c0,.66,0,1.39,0,2.22s0,1.74.08,2.78a9.08,9.08,0,0,0,.43,1.75l.22.76a10.34,10.34,0,0,1,.55,1.41,3.14,3.14,0,0,0,.89,1.25c-.12-.07-.09,0,.1.35l.71.92c.18-.06.28-.06.29,0a1.35,1.35,0,0,0,.37.49.53.53,0,0,1,.19-.13,9.85,9.85,0,0,1,.89.61c.41.3.7.41.87.31l.31.17a.56.56,0,0,0,.43.07.28.28,0,0,0,.19-.13l.21-.06c.32-.1.51,0,.55.36,0,0,.11-.07.18-.16a.4.4,0,0,1,.25-.18.47.47,0,0,1,.27,0,.68.68,0,0,0,.34,0,.35.35,0,0,0,.13-.08l.18-.16.15,0a.48.48,0,0,0,0,.29.6.6,0,0,0,.3,0Zm-1.24-45.85-.32-.06a2.06,2.06,0,0,0-.33-.66A2.39,2.39,0,0,1,200,33l-.06-.21c.1,0,.21-.16.34-.4a2.34,2.34,0,0,0,.26-.89l.18.09a1,1,0,0,0,.1-.17l.1-.18a.16.16,0,0,1,.16,0l.21-.06a1.3,1.3,0,0,0,.28-.31,1.24,1.24,0,0,1,.29-.31.25.25,0,0,1,.16,0l.14,0c.23-.06.34-.17.35-.32l.34.13.6-.78.12.42a4.27,4.27,0,0,0-.73,1.11c.06,0,.12.16.19.39a2.61,2.61,0,0,1-.26,1.2c-.18.05-.41.32-.67.79l-.62.18a.44.44,0,0,0-.15-.26A1.73,1.73,0,0,0,201.05,34.08Zm4.21,10.77,0-.07Zm7.88-5.18a.66.66,0,0,1-.34,0,.64.64,0,0,0-.27,0l0-.36a2.85,2.85,0,0,1,.42-.09,5.63,5.63,0,0,1,.59-.05C213.4,39.45,213.28,39.63,213.14,39.67Zm1.15,7.39,0-.07Z"/><path d="M220.33,45.28c-.13,0-.28-.05-.43-.26a.2.2,0,0,0,0,.16l-.42.1-.31-.36a.19.19,0,0,0,0,.15s-.12,0-.24-.08l-.17.19a5.3,5.3,0,0,1-1-.76,2.83,2.83,0,0,1-.77-1.11.41.41,0,0,0-.29,0l-.14-.56c.17-.09.19-.5.06-1.21l.14-.33-.08-.35-.18-.1.23-.28.22-2.36.5-1-.05-.21a2.51,2.51,0,0,0,.75-1.45.26.26,0,0,0,.21-.35c.56-.33.71-.7.47-1.08A.47.47,0,0,1,219,34a1,1,0,0,1,.3,0,.85.85,0,0,0,.31,0,.58.58,0,0,0,.23-.13.3.3,0,0,1,.15-.12c.24.14.38.21.42.19a1.12,1.12,0,0,0,.63-.45.47.47,0,0,0,.12.19.63.63,0,0,1,.13.19.93.93,0,0,1-.12.7l.28.23a3.2,3.2,0,0,1-.46,1.74,4.58,4.58,0,0,1-.92,1.35,1,1,0,0,0-.08.28.87.87,0,0,1-.13.37l-.14,0-.17-.1-.47,1.08a2.48,2.48,0,0,1-.3,1.19.48.48,0,0,1-.3.11c-.08,0-.11,0-.1.07l.13.48c.33.36.5.62.49.77a2.57,2.57,0,0,0-.09.54s.18.11.56.46a1,1,0,0,0,.05.5,4.3,4.3,0,0,1,1.63.26l.28-.07a.71.71,0,0,0,.43-.33s.08,0,.09,0l.07,0s.14-.13.28-.37.23-.35.28-.36a.08.08,0,0,1,.09.05.06.06,0,0,0,.08,0,.74.74,0,0,0,.26-.14,1.44,1.44,0,0,1,.34-.16l-.06-.21s-.06-.05,0-.07v.07a1.55,1.55,0,0,0,.55.09l-.15-.26a.69.69,0,0,0,.25-.51,2.42,2.42,0,0,0,.64-.27c.19-.12.26-.25.23-.39l.56-.14a.12.12,0,0,0,.17.1c.47-.12.65-.48.54-1.1l.32-.52.17.1c.14-.23.28-.37.42-.4a.11.11,0,0,1,.12,0,.19.19,0,0,0,.19,0,.62.62,0,0,0,.37-.32.72.72,0,0,0,.14-.33,2.12,2.12,0,0,1,.28-.37,1.17,1.17,0,0,0,.24-.5l.47.1a7.59,7.59,0,0,1,1.15-1.63c.42-.3.62-.5.59-.59a1,1,0,0,0,.51-.35L231,35l.85-.74.11.42-.35.09c0,.06,0,.2,0,.44l-1.28,1.66c-.1,0-.13,0-.09,0h-.07a3.54,3.54,0,0,1-.45.86.84.84,0,0,1-.53.28c-.46.71-.63,1-.5.94a.24.24,0,0,0-.16,0,.49.49,0,0,0,0,.3h-.07c-.19.05-.42.31-.7.78l-.21,0a.6.6,0,0,0-.26.14c-.15.18-.33.41-.53.69l-.69.95-.42.11c-.25.36-.45.56-.59.59l-.21,0a.22.22,0,0,0-.15,0,2.29,2.29,0,0,0-.46.41,1.68,1.68,0,0,1-.52.43l-.07,0a.07.07,0,0,0-.09-.06,2.84,2.84,0,0,0-.46.38,2.7,2.7,0,0,1-.46.38l-.07,0c0-.05-.07-.06-.16,0a.32.32,0,0,0-.16.12,1.21,1.21,0,0,1-.35.23q-.6.53-.33.45a1.93,1.93,0,0,1-.43,0,3.25,3.25,0,0,0-.51,0Zm1.46-14.55a2.91,2.91,0,0,1-1.73-.38q-1-.63-1.17-1.11L220.54,28c.6-.47,1.22-1,1.87-1.55l.07,0a3.58,3.58,0,0,1-.45,1.45l.26.45.11.42-.24.51C222.38,30.11,222.26,30.62,221.79,30.73ZM232.35,34s-.1,0-.14-.08-.08-.09-.13-.07l.72-1.3c.18,0,.29,0,.31.07a1,1,0,0,1-.29.78A4.2,4.2,0,0,1,232.35,34Z"/><path d="M231.81,42.88a.31.31,0,0,1-.12-.2,1.76,1.76,0,0,1,.25-.93l-.18-1.29a2.94,2.94,0,0,1,.45-.68,2.09,2.09,0,0,1,0-.66c0,.05-.1-.15-.2-.62a1.11,1.11,0,0,0,.16-.33,4.49,4.49,0,0,1-.33-1.25s.05-.09.14-.4a1.69,1.69,0,0,1-.15-.7,2.37,2.37,0,0,0,.09-.65,1.2,1.2,0,0,0-.12-.6l-.45-1.52a3.74,3.74,0,0,1-.22-1.06.64.64,0,0,1-.06-.65,3.36,3.36,0,0,0-2-1.8l-.07-.35a.57.57,0,0,0,.2-.12.58.58,0,0,1,.2-.11,1,1,0,0,1,.34.08.94.94,0,0,0,.35.07l.92-.18c0,.05.16.27.61.64a4.26,4.26,0,0,1,1,1.3,1.45,1.45,0,0,0,.21.47.51.51,0,0,0,.38.29,4.42,4.42,0,0,1,.49,1.3,5.32,5.32,0,0,1,.08.61q0,.32,0,.69l.26.17a2.58,2.58,0,0,1,.42,1l.23,0,1-2.49s.11-.19.35-.44a2.53,2.53,0,0,1,.31-.65c.24,0,.34-.15.3-.31s.15-.49.54-1a1.22,1.22,0,0,1,.92-1.29l0-.07c-.05-.28,0-.45.26-.53s.34-.27.32-.61l.55-.55c0-.11.06-.21.08-.31s.08-.24.14-.4a2.33,2.33,0,0,1,.53-.33,15,15,0,0,0,1.12-1.18.75.75,0,0,1,.2-.26l.25-.2a3.89,3.89,0,0,1,.33-.21c.12-.37.23-.56.32-.58a.07.07,0,0,1,.09.06l.07,0c-.1,0,.13-.2.67-.65a1.6,1.6,0,0,1,.42-.3c.15-.08.32-.17.5-.25a1.35,1.35,0,0,1,1.06-.95.13.13,0,0,1,.12.05s.09,0,.19,0a.37.37,0,0,0,.16-.1.35.35,0,0,1,.16-.11,1.17,1.17,0,0,1,1.22.56,6.78,6.78,0,0,1,1.1,2.57l.38,1.83c0,.05.07.11.18.19a.72.72,0,0,1,0,.29l.84,2.33.86,2.1a4.51,4.51,0,0,0,.48.53,3.25,3.25,0,0,1,.5.67l.24.1c.25,0,.42.26.5.63l.91.18.34.23.76-.6.32.09c.09,0,.25-.23.5-.62a2.84,2.84,0,0,0,.38-.81.29.29,0,0,1,.23,0l.2.25a7.48,7.48,0,0,1-1.09,1.91s-.08.05-.12.13-.07.13-.12.14-.12,0-.08-.06l-.07,0c-.1,0-.16.18-.2.48l-.79.82.06.28-1,.65c-.22.14-.3.21-.26.2-.19,0-.31,0-.38-.07s-.12-.12-.17-.11h-.07a.07.07,0,0,1-.05.09.59.59,0,0,1-.66-.31l-.05.08c-.19,0-.46-.09-.81-.38s-.59-.48-.7-.56l.11-.17q0-.14-.33-.15c-.25-.54-.42-.75-.49-.64s-.2-.13-.37-.73a.91.91,0,0,0,0-.4,2.41,2.41,0,0,1,0-.55c-.32-.37-.61-.46-.86-.26a2.37,2.37,0,0,0-.25-.54.64.64,0,0,0,0-.22,1.21,1.21,0,0,1-.25-.91v-.66l-.27-.24-.13-.64a1.18,1.18,0,0,1-.49-.23.8.8,0,0,0-.33-.19l-.24-1.2a1.68,1.68,0,0,1,.12-.46l-.45-.43,0-.14a1.36,1.36,0,0,0-.25-.5l-.51-.74a1.25,1.25,0,0,0-.93-.25.13.13,0,0,0-.1.09c0,.06-.06.09-.16.11.1,0,0,0-.24-.1a.44.44,0,0,0-.08.31,1.3,1.3,0,0,0-.83.61.07.07,0,0,1-.09-.06c0-.05,0-.08,0-.07l-.82,1.05a.35.35,0,0,0-.2.11c-.2.19-.29.36-.26.5a5,5,0,0,0-1.74,2.33,1.33,1.33,0,0,0-.32.22c-.25.44-.58,1-1,1.63l-1.39,2.23a2.6,2.6,0,0,0-.26.49c-.07.16-.26.57-.57,1.22l-.16.25-.23.34a1.73,1.73,0,0,1-.11.72,2.78,2.78,0,0,0,0,1.29,1.66,1.66,0,0,1-.22.7,1.55,1.55,0,0,0-.2.85.29.29,0,0,0,.12.2,3.93,3.93,0,0,0-.55.4,2,2,0,0,1-.41.31.11.11,0,0,1-.12,0,.13.13,0,0,0-.12-.05c-.1,0-.22.14-.37.37l0,.14a1.7,1.7,0,0,1-.08.68c-.33.06-.47.24-.41.52A.75.75,0,0,1,231.81,42.88Z"/><path d="M261.38,36.89l-.05-.29a1.86,1.86,0,0,0-.71.11,1.4,1.4,0,0,0-.67-.55.18.18,0,0,0-.15,0l-.45-.33-.62-.45a.34.34,0,0,0-.34-.31,2.63,2.63,0,0,0-.57-.86s0-.12,0-.21a.77.77,0,0,0-.12-.28l-.24-.18c-.1-.32-.24-.45-.43-.37a.51.51,0,0,0,.09-.38,1.63,1.63,0,0,0-.14-.41,2.43,2.43,0,0,0-.3-.54l0-.35-.32-.17c0-.11.07-.21.1-.31a.61.61,0,0,0-.36-.45,2.41,2.41,0,0,0-.26-.69.53.53,0,0,0,0-.3,1.23,1.23,0,0,1,0-.37l-.18-.19.06-.59-.33-.68a19.93,19.93,0,0,1-.11-2.09c0-.15.07-.38.12-.68a2.07,2.07,0,0,0,0-.59l0-.28a3.08,3.08,0,0,0-.2-.34c-.06-.08-.21-.11-.45-.07l-.57.08L253,23.39a.21.21,0,0,1-.1-.16.23.23,0,0,0-.1-.17.19.19,0,0,0,.05-.15l.5-.08,1.71.24a.27.27,0,0,0,.2-.1l.22,0,.16-.83a.67.67,0,0,0,.11-.24c0-.1.08-.74.14-1.91a3.87,3.87,0,0,0,.2-.58c.06-.23.12-.49.17-.79a1.28,1.28,0,0,0,.34-.64l-.08-.49.39-.79q-.14.09.27-.63a2.07,2.07,0,0,0,.31-1.29,2.81,2.81,0,0,0,.44-.68c.2-.4.52-.94.95-1.64L259,12a3.33,3.33,0,0,0,.78-1.58l.3-.38a6,6,0,0,0,.43-.54c0-.23.16-.55.58-1a2.34,2.34,0,0,0,.72-1c.28,0,.75-.5,1.39-1.38a3.29,3.29,0,0,0,1-1.24l.14,0c.24,0,.43-.26.56-.67a7,7,0,0,0,1.22-1.06l.37-.43a.08.08,0,0,1,.08.06h.07s.13-.12.53-.37A14.32,14.32,0,0,1,269.51,1l.14,0a.18.18,0,0,0,.16.05,2.21,2.21,0,0,0,.68-.32.33.33,0,0,0,.16-.13c.06-.09.11-.13.16-.14s.08,0,.12.06a.11.11,0,0,0,.11.05.56.56,0,0,0,.23-.18A.56.56,0,0,1,271.5.2c-.05,0,0,0,.08.06a1.45,1.45,0,0,0,.58,0,1.3,1.3,0,0,0,.62-.24c.22.16.35.24.4.23s.6-.05,1.66-.11l.25.25c.1,0,.14-.07.12-.16a24.47,24.47,0,0,1,2.13,1.49l.12.78a.44.44,0,0,0,.3,0,5.78,5.78,0,0,0,.14.7,3.87,3.87,0,0,0,.21.63.27.27,0,0,1,.1.2,1.18,1.18,0,0,1,0,.37c0,.14-.12.62-.29,1.42l-.1.75a27.48,27.48,0,0,1-1.13,2.58l-.62.75-.05.59-.21,0-.82,1.3a5.31,5.31,0,0,0-1.12,1.7,2.09,2.09,0,0,0-1.15,1.05,7.57,7.57,0,0,0-.56.6c-.25.28-.59.63-1,1a9.59,9.59,0,0,0-1.2.7c-.49.32-1,.69-1.65,1.13a11.6,11.6,0,0,1-.87.93,5.08,5.08,0,0,0-1.22.63,3.56,3.56,0,0,1-1,.59,5.4,5.4,0,0,0-.78.41h-.07c0-.05,0-.07-.08-.06s-.11.09,0,.22a.27.27,0,0,0-.22,0,2.17,2.17,0,0,0-.45.21l-1.1.61a10,10,0,0,1-1.56.75c-.05,0-.08,0-.08-.06h-.08a4.62,4.62,0,0,0-.6.35,3.49,3.49,0,0,1-.6.35.18.18,0,0,1-.15-.05l-.14,0a5.68,5.68,0,0,1-.88.25c-.4.08-.51.21-.34.38l-.31-.1a.41.41,0,0,0-.26.19l.09,2.46.17.12a3.87,3.87,0,0,0,.08,1,.35.35,0,0,0-.16.39,7.2,7.2,0,0,0,.34.75,4.88,4.88,0,0,1,.34.83l.07.42c-.06,0-.19,0-.41.21l0-.28-.21,0c-.38.06-.38.2,0,.44l.05.28a3.1,3.1,0,0,0-.59.46l.53.57.21,0a.94.94,0,0,1,.29,0l.37.05.12-.17.5-.07a1.62,1.62,0,0,0,.45.51.87.87,0,0,0,.11.28l.65.41c.24.93.65,1.25,1.24,1l.05.28a.25.25,0,0,0,.22,0l.2-.1c.2.31.39.45.58.42a4.91,4.91,0,0,0,.75-.34l.18-.24-.16-1c.08-.11.12-.19.11-.24a3.81,3.81,0,0,0-.1-.42,4.05,4.05,0,0,0-.2-.55c-.14,0-.32-.19-.51-.5a1.66,1.66,0,0,0-.15-.49,2.15,2.15,0,0,0-.84-.74l-.36.05a.85.85,0,0,0-.64.32c-.1.16-.19.25-.29.26l-.59-.05a1.76,1.76,0,0,0-.69-.69,4.18,4.18,0,0,1,.12-.64c.06-.23.14-.52.23-.88a1.25,1.25,0,0,0,.64-.35,1.17,1.17,0,0,1,.49-.33l.24.11.92-.15a.5.5,0,0,0,.55.28l1.63-.76s.14-.19.45-.43a2.23,2.23,0,0,1,.59-.39c.05,0,.09,0,.13.09s.07.1.12.09c.24,0,.36-.2.36-.49a1.39,1.39,0,0,0,.42-.14l.42-.06a1.71,1.71,0,0,0,.64-.36c.28-.21.48-.3.58-.27a.44.44,0,0,0,0,.3,18.81,18.81,0,0,0-3.09,2.15c-.1,0-.14,0-.15-.05h-.07c-.74.56-1.33,1-1.76,1.37l-.29.48,1.53,1.88,0,.14a3.36,3.36,0,0,0,.36.89,7.4,7.4,0,0,0-.05,1.1l.08.5a3.58,3.58,0,0,1,0,1.31A2.26,2.26,0,0,0,264,35l-.35.34a.29.29,0,0,1,0,.23,1.77,1.77,0,0,1-1.22,1.06l-.52-.07A.83.83,0,0,0,261.38,36.89Zm-3.82-14.27a2.7,2.7,0,0,1,.89-.36.52.52,0,0,1,.3,0,.58.58,0,0,0,.29,0,2.05,2.05,0,0,0,.47-.29l.14,0c0,.05,0,.07.08.06l.68-.32a.11.11,0,0,1,.12.05.12.12,0,0,0,.12.06.84.84,0,0,0,.25-.26c.12-.17.23-.26.32-.27s.08,0,.08.06h.08q0-.15.72-.48l.24.11c.06-.2.37-.44.91-.72l.42-.58.14,0a2.48,2.48,0,0,0,1.05-.75.76.76,0,0,0,.34-.12,6.68,6.68,0,0,1,.58-.53A.43.43,0,0,0,266,18a.82.82,0,0,0,.52-.38q.12-.24.18-.24a.07.07,0,0,1,.09,0h.07a1.56,1.56,0,0,0,.63-.35c.29-.21.42-.34.42-.39v.07H268a7,7,0,0,0,1.46-1.39l.22-.47c.27.2.45.29.55.27s.17-.22.16-.17a5.73,5.73,0,0,0,1-.81l.16-.39a.71.71,0,0,0,.36,0,.73.73,0,0,1,.17-.61,4.24,4.24,0,0,0,.51-1.17,3.4,3.4,0,0,0-.62-.2c-.14,0-.37.24-.7.66s-.58.64-.77.66-.14,0-.15,0l.16-.38a.71.71,0,0,0,.25-.23.7.7,0,0,1,.33-.23,4.92,4.92,0,0,1,.25-.77c.44-.55.87-1.1,1.27-1.65a9.05,9.05,0,0,0,1-1.68,6,6,0,0,0,.49-.84c.16-.34.39-.8.69-1.39l-.05-.35.24-.33q-.07-.42.21-.54c0-.54,0-1,.08-1.36a3.39,3.39,0,0,0,0-.84c-.06-.43-.58-.79-1.55-1.07l-.73,0q-.07,0-.21-.15c-.09-.1-.16-.15-.2-.15l-.48.22-.19.18-.21,0a.22.22,0,0,0-.16-.05.3.3,0,0,0-.2.11.22.22,0,0,1-.13.09.18.18,0,0,1-.15-.05.22.22,0,0,0-.16,0l-.26.19a.84.84,0,0,0-.5.08l-.53.3L269.3,2a1.75,1.75,0,0,0-.15.24c0,.1-.1.16-.15.17a.29.29,0,0,0-.23,0c-.19,0-.37.25-.55.67a2.29,2.29,0,0,1-.44.21,4.77,4.77,0,0,0-.64.32,4.7,4.7,0,0,1-1.17.91l-1.81,2c0-.05-.07-.11-.18-.19s-.25.25-.63.6l-.27.63-.35,0-1.4,1.82a.29.29,0,0,1,0,.23,7.7,7.7,0,0,0-.69.94l-.84,1.41a4,4,0,0,1-.13.53c-.07.2-.13.43-.19.68a2,2,0,0,0-.24.51.82.82,0,0,0,0,.63l-.59.89,0,.66-.25.77a9.09,9.09,0,0,1-.41,1.08.92.92,0,0,1,0,.58c.09,0,.14,0,.15,0a1.39,1.39,0,0,0-.31.85,6.48,6.48,0,0,1-.11,1.15,1.9,1.9,0,0,1-.17.28c0,.24,0,.44,0,.59s0,.19,0,.14c.11.67.18.85.23.55Zm2.21,9.05-.08-.06C259.67,31.52,259.7,31.54,259.77,31.67Z"/><path d="M270.42,35.61a1.63,1.63,0,0,1-.21-.19.33.33,0,0,0-.19-.13h-.08c0,.05,0,.08-.06.08s-.21-.19-.36-.61a1.85,1.85,0,0,0-.53-.15c-.2-.51-.4-.78-.6-.8l-.23-1.93.5-.71c0-.05,0-.22-.13-.49a2.83,2.83,0,0,1,.11-.31.92.92,0,0,1,.18-.31,2.24,2.24,0,0,0-.13-.49,1.33,1.33,0,0,1,.35-.7,1.29,1.29,0,0,1,.19-.82c.1,0,.33-.32.69-.95l.59-1.15a9.65,9.65,0,0,0,.76-.89l0-.29a1.79,1.79,0,0,0,.38-.48.91.91,0,0,0,.66-.51c0-.05,0-.12,0-.22a.75.75,0,0,1,0-.29.75.75,0,0,1,.28-.11,1,1,0,0,0,.35-.11,1.05,1.05,0,0,1,.29-.61,1.58,1.58,0,0,0,1.24-1.16.92.92,0,0,0,.3-.22.92.92,0,0,1,.3-.22s0,.09.23.12.13-.18.12-.23a1.28,1.28,0,0,1,.62-.29l.3-.48a.14.14,0,0,1,.12.06.11.11,0,0,0,.12.06,1.69,1.69,0,0,0,.51-.24,1.6,1.6,0,0,1,.52-.24h.07s0,.07.08.06.1,0,.16-.12.12-.13.17-.13a.49.49,0,0,1,.3.07.39.39,0,0,0,.23.08.09.09,0,0,0,.09-.08c0-.05.08-.08.17-.1q-.14,0,.24.12a.35.35,0,0,1,.32-.33.17.17,0,0,1,.19.09.17.17,0,0,0,.19.09c.05,0,.07,0,.07-.08l.14,0c.09,0,.31.16.64.5l.12-.16a1.46,1.46,0,0,1,.64.51l.09.71-.16-.12a2.66,2.66,0,0,1-.84.24.11.11,0,0,1-.12-.06s-.09-.06-.19-.05a.45.45,0,0,0-.17.1.4.4,0,0,1-.17.09.42.42,0,0,1-.25,0,.32.32,0,0,0-.19,0c-.05,0-.07,0-.06.08s0,.07-.14.08h-.07c0-.05,0-.07-.08-.06a6.83,6.83,0,0,0-.78.45,6.18,6.18,0,0,1-.78.46c-.05,0-.13-.06-.24-.19l-1.35.81-.52-.08q-.08,0-.33.33c-.16.21-.3.32-.39.33s-.07,0-.08-.06h-.07a.7.7,0,0,0-.5.38,1.39,1.39,0,0,1-.7.56s0,.15,0,.28a1.81,1.81,0,0,1-.81,1.12c-.05.05-.06.15,0,.29l-.5.06a.92.92,0,0,0,0,.51,1,1,0,0,1-.37,0,.79.79,0,0,0,0,.72l-.71.09-.28.72a7.21,7.21,0,0,0-.31,1,5.37,5.37,0,0,1-.19.57,3.89,3.89,0,0,0-.23.79,4.42,4.42,0,0,0-.58,1.3l.08.64a1.08,1.08,0,0,1,0,.3,1.21,1.21,0,0,0,0,.36,1.09,1.09,0,0,0,.76.28,1.79,1.79,0,0,0,.52-.18,1.17,1.17,0,0,0,.53-.75l.23.12a4.83,4.83,0,0,0,1.2-.94.88.88,0,0,1,.34-.18.34.34,0,0,0,.24-.39.18.18,0,0,1,.15.05l.23-.53a.94.94,0,0,0,.76-1,.3.3,0,0,1,.22,0l.45-.49a.6.6,0,0,1,0-.29.3.3,0,0,0,.14-.05l.2-.13.33-.84a1.31,1.31,0,0,1,.69-.37,2,2,0,0,0,.35-.41c.1-.15.19-.28.28-.39l-.18-.27a1,1,0,0,0-.25-.26c-.11-.13-.08-.26.1-.38-.09.06-.14,0-.16-.12l0-.43a3.87,3.87,0,0,1,.5-.35,2.82,2.82,0,0,0,.63-.51,1.4,1.4,0,0,1,.34-.19c-.14,0-.09.06.16.13.07-.25.16-.53.27-.83a10.5,10.5,0,0,0,.31-1.05l.53-.35.2.41a2.44,2.44,0,0,0-.43,1.28c0,.14.27.26.77.35a.26.26,0,0,1-.06.15,2.79,2.79,0,0,1,.52.37,2.42,2.42,0,0,1,.29.33,2.41,2.41,0,0,0-.34,1.42l.16.12a1.25,1.25,0,0,0,0,.58c.08.28.17.58.28.88l.37,1,.59.66,0,.21a2.41,2.41,0,0,0,.92,1.64l.2-.17,0,.21a2.45,2.45,0,0,1,1,.54l.79-.1a.55.55,0,0,0,.46.24c.76-.09,1.12-.33,1.08-.71l.16.13a8.79,8.79,0,0,0,2.08-2.64c.61-.94,1-1.4,1.07-1.36l.29,0,0,.28.08.07-.48.85c0,.19-.14.45-.49.78.1,0,.11.11,0,.22l-.4.33.17.2a3.32,3.32,0,0,0-1.08.71q-.39.4-.3.54c-.09,0-.24.17-.45.49a.25.25,0,0,0-.25.32l-.16-.13-.2.17a2.45,2.45,0,0,0-.32.33l-.21,0a.75.75,0,0,0-.28.11l-.12.23-.36,0a.18.18,0,0,0-.15-.05,1.38,1.38,0,0,0-1,.47l0-.28-.93.11,0-.29c-.09.11-.15.17-.2.17a.64.64,0,0,1-.42-.2.55.55,0,0,0-.56-.12q-.44-.52-1-1.08c-.36-.37-.58-.5-.67-.39a.24.24,0,0,1,.06-.15,1.17,1.17,0,0,1-.36-.61,22.78,22.78,0,0,1-2.35-3.28c-.17.21-.37.5-.62.87s-.54.77-.87,1.19a2.72,2.72,0,0,0-.11.34q0,.2-.09.48l-.46.35a1.7,1.7,0,0,1,0,.32c0,.13,0,.29-.05.48a1.32,1.32,0,0,0-.36.33,1,1,0,0,1-.58.36c-.05,0-.12,0-.23-.12l-.31.44c-.12.18-.27.41-.43.67a.76.76,0,0,0,.44,0l0,.28c0,.05-.12.23-.37.56l.16.12a8.57,8.57,0,0,0-.82,1l-.26,0A1,1,0,0,0,272,35c-.59.31-.77.45-.53.42a2.22,2.22,0,0,1-.51,0l-.43.05A.12.12,0,0,0,270.42,35.61Z"/><path d="M286,36c-.14,0-.3-.22-.47-.54a1.08,1.08,0,0,1,0-.65s-.05-.12-.16-.21a1.36,1.36,0,0,0,.23-.34c.06-.12.13-.29.21-.49a.42.42,0,0,1,.23.13,2.77,2.77,0,0,1,.83-.42c-.1-.09-.1-.14,0-.15s.18.06.37,0a.92.92,0,0,0,.31-.21.81.81,0,0,1,.38-.21h.21c.19,0,.24-.07.14-.16a4.43,4.43,0,0,1,.48-.32l.55-.33.21,0,.13-.23h.07a2,2,0,0,0,.81-.28,3.56,3.56,0,0,1,.52-.26c.05,0,.15.06.31.2l.13-.16a1.39,1.39,0,0,0,.6-.69.88.88,0,0,0,.58,0,5.09,5.09,0,0,1,.76-.42,1.13,1.13,0,0,0,.48-.25l1.31-.89-.77-1.53a.29.29,0,0,0-.09-.21.41.41,0,0,0,0-.51.66.66,0,0,0-.39-.33l.07-.08a1.35,1.35,0,0,1-.44-1c-.06-.09-.2-.08-.43,0l-.24-.27a3.59,3.59,0,0,1,.24-.59.58.58,0,0,0-.44-.18L292.4,24a.82.82,0,0,1,.18-.44.48.48,0,0,1-.32-.34l.05-1.23a2.15,2.15,0,0,0,.11-.48,8.11,8.11,0,0,1,.22-.92l1.08-2,.73-.85c.88-1,1.45-1.48,1.69-1.5v.07h.07c.05,0,.07,0,.07-.07a2.15,2.15,0,0,0,.86-.5,9.94,9.94,0,0,1,.78-.71h.14c.19,0,.29-.1.27-.24l.23.06.13-.16a.19.19,0,0,0,.08.14.24.24,0,0,0,.06-.15.24.24,0,0,1,.06-.15c-.05,0-.05,0,0-.07v.07c0,.05,0,.05.07,0l.51,0,.11-.44a.19.19,0,0,0,.08.13,2.38,2.38,0,0,1,.91-.43q.29,0,.33.12c0,.1.14.13.33.12h.08c-.06,0,0-.06.06-.07a1.82,1.82,0,0,1,1,.39,3.39,3.39,0,0,1,.73.56l-.11.51-.7.27a1.53,1.53,0,0,0-.58,0c-.12-.32-.28-.48-.47-.47a.26.26,0,0,1-.21.09.59.59,0,0,0-.28.1.58.58,0,0,1-.45-.26.17.17,0,0,1-.15-.06,1.1,1.1,0,0,1-.75.56l-.45-.18a3.09,3.09,0,0,0-.52.26c-.3.17-.48.23-.53.18a2,2,0,0,1-.86,1.08l-.67,1.57c-.65.29-1,.7-.92,1.22a1.87,1.87,0,0,0,.27.71l-.11.44a.68.68,0,0,0-.27.16.5.5,0,0,0-.19.45c0,.29.13.38.31.27.1,0,.2.32.28.84a.39.39,0,0,1-.12.3l.23.2a2.69,2.69,0,0,1,.4.47.27.27,0,0,1,0,.36s.1.11.17.35l.29,0a2.19,2.19,0,0,1,.52,1.18,2.16,2.16,0,0,1,.65,1L298,27a.34.34,0,0,0-.21.09l.24.34.55-.47a2.47,2.47,0,0,1,.62-.41.44.44,0,0,1,.22.13l.17-.2a.93.93,0,0,0,.15-.33,6.66,6.66,0,0,0,1.7-1.36l.22.05A3.77,3.77,0,0,0,303,23.24a.58.58,0,0,1,.37,0c0-.14.1-.3.33-.46a.81.81,0,0,1,.36.05l.12.56c0,.05-.1.12-.31.21a4.68,4.68,0,0,0-1.12,1,9,9,0,0,1-1.09.8l-.2.31c-.13.1-.3.25-.5.43s-.45.39-.72.6a2.33,2.33,0,0,0-.65.37c-.26.19-.54.42-.85.68a.29.29,0,0,1,.08.14.42.42,0,0,1-.13.23c-.1,0-.15,0-.15-.13l-.2.23a.48.48,0,0,0-.12.37,1.61,1.61,0,0,0,.11.49l-.11,1.39a2.12,2.12,0,0,1-.77,1.21,5.58,5.58,0,0,0-.87.93.68.68,0,0,1-.33.46h-.14s0-.07-.08-.07a8.18,8.18,0,0,0-.74.71c-.4.42-.65.63-.74.64h-.07s0-.07-.08-.06a2.12,2.12,0,0,0-.89.71l-.22-.12c0,.09-.45.2-1.35.32a1.64,1.64,0,0,1-.56-.21q-.4-.23-.42-.3l0-.5c0-.14.31-.36.82-.64a.19.19,0,0,1,.15.1.24.24,0,0,0,.23.09l1.45.1h.22s.07,0,.06-.08,0-.1.13-.15a7.31,7.31,0,0,0,1.63-1.43,1.06,1.06,0,0,0,0-.43.19.19,0,0,0,.08.13.5.5,0,0,0,.35-.6c0-.29,0-.45,0-.51s-.11-.18-.16-.13a1.52,1.52,0,0,1,.12-.37l-.1-.35c-.16-.18-.28-.22-.37-.12s-.07,0-.07.08,0,.07-.13.08a.17.17,0,0,1-.15-.06c-.06-.09-.13-.09-.22,0a1.23,1.23,0,0,0-.46.57,1.42,1.42,0,0,1-.74.68l-.08-.07h-.14s0,.05-.07.15a.25.25,0,0,1-.14,0l-.22-.09c.09,0,.11.19,0,.43l-.16-.13-.4.39-.68.56c0-.05-.08-.09-.22-.13a1,1,0,0,1-.41.32h-.15a.24.24,0,0,0-.15-.06l-.27.24a.78.78,0,0,0-.55.26c.24.08.15.16-.28.24a.06.06,0,0,0-.07-.07h-.07c-.44,0-.45.18,0,.43l-.21.09a.19.19,0,0,0,.08.14.24.24,0,0,1-.06.15l.22.13,0,.21-.81.21a1.16,1.16,0,0,0-.59.33l-.4.39Z"/><path d="M306.89,31.86c-.15,0-.27-.11-.38-.34a.19.19,0,0,0-.06.15H306l-.23-.42a.17.17,0,0,0-.06.15.39.39,0,0,1-.23-.14l-.21.16a6.25,6.25,0,0,1-.79-.94,2.85,2.85,0,0,1-.52-1.24.4.4,0,0,0-.3-.06l0-.58c.19-.05.29-.44.31-1.16l.2-.3v-.36l-.15-.14.28-.23.69-2.26.69-.82v-.22a2.52,2.52,0,0,0,1-1.27q.29,0,.27-.3c.62-.21.84-.54.68-1a.63.63,0,0,1,.21-.08,1.06,1.06,0,0,1,.3.09.8.8,0,0,0,.29.1.41.41,0,0,0,.25-.08.36.36,0,0,1,.17-.08c.2.18.33.27.38.27a1.14,1.14,0,0,0,.7-.32.56.56,0,0,0,.09.21.86.86,0,0,1,.08.22.91.91,0,0,1-.26.66l.22.27a3.16,3.16,0,0,1-.79,1.62,4.84,4.84,0,0,1-1.18,1.14.8.8,0,0,0-.13.25.9.9,0,0,1-.2.34h-.15l-.15-.14-.68,1a2.55,2.55,0,0,1-.53,1.1.51.51,0,0,1-.32.05c-.07,0-.11,0-.1,0l0,.51c.25.42.36.7.32.85a2.25,2.25,0,0,0-.19.51c0-.05.15.14.45.56a1.07,1.07,0,0,0-.05.51,4,4,0,0,1,1.54.58h.29a.7.7,0,0,0,.49-.24c.05,0,.08,0,.08.07h.07s.16-.1.35-.3.3-.3.34-.3.08,0,.08.07a.06.06,0,0,0,.07.06A.84.84,0,0,0,310,30a1.13,1.13,0,0,1,.36-.08V29.7c-.05-.05-.05-.07,0-.07v.07a1.6,1.6,0,0,0,.51.19l-.09-.28a.68.68,0,0,0,.35-.45,2.23,2.23,0,0,0,.68-.14q.32-.12.3-.33l.58,0c0,.1,0,.14.15.14.48,0,.73-.34.75-1l.42-.45.15.14a.78.78,0,0,1,.49-.31.13.13,0,0,1,.11.07s.08.06.18.06a.64.64,0,0,0,.42-.23q.21-.22.21-.3a2.07,2.07,0,0,1,.34-.3,1.09,1.09,0,0,0,.35-.45l.44.2c-.05-.05.43-.5,1.45-1.36.47-.21.71-.37.7-.46a1,1,0,0,0,.57-.24V24l1-.55,0,.44H320a.85.85,0,0,0,0,.44l-1.6,1.36c-.1,0-.12,0-.07-.07h-.08s-.15.24-.61.74a.83.83,0,0,1-.57.17c-.6.6-.83.88-.69.82a.24.24,0,0,0-.14-.06.37.37,0,0,0-.06.29h-.08c-.19,0-.47.21-.84.61H315a.65.65,0,0,0-.29.09l-.66.56-.86.8-.43,0a1.55,1.55,0,0,1-.71.46h-.21a.21.21,0,0,0-.15-.07,2.57,2.57,0,0,0-.53.31,1.72,1.72,0,0,1-.6.32h-.07c0-.05,0-.07-.07-.07a2,2,0,0,0-.53.28,2.36,2.36,0,0,1-.53.27h-.07s-.05-.07-.15-.06a.34.34,0,0,0-.18.08,1.64,1.64,0,0,1-.38.16c-.47.26-.61.38-.42.38l-.44-.06a3.21,3.21,0,0,0-.5-.05Zm4.38-13.95a2.91,2.91,0,0,1-1.62-.72c-.6-.55-.91-1-.92-1.33L310.6,15c.68-.34,1.4-.72,2.15-1.14h.07a3.36,3.36,0,0,1-.74,1.33l.17.5,0,.43-.34.44C312,17.43,311.74,17.89,311.27,17.91Zm9.66,5.35s-.08,0-.11-.1-.06-.1-.11-.1l1-1.12c.19,0,.29,0,.29.13s-.13.43-.43.7A4,4,0,0,1,320.93,23.26Z"/><path d="M314.84,34.08c-.14,0-.29-.24-.43-.57a1.13,1.13,0,0,1,.06-.65s0-.12-.14-.21a2,2,0,0,0,.25-.33c.07-.12.15-.28.24-.47A.4.4,0,0,1,315,32a2.76,2.76,0,0,1,.86-.36q-.13-.15,0-.15a.57.57,0,0,0,.36.07.81.81,0,0,0,.32-.18.92.92,0,0,1,.4-.19h.21c.2,0,.25-.05.15-.14a4.4,4.4,0,0,1,.5-.3l.57-.29h.22l.14-.22h.07a1.94,1.94,0,0,0,.83-.22,2.38,2.38,0,0,1,.54-.22s.14.07.29.21l.14-.14a1.41,1.41,0,0,0,.64-.66.87.87,0,0,0,.58.07,4.13,4.13,0,0,1,.79-.37,1.22,1.22,0,0,0,.5-.22l1.36-.8-.66-1.58a.29.29,0,0,0-.08-.22.38.38,0,0,0,.07-.5.7.7,0,0,0-.36-.36l.07-.07a1.4,1.4,0,0,1-.37-1c-.05-.1-.19-.1-.43,0l-.22-.29a2.84,2.84,0,0,1,.28-.58.63.63,0,0,0-.43-.21l-.29-.57a.92.92,0,0,1,.21-.44.43.43,0,0,1-.29-.35l.13-1.23a2.09,2.09,0,0,0,.14-.47,8.9,8.9,0,0,1,.28-.9l1.21-1.88.78-.8c1-.92,1.55-1.38,1.79-1.38v.07h.07a.07.07,0,0,0,.08-.08,2,2,0,0,0,.89-.44c.22-.19.49-.41.82-.65h.15c.19,0,.29-.08.28-.22l.22.07.14-.15a.22.22,0,0,0,.08.15.26.26,0,0,0,.07-.15.21.21,0,0,1,.07-.14s0,0,0-.07v.07c0,.05,0,.05.07,0h.5l.14-.43a.19.19,0,0,0,.08.14,2.31,2.31,0,0,1,.93-.36c.19,0,.3,0,.33.14s.13.14.32.14h.07c0-.05,0-.08.07-.08a1.93,1.93,0,0,1,1,.46,3.12,3.12,0,0,1,.69.61l-.14.51-.72.22a1.44,1.44,0,0,0-.57-.07c-.1-.33-.25-.5-.44-.5a.29.29,0,0,1-.22.07.6.6,0,0,0-.28.08.6.6,0,0,1-.44-.29.17.17,0,0,1-.14-.07,1.11,1.11,0,0,1-.79.51l-.43-.21a3.09,3.09,0,0,0-.54.22q-.46.23-.54.15a2,2,0,0,1-.93,1l-.78,1.52c-.67.24-1,.63-1,1.16a1.64,1.64,0,0,0,.22.72l-.14.43a.7.7,0,0,0-.29.15.48.48,0,0,0-.21.43c0,.29.1.38.29.28.1.05.17.34.22.87a.41.41,0,0,1-.14.29l.22.21a2.5,2.5,0,0,1,.36.5.26.26,0,0,1,0,.36s.09.12.14.36h.29a2.16,2.16,0,0,1,.44,1.22,2.2,2.2,0,0,1,.59,1v.65a.28.28,0,0,0-.21.07l.22.36.57-.44a3.12,3.12,0,0,1,.65-.36.36.36,0,0,1,.21.14l.18-.18a.92.92,0,0,0,.18-.33A6.81,6.81,0,0,0,331,23.93l.21.07a3.79,3.79,0,0,0,1.43-1.52.57.57,0,0,1,.36.07c0-.15.12-.29.36-.44a.8.8,0,0,1,.36.07l.08.58s-.11.11-.33.18a4.74,4.74,0,0,0-1.18.91,7.79,7.79,0,0,1-1.14.73l-.22.29c-.14.1-.32.23-.53.4l-.75.55a2.48,2.48,0,0,0-.69.33c-.26.17-.56.37-.89.62a.17.17,0,0,1,.07.14c0,.05,0,.12-.14.22s-.14-.05-.14-.15l-.22.22a.52.52,0,0,0-.14.36,1.6,1.6,0,0,0,.08.51l-.21,1.37a2.12,2.12,0,0,1-.85,1.16,6,6,0,0,0-.93.87.66.66,0,0,1-.35.43h-.15c0-.05,0-.08-.07-.08a6.33,6.33,0,0,0-.79.66c-.43.39-.69.58-.78.58h-.08s0-.07-.07-.07a2.16,2.16,0,0,0-.93.66l-.22-.15c0,.1-.45.18-1.36.23a1.27,1.27,0,0,1-.54-.25c-.27-.16-.4-.27-.4-.32v-.5c.05-.14.33-.34.86-.58a.19.19,0,0,1,.15.1.22.22,0,0,0,.21.11l1.45.2h.21c.05,0,.07,0,.07-.07s.05-.1.14-.15A7,7,0,0,0,324.68,31a1,1,0,0,0,.07-.43.17.17,0,0,0,.07.14.51.51,0,0,0,.39-.58c0-.28,0-.45,0-.5s-.1-.19-.15-.14a1.36,1.36,0,0,1,.14-.36l-.07-.36c-.15-.19-.27-.24-.37-.14a.06.06,0,0,0-.07.07s0,.07-.14.07a.21.21,0,0,1-.15-.07c0-.09-.12-.09-.21,0a1.24,1.24,0,0,0-.5.55,1.43,1.43,0,0,1-.79.62l-.07-.08h-.14s0,0-.07.14a.4.4,0,0,1-.15,0l-.22-.11c.1.05.1.19,0,.43l-.15-.14-.43.36-.71.51c0-.05-.07-.09-.22-.14a1,1,0,0,1-.43.29h-.14a.26.26,0,0,0-.15-.07l-.28.22a.82.82,0,0,0-.58.22c.24.1.15.17-.28.22,0-.05,0-.07-.08-.07h-.07c-.43,0-.45.15-.07.43l-.21.08a.21.21,0,0,0,.07.14.17.17,0,0,1-.07.14l.22.15v.21l-.83.15a1.14,1.14,0,0,0-.61.3l-.42.36Z"/><path d="M345.06,36.38q-.36-.09-.42-.84a3.69,3.69,0,0,0-.13-.9V34c0-.82,0-1.53.08-2.16a6.43,6.43,0,0,1,.2-1.44l.23-.78.62-2.3s-.07-.14-.07-.29l.17-1.07a9.49,9.49,0,0,0,.45-1.22l-.07-.07v-.07a2.68,2.68,0,0,0-.95,1,1.28,1.28,0,0,0-.33.21,1.78,1.78,0,0,0-.41.64l-1.1,1.28-.29.21a4.43,4.43,0,0,0-.66.56,1.34,1.34,0,0,0-.36.06,3.21,3.21,0,0,1-.95.71,4.36,4.36,0,0,1-.44.64c-.2.24-.42.47-.66.71v-.43c0-.05,0-.08-.14-.08a3.16,3.16,0,0,0-.66.64l.14.15.51-.43a2.26,2.26,0,0,1-.59.85c-1.55,1.08-2.57,1.62-3.05,1.61a.19.19,0,0,1-.14-.08.21.21,0,0,0-.14-.07c-.05,0-.09,0-.11.11s-.07.1-.11.1h0V32.9a3,3,0,0,0-.71-.59,1.33,1.33,0,0,1-.47-.15,4.91,4.91,0,0,1-1-.74l-.47-1.66v-.22a1.48,1.48,0,0,0,.23-1,.19.19,0,0,0-.06-.15c0-.24,0-.55.05-.93s.07-.82.13-1.3c.16-.72.33-1.05.52-1a.81.81,0,0,1,.09-.86c0-.05,0-.07.11-.07a.24.24,0,0,0,.18-.07,1.06,1.06,0,0,1-.14-.36.81.81,0,0,1,.3-.57c.05-.43.09-.72.12-.86s0-.17,0-.08a1.65,1.65,0,0,1,.22-.35.63.63,0,0,1-.21-.36.3.3,0,0,1,.11-.18.26.26,0,0,0,.11-.18.93.93,0,0,0,.66-.28.06.06,0,0,0-.07-.07c-.05-.19,0-.4.3-.61a2.08,2.08,0,0,0,.44-.46c0-.05-.1-.07-.29-.08v-.28a.63.63,0,0,1-.06-.29l.22-.21q.14.07.21,0a1.52,1.52,0,0,1-.06-.51c0-.47-.06-.72-.2-.72a20.3,20.3,0,0,0-3.2,1.53.92.92,0,0,1,.15-.47c.1-.16.13-.27.08-.32a2.05,2.05,0,0,0,.69-.42.42.42,0,0,1,.33-.14c.05,0,.12,0,.22-.14a.16.16,0,0,0,.07-.1s.05,0,.15,0a.23.23,0,0,1,.14.08l.65-.21q.22-.21.15-.21c.14,0,.21,0,.22-.07h.07c.19,0,.36-.11.51-.35h.14c.05,0,.07,0,.07,0s0,0,.08,0a.15.15,0,0,1,.14-.07,1.63,1.63,0,0,0,1-.42l.43.15a.36.36,0,0,0,.21-.14c.1,0,.24.1.43.3.19,0,.29-.07.29-.21l.43.15a.89.89,0,0,0,.43.51,3,3,0,0,0,.55,1.31l-.29.28a5.3,5.3,0,0,0-.59.71,1,1,0,0,1-.08.36l-1,1a4.58,4.58,0,0,1-1.11,1.92A3,3,0,0,1,337,24a3.58,3.58,0,0,0-.41.89c-.43.19-.66.64-.67,1.36a1.45,1.45,0,0,0,.13.47,1.3,1.3,0,0,1,.14.4,1,1,0,0,1-.11.28.89.89,0,0,0-.12.36v.36h-.07l.07.07c0,.05,0,.16,0,.33a3.88,3.88,0,0,0,.06.61l.14.15c.14.38.26.57.35.58a.36.36,0,0,1,0,.43.28.28,0,0,1,.13.43l.21.22a8.32,8.32,0,0,0,.77-.42c.31-.18.66-.42,1.05-.7.24.25.38.37.43.37s.1-.07.15-.21a2.7,2.7,0,0,0,1-.78,5,5,0,0,0,1.39-1.2.21.21,0,0,0,.07.15h.14l.23-.43a5.85,5.85,0,0,0,1.09-.91l.51-.5a.74.74,0,0,1,.48-.6,8.9,8.9,0,0,0,1.8-1.81.21.21,0,0,0,.07.15,4.45,4.45,0,0,0,.59-1.14.61.61,0,0,0-.06-.29,2.43,2.43,0,0,1,.23-.83,9,9,0,0,0,.38-1.11l.29-.21c.58-.23.81-.8.68-1.71h.21c.05,0,.16-.1.33-.32a.7.7,0,0,1,.55-.31.41.41,0,0,1,.18.07.34.34,0,0,0,.18.08s.12-.12.22-.36a.51.51,0,0,1,.42.44l.15-.36a1.45,1.45,0,0,0,.45-.49l.15-.58.52-.78a1.12,1.12,0,0,0,.44-.35.42.42,0,0,1,.29-.14c.24,0,.3.22.2.65l-.29.29a3.81,3.81,0,0,0-.75,1.28l-.29.14c0,.14-.12.33-.37.57l.85.8a1.31,1.31,0,0,0-.3.65,5.72,5.72,0,0,0-.95,1.2,3.28,3.28,0,0,0-.15.36c-.05.15-.13.34-.23.57l-.74.93.07.29-.21-.15c-.1.19-.2.39-.3.61s-.2.44-.3.67a3.15,3.15,0,0,1-.59.71v.15a2.78,2.78,0,0,0-.38,1,1.77,1.77,0,0,0-.22.39,5.22,5.22,0,0,1-.52.82q.07.07.06.36l-.36.43c-.16.52-.32,1.18-.51,2s-.38,1.71-.58,2.76a6.7,6.7,0,0,0-.13.68,1.61,1.61,0,0,1-.19.61l.07.29,0,.94A1.6,1.6,0,0,0,345.06,36.38Z"/><path d="M340,61.41a.67.67,0,0,1-.34-.38l-.16.2-.43,0a1,1,0,0,1-.9-.57c0-.29-.12-.44-.26-.45a.21.21,0,0,0-.15.07l-.21,0c-.05,0-.08,0-.08.07h-.07a2.87,2.87,0,0,1-.6-.25,4.4,4.4,0,0,0-.6-.26c.1,0,0,.05-.37.12l0-.21c0-.05-.09-.08-.28-.09l0-.29a2.58,2.58,0,0,0-1.25-.8,2.72,2.72,0,0,0-.95-1,2.83,2.83,0,0,1-.17-.73c0-.1-.07-.21-.23-.34a6,6,0,0,1-.78-1.82l0-.5L331.89,53a2.91,2.91,0,0,0,.2-.86l-.14-.15,0-.21a2.49,2.49,0,0,0,0-.4,2.18,2.18,0,0,0-.08-.4,2.14,2.14,0,0,0,.29-1.07c0-.29,0-.48.11-.57s0-.12-.13-.22v-.15s0-.21,0-.5a6.85,6.85,0,0,1,.34-.81,4.39,4.39,0,0,1,.32-.52.61.61,0,0,0,0-.29s.09-.23.11-.57l.3-.27c0-.09,0-.25.07-.46s.09-.44.15-.68q.51-1.11.57-.9c.49-.16.68-.6.59-1.33q.14,0,.15-.06l2.85-3.93a4.09,4.09,0,0,0,.71-1,5.75,5.75,0,0,0,1.32-1.43,11.54,11.54,0,0,1,1.15-1l1.54-1.49,1.5-1,0-.28a2.12,2.12,0,0,0,.71-.32c.27-.17.79-.52,1.55-1a.42.42,0,0,0,.23-.35,4.2,4.2,0,0,0,1.35-.78l.82-.37a1,1,0,0,1,.34-.16,4.4,4.4,0,0,0,.86-.56l.29,0a3.52,3.52,0,0,0,.68-.43,8.19,8.19,0,0,1,.9-.62c.39,0,.65,0,.8,0v-.07h0c.1,0,.1,0,0,.07h.07c.47-.55.87-.81,1.21-.79.36-.45.73-.62,1.11-.5l.38-.27c.05,0,.07,0,.07.08h.07a4.07,4.07,0,0,0,.82-.45l.13.16a7.2,7.2,0,0,0,1-.44h.08c0,.05,0,.08.06.08s.15-.09.31-.27l.29,0a1.06,1.06,0,0,0,.36-.05l.41-.15a1.74,1.74,0,0,1,.69-.07l0-.43-.3-.81a.25.25,0,0,0,.08-.14l-.86-1.28a.85.85,0,0,0-.18.56.44.44,0,0,0,.1.22.5.5,0,0,1,.08.3v.22a.39.39,0,0,1-.3.12l0-.36a2.82,2.82,0,0,1-.85-1.35c-.47-.27-.64-.55-.53-.83a2.37,2.37,0,0,0-1.33-.59.69.69,0,0,0-.1-.73l-.36-.46a.8.8,0,0,0-.74-.33.65.65,0,0,1,.13-.86c-.09-.15-.18-.2-.28-.16l0-.29c.15-.09.4-.25.75-.49a2.66,2.66,0,0,1,.6-.36h0s.18.15.56.32l.29,0a2.36,2.36,0,0,1,.42.1l.69.48A4.88,4.88,0,0,1,359,20.36a1.86,1.86,0,0,1,.2.3,2.54,2.54,0,0,1,.24.74,4.53,4.53,0,0,1,.43,1.11l.2.3a5.68,5.68,0,0,1,.4,1.14c.09.42.17.82.24,1.21a2.26,2.26,0,0,0,.6-.25l.35,0c-.06.29-.11.42-.13.39a2.57,2.57,0,0,0-.7.28l.2,3.62c0,.05,0,.12.13.23a.42.42,0,0,1,.12.29.33.33,0,0,1-.31.34l-.05.79c.27.21.41.39.4.53a.59.59,0,0,1-.32.42l.24.81a2.1,2.1,0,0,1-.31.34l.41.38a1.46,1.46,0,0,1-.62.61c-.06.19,0,.29.2.3-.1.05,0,0,.22,0L361,36.07l.38.82c-.31.42-.54.62-.68.61,0,0-.05,0-.28-.17a.34.34,0,0,0-.09.22,1.2,1.2,0,0,1-.09.35l.14.08a.34.34,0,0,1,.22-.06l0,.29c.18.11.21.45.08,1s-.24.73-.2.78a.72.72,0,0,0-.35-.1c-.29,0-.47.16-.54.55a1.06,1.06,0,0,1,0,.5c-.15,0-.24.23-.26.56l0,.36.32-.48c.19.06.26.4.22,1,0-.14,0-.07-.16.21a1.65,1.65,0,0,0,0,.51L359,44.68l0,.64c0,.15-.06.21-.16.21s-.11,0-.06-.08h-.15c.1,0-.11.19-.61.54.11.49.17.68.18.59,0,.09-.1.21-.28.34s-.26.22-.27.27a1.52,1.52,0,0,0,.12.37.77.77,0,0,1-.52.26h-.07s0-.07-.07-.07-.27.1-.38.33l.14.15.13.16-.06.86a1.17,1.17,0,0,1-.45.26l0,.5a2.2,2.2,0,0,1-.32.52,3.53,3.53,0,0,0-.4.66l-.42-.32a2.22,2.22,0,0,0-.19.24,2.4,2.4,0,0,1-.43.45.83.83,0,0,0,.43.1l0,.57a1.51,1.51,0,0,1-.47.62l-.45.26c0,.24-.33.6-.94,1.09l0,.29s-.11.07-.19.2a3.5,3.5,0,0,1-.36.49c-.71.62-1,1.08-.95,1.38l-.6.39a1.22,1.22,0,0,0-.34.12,2,2,0,0,0-.57.54,1.29,1.29,0,0,0-.9.52l-.17.42a1.59,1.59,0,0,0-.52.19c-.5.3-.73.46-.68.46-.1,0-.14,0-.14-.08h-.14c-.1,0-.27.1-.53.33a.7.7,0,0,1-.1.42c-.2.08-.31,0-.35-.09-.35.12-.47.18-.38.19l-.42-.1-.26.56a2.6,2.6,0,0,1-.49-.18,1.14,1.14,0,0,0-.31.42c-1.32.29-1.86.45-1.62.47a.65.65,0,0,1-.25-.13.51.51,0,0,0-.24-.12c-.05,0-.07,0-.08.07h-.07q-.08,0-.27-.3l-.31.41a2.5,2.5,0,0,0-.48,0l-.4,0a.56.56,0,0,1-.17-.09.34.34,0,0,0-.18-.08C340.53,60.94,340.3,61.09,340,61.41Zm-1.18-1.88.39-.55a1.08,1.08,0,0,1,.77.41,2.05,2.05,0,0,0,.46-.33c.2-.18.35-.27.45-.26a.11.11,0,0,1,.1.08s.08.08.17.08.08,0,.08-.07a.06.06,0,0,1,.08-.06h.14a.06.06,0,0,0,.07.07.33.33,0,0,0,.26-.09.3.3,0,0,1,.18-.1.85.85,0,0,1,.28.17.76.76,0,0,0,.28.16l.29,0a1,1,0,0,1,.4-.63l.33-.12a2.89,2.89,0,0,1,.48-.11c.54-.16.76-.27.67-.32h0l.21.09a3.62,3.62,0,0,1,1.24-.86,4.52,4.52,0,0,0,1.25-.79,1.82,1.82,0,0,1,.45-.4,1.12,1.12,0,0,1,.18-.42.45.45,0,0,1,.45-.26h.14a.29.29,0,0,0,.21.09c.24,0,.39-.05.45-.19-.1-.11-.08-.27,0-.5a.73.73,0,0,1,.6-.33.81.81,0,0,0,.59-.25l.13.16.31-.34-.41-.32,0-.29a.59.59,0,0,1,.37-.19h.15a.19.19,0,0,0,.14.08c.67,0,1.06-.51,1.19-1.65l1-.59a2.33,2.33,0,0,1,.57-.9.59.59,0,0,0,.44-.19l.54-.47a1.64,1.64,0,0,1,.11-.57l.45-.33-.26-.38a4.71,4.71,0,0,0,.68-.53,3,3,0,0,1,.88-1.39c0,.05-.09-.08-.12-.37l.83-1.67a1.89,1.89,0,0,0,.46-.41A1.11,1.11,0,0,1,358,43l.49-.83a3.6,3.6,0,0,1,0-.87l.23-.2a8.73,8.73,0,0,1,.58-2.2c.13-.52.31-1.16.56-1.91l-.06-.29a3.63,3.63,0,0,1,.28-1,1.34,1.34,0,0,1,0-.44,2.83,2.83,0,0,0,.27-.78,7.65,7.65,0,0,0-.12-1.52l0-.29a3.16,3.16,0,0,1,.12-.71l0-.72,0-.43a1.92,1.92,0,0,0,0-.51.72.72,0,0,1,.1-.35l0-.36a6,6,0,0,0,0-.83c0-.32-.08-.67-.15-1.06,0-.15-.07-.33-.11-.55s-.06-.45-.09-.69l-.2-.3c0-.38-.11-.58-.4-.6.05,0-.1.09-.45.26l-.13-.16a.93.93,0,0,1-.75.39s-.07,0-.06-.08H358a.19.19,0,0,0-.15.1.22.22,0,0,1-.22.09c-.05,0-.07,0-.07-.07h-.07c.14,0-.07.12-.63.32s-1.39.47-2.47.78a2.32,2.32,0,0,1-.38.23.86.86,0,0,1-.44.15h-.07a1.87,1.87,0,0,1-.53.32l-3.2,1.6L348,30.61a5.59,5.59,0,0,0-1.51,1l-.59.25a5.11,5.11,0,0,0-.52.25l-1.14.83c-.45.33-1,.74-1.52,1.24.09,0-.14.29-.7.71a9.53,9.53,0,0,0-1.14,1q-.62.54-2.4,2.52l-1.18,1.44,0,.28c-.1.14-.24.32-.43.55a8.72,8.72,0,0,0-.6.9c-.05,0-.22.23-.5.55a6.18,6.18,0,0,0-1,1.88l-.16.14-.23.2c-.23.61-.48,1.3-.74,2.08s-.56,1.66-.86,2.65a7.16,7.16,0,0,0-.19,1.79l-.05.79a9.1,9.1,0,0,1,0,1.52,3.13,3.13,0,0,0,.42,1.47c-.09-.11-.1,0,0,.36l.36,1.1c.2,0,.29,0,.29.09a1.28,1.28,0,0,0,.17.59.73.73,0,0,1,.22-.06,9.43,9.43,0,0,1,.63.87c.29.43.53.63.72.59l.24.27a.55.55,0,0,0,.38.21.34.34,0,0,0,.22-.06h.22c.33,0,.47.2.4.53,0,0,.12,0,.22-.09a.43.43,0,0,1,.29-.09.58.58,0,0,1,.25.12.58.58,0,0,0,.31.13.26.26,0,0,0,.15,0l.22-.1.14.08a.45.45,0,0,0-.09.29.76.76,0,0,0,.28.09Zm14.3-43.59-.28-.16a1.88,1.88,0,0,0-.1-.73,2.72,2.72,0,0,1-.25-.52v-.22c.1,0,.25-.08.45-.26a2.39,2.39,0,0,0,.55-.75l.14.15.15-.14.15-.13a.19.19,0,0,1,.14.08h.22c.05,0,.17-.06.37-.19a1.09,1.09,0,0,1,.38-.19.19.19,0,0,1,.13.08h.15c.24,0,.39-.05.44-.19l.28.24.82-.53,0,.43a4.47,4.47,0,0,0-1.06.8.89.89,0,0,1,0,.44,2.63,2.63,0,0,1-.65,1c-.19,0-.49.16-.9.52l-.64-.05a.38.38,0,0,0-.06-.29A1.73,1.73,0,0,0,353.12,15.94Zm.33,11.57v0Zm7.75,5.12v0Zm1.41-7.34a.67.67,0,0,1-.31-.13.84.84,0,0,0-.25-.13l.1-.35a4.17,4.17,0,0,1,.43.06l.56.15C362.93,25.16,362.75,25.29,362.61,25.29Z"/><path d="M367.49,33c-.14,0-.25-.15-.32-.4a.21.21,0,0,0-.08.14l-.43,0-.18-.45a.17.17,0,0,0-.08.13s-.12-.06-.2-.16l-.23.12a5.53,5.53,0,0,1-.66-1A2.74,2.74,0,0,1,365,30a.43.43,0,0,0-.28-.1l.05-.57c.2,0,.35-.4.47-1.12l.25-.26,0-.36-.13-.16.31-.18,1-2.15.8-.72,0-.21a2.54,2.54,0,0,0,1.19-1.11.26.26,0,0,0,.32-.26c.64-.13.91-.42.81-.86a.42.42,0,0,1,.22-.05.66.66,0,0,1,.27.13,1,1,0,0,0,.28.14.58.58,0,0,0,.26-.05.42.42,0,0,1,.18-.06c.18.21.28.32.33.33a1.18,1.18,0,0,0,.75-.22.44.44,0,0,0,0,.22.63.63,0,0,1,.05.22.88.88,0,0,1-.35.62l.19.31A3.27,3.27,0,0,1,371,25a4.79,4.79,0,0,1-1.32,1,.8.8,0,0,0-.17.23.89.89,0,0,1-.24.3h-.15l-.13-.16-.81.87a2.4,2.4,0,0,1-.67,1,.53.53,0,0,1-.33,0c-.07,0-.11,0-.11,0l0,.51c.2.45.26.74.2.88a2.38,2.38,0,0,0-.26.48s.13.16.37.62a1,1,0,0,0-.12.49,4.1,4.1,0,0,1,1.44.8l.29,0a.67.67,0,0,0,.52-.16s.07,0,.07.08h.07c.05,0,.18-.08.39-.25s.33-.26.38-.25.07,0,.07.08,0,.07.06.08a1.25,1.25,0,0,0,.3-.05,1.19,1.19,0,0,1,.36,0l0-.22s0-.08,0-.07v.07a1.88,1.88,0,0,0,.48.27l0-.3c.15,0,.28-.16.4-.39a2.25,2.25,0,0,0,.69,0c.22-.05.34-.15.35-.29l.58.05a.13.13,0,0,0,.13.16c.47.05.77-.24.88-.86l.47-.38.13.15a.75.75,0,0,1,.53-.23.11.11,0,0,1,.1.08c0,.05.07.08.17.09a.65.65,0,0,0,.45-.18c.16-.13.24-.21.24-.26a2.38,2.38,0,0,1,.39-.25,1.17,1.17,0,0,0,.4-.4l.41.26a7.62,7.62,0,0,1,1.63-1.14c.49-.15.75-.27.76-.36a1,1,0,0,0,.59-.16l0-.22,1.06-.4,0,.43-.35,0c-.06,0-.1.19-.12.43l-1.77,1.13c-.1,0-.12,0-.07-.08h-.07c.05,0-.19.22-.71.65a.81.81,0,0,1-.59.09c-.68.51-.94.75-.79.72a.28.28,0,0,0-.14-.09.43.43,0,0,0-.1.28h-.07c-.19,0-.5.14-.92.49l-.21,0a.79.79,0,0,0-.3.05L375,31l-1,.66-.43,0c-.36.26-.61.38-.76.36l-.21,0a.21.21,0,0,0-.14-.08,1.91,1.91,0,0,0-.56.23,1.78,1.78,0,0,1-.64.23h-.07c0-.05,0-.08-.07-.08a2.12,2.12,0,0,0-.56.2,2.66,2.66,0,0,1-.56.2H370s0-.08-.14-.09a.45.45,0,0,0-.19.06,1.13,1.13,0,0,1-.4.1c-.51.19-.66.3-.47.32l-.42-.11a2.61,2.61,0,0,0-.5-.13Zm6.29-13.21a2.94,2.94,0,0,1-1.5-.94,2.38,2.38,0,0,1-.73-1.45q.9-.27,2-.63c.72-.25,1.48-.52,2.29-.83h.07a3.47,3.47,0,0,1-.92,1.21l.1.51,0,.43-.4.4C374.54,19.41,374.25,19.84,373.78,19.79Zm8.82,6.65s-.08,0-.09-.12-.05-.11-.1-.11l1.11-1c.19,0,.28.07.27.17s-.2.4-.53.63A4.25,4.25,0,0,1,382.6,26.44Z"/><path d="M389.16,46.7a11.26,11.26,0,0,0-1.44-1.44.44.44,0,0,0-.25.09c-1-1.61-1.4-2.91-1.17-3.89q.88-3.87,10.84-9.92l0-.74-1.76-1.95a13.1,13.1,0,0,1-.46-3.8A12.67,12.67,0,0,0,396.32,24c.52-.45,1.13-1,1.81-1.62l1.43-.11.2.12,2.77-.48.39.24c.37.08.9.17,1.6.26l2.55.32c.91.11,1.7.23,2.39.37a16,16,0,0,1,1.78.44l1.72.25.17.19,2.33-.5.13.1a35.61,35.61,0,0,0,6-1.06,19.58,19.58,0,0,1,6.12-.59A26.12,26.12,0,0,1,422,23.12a11.5,11.5,0,0,0-5.46,1.93l.2.71,1.06-.43c0,.15.32.33,1.06.54a58.23,58.23,0,0,0,6.92,2l.35.75a6.18,6.18,0,0,0,.78.29c.3.09.66.19,1.08.28.79.19,1.54.38,2.23.59a4.86,4.86,0,0,1,1.66.82l1.55-1,.11.17q4.89-2.34,9.27-4.82t8.2-5l.36-1.61-.32-.52.59-1.27c-.12-.12-.14-.35-.07-.68a10.5,10.5,0,0,1,.41-1.45q.17-.4.09-.06a18.88,18.88,0,0,1,1.29-4.35c.83-1.24,2.22-1.64,4.19-1.19l.56.43.22,1A27.53,27.53,0,0,1,457,12.79c-.52.84-1.07,1.71-1.67,2.61l-.15,2.26Q460.57,14,465,10.5t7.89-6.57q-.14,1.23-2.1,3.36a36,36,0,0,1-6,4.9l-10.37,7.22a4.24,4.24,0,0,1,.22,2.57,4.73,4.73,0,0,1-.65,1.55h.37l.38,3.19-.17.4a15.26,15.26,0,0,0,.1,4.38,12.27,12.27,0,0,1,.12,4.32l.71.75-.06.28c-.1.42,0,.68.42.76a20.5,20.5,0,0,0,3.77.28c.89,0,1.66,0,2.31.08a12.08,12.08,0,0,1,1.61.22l.34.16a15.34,15.34,0,0,1-3.3.86,11.53,11.53,0,0,1-3,.05l-.11-.18-.87.25,0,.87.24-.09.82,3.51-.31.37,1,1.85h.6l.54-1.72.18.19c0,.83.53,2.19,1.72,4.09l.16,0c1.22.87,1.88,1.66,2,2.37l-1.33.36c-.34-.28-.74-.64-1.23-1.09s-1.05-1-1.69-1.65l-.16,0a1.77,1.77,0,0,1-1.14-1.15c-.13-.28-.27-.54-.41-.79s-.27-.52-.41-.8l.05-.21a8.18,8.18,0,0,1-1.67-3.64l-.26.17-.26-1.47-.23,0-1-1.92-1.86-.28-.18-.19-1.38-.1q-.76-.16-11-3.41l-.35.21-2.76-1.15-1.56-.61a8.81,8.81,0,0,0-1.24-.4c-1-.24-2.87.62-5.54,2.57l-.33-.15-.51.62A27.69,27.69,0,0,1,422,38c-1.35.48-2.42.88-3.23,1.19a11.45,11.45,0,0,1-1.75.55l-.75,1L408,44.21l-.12-.1-7.62,2.61-.61-.21c-.19,0-.6.16-1.25.6l-.76-.54-1.07.49-.69-.53c-.43-.1-.65.12-.67.66l-1.25.3-.52-.63-1.18.32c-.23-.1-.45-.19-.68-.27s-.46-.14-.7-.2A3.71,3.71,0,0,0,389.16,46.7Zm.78-2.12.66-.29.89.28.18-.11.1.18a1,1,0,0,1,.11.17l.12-.2.26.51a1.3,1.3,0,0,1,1.66-.81.62.62,0,0,1,.33.16l.68-.37.27.43a2.53,2.53,0,0,0,1.59-.52l.73.69.47-.12.39-.72.12.1,6-2a36.65,36.65,0,0,1,6-1.5q1.35-1,8.71-3.83c2.37-.89,4.23-1.64,5.58-2.27a8,8,0,0,0,2.54-1.56l.52,0,.6-.49c.21-.17.44-.38.69-.62l0-.22a6,6,0,0,1-1-.16l-1.33-.3a16.46,16.46,0,0,1-4.36-1.59l-.32.07a12.61,12.61,0,0,0-4-1.42q-1.46-.4-2.49-.72a10.62,10.62,0,0,1-1.57-.58l-.2.24-2.52-.94c-.85.29-1.71.6-2.57.92l-2.66,1-2.37,1.3a3.13,3.13,0,0,0-1.44.63A5.32,5.32,0,0,0,401,31v.6l.69-.14,1.41,1.95.75,0,0,.22a1.15,1.15,0,0,1,.65.38h1l.31.58-.34.22-.51,0-.57.23-.52-.63-.23,0a4,4,0,0,1-1.5-.86l-.49.18-.56-.42-.21.25a.64.64,0,0,1-.18-.34,4.42,4.42,0,0,0-.15-.48l-.84.11v-.3l-.89,0-.27-.44q-9.46,6.78-10.1,9.58A2.28,2.28,0,0,0,389.94,44.58ZM399,30.19a2.78,2.78,0,0,1,.46-.71l.47.55a37,37,0,0,0,4.81-2.29l-.07.28c2.44-1.41,3.9-2.09,4.38-2l.14-.27-.1-.24a1.35,1.35,0,0,1-.36,0l-.28-.07a.81.81,0,0,1-.3-.14,1,1,0,0,0-.3-.14A6.42,6.42,0,0,0,407,25a6.86,6.86,0,0,1-.82-.11c-.75-.17-1.07-.27-1-.3a1.24,1.24,0,0,0-.4-.16,11.11,11.11,0,0,0-1.32-.2l-1.92-.18-.18-.19a3,3,0,0,0-.72-.05,2.67,2.67,0,0,1-.59,0l-.33.15a10.7,10.7,0,0,0-2.54.45l-.11-.17a2.93,2.93,0,0,1-.71.2l-.29,1.27a.35.35,0,0,0,.23,0c.09,0,.19.31.31.88s.27.87.46.92a.23.23,0,0,1,.22,0l0,.21.35.08a.19.19,0,0,1,.17.26l-.25.09-.2.25a1.29,1.29,0,0,1,.71.75l.22-.32v-.3l.14,0a2.46,2.46,0,0,0,.33.81l-.09.06Q398.54,30,399,30.19Zm50.67,6.16c.42.09.81.17,1.17.23a6.81,6.81,0,0,0,.9.09l.17.19.32-.08.7.17.15-.34,0-.82c-.24,0-.56-1-1-2.88a19.51,19.51,0,0,1-.49-3.66l-.32-.22.12-.19a2.35,2.35,0,0,0,0-.82l.06-.28-.28-.37.13-.26a18.82,18.82,0,0,1-.62-4.06l.54-.76-.13-.7a2.26,2.26,0,0,0-.71.36,7.63,7.63,0,0,0-.86.69c-.38.16-1.11.52-2.17,1.09s-2.46,1.37-4.17,2.4q-5.38,3.2-5.75,3.78l-.72.28L436.5,30l-1.24,1.19.1.25.26-.16a1.16,1.16,0,0,0,1,.6l.39.54h.07a1.87,1.87,0,0,0,1-.14l.07.31a5.13,5.13,0,0,0,1.07.18l0,.52.92-.16.3.29,1.44.18.62.52.19-.18a1,1,0,0,0,.76.54,2.52,2.52,0,0,0,.72.09c0,.2.45.4,1.34.6a3.86,3.86,0,0,0,.93.11l1,0a5,5,0,0,1,.85.49.94.94,0,0,1,.37,0,1.09,1.09,0,0,1,.48.3A1.43,1.43,0,0,0,449.67,36.35Z"/><path d="M462.48,53.24a.32.32,0,0,1-.13-.16.41.41,0,0,0-.2-.19s-.07,0-.32,0l-.48-1.3.58-1.71.19-.09,0-.13a.89.89,0,0,1,.22-.31,1.81,1.81,0,0,0,.33-.42.39.39,0,0,1,0-.29c.07-.23.3-.38.68-.46a1.83,1.83,0,0,1,.23-.68l.35-.34a.31.31,0,0,0,.07-.43l.78-1.41a1.78,1.78,0,0,0,.37-.41l1.1-2.36a.39.39,0,0,1,0-.29,1.29,1.29,0,0,0,.25-.3,1.82,1.82,0,0,0,.14-.63c0-.11,0-.21,0-.32a4.2,4.2,0,0,0,.3-.66c.14-.41,0-.67-.27-.78h-.46l0-.29,0-.07c.08-.23.36-.39.85-.48,0,0,.06,0,0,.09l.14.05a.82.82,0,0,0,.63-.09l.75,1.17s0,.12-.19.32l.18.59-.55,1.64q0,.15,0,.24a.32.32,0,0,1,0,.14.23.23,0,0,1-.12.12.28.28,0,0,0-.13.18l-.81,2.38a.24.24,0,0,0-.16,0,9.35,9.35,0,0,1-.51,1.72,1.07,1.07,0,0,1-.28.37,1.27,1.27,0,0,0-.25.29,1.11,1.11,0,0,0,0,.39l.14,0,.68-.9.21.07c0-.09.06-.2.1-.31a2.16,2.16,0,0,1,.22-.42l1.24-.72a3.64,3.64,0,0,1,.33-.31c.14-.12.29-.27.44-.42a3.81,3.81,0,0,1,.67-.38l.24-.26c.08-.1.2-.22.35-.37l.62-.25a.51.51,0,0,1,.27-.25,1,1,0,0,0,.37-.29c.24,0,.48-.14.71-.52a5.38,5.38,0,0,0,1.39-.52l.09-.27c.47-.2.69-.3.64-.32l.07,0s0,.07,0,.09a6.1,6.1,0,0,1,1.17-.75,4.35,4.35,0,0,0,1.53-.7,5.11,5.11,0,0,0,1.32-.31l.61.21.71.39a3,3,0,0,1,.58.77,2.7,2.7,0,0,1,.16,1.54l-.23.68-.19.43c-.09.2-.21.45-.37.75-.28.67-1.16,1.33-2.65,2a1.67,1.67,0,0,0-.87.08l.26-.75a1.63,1.63,0,0,0,.4-.28l.45-.42c0-.09-.13-.24-.46-.45a4,4,0,0,0,.76-.89,1,1,0,0,0,0-.54l-.32,0c-.37-.13-.52-.2-.46-.23a.58.58,0,0,1,.05-.36l-.14,0a.82.82,0,0,0-.49.1q-.35.15-.42.12s-.06,0,0-.09l-.14,0a.46.46,0,0,0-.25.07.42.42,0,0,1-.32,0c-.09,0-.16-.13-.2-.29a.3.3,0,0,0-.23,0,.75.75,0,0,1-.21.61.77.77,0,0,1-.68.22.27.27,0,0,1-.15-.12.35.35,0,0,0-.15-.13,1.1,1.1,0,0,0-.09.5l-.78.5a.52.52,0,0,1-.39,0,.44.44,0,0,1-.15-.21l-.67.84-.07,0c-.22-.08-.67.1-1.32.54L470,46c-1,.85-1.75,1.54-2.41,2.07a17,17,0,0,1-1.48,1.1l-.18.54c-.4.12-.74.54-1,1.25a1.54,1.54,0,0,0-.44.38,1.25,1.25,0,0,1-.28.82.88.88,0,0,0-.24.26c-.1.15-.24.34-.42.58A1,1,0,0,1,462.48,53.24Z"/><path d="M480.14,59.41l-.41-.54a.11.11,0,0,0-.13,0,.15.15,0,0,1-.13,0,.66.66,0,0,1-.17-.15.58.58,0,0,0-.18-.14l-.6-.23.07-.2a6,6,0,0,1-.82-.89,6.62,6.62,0,0,1-.53-1l0-1.91a.64.64,0,0,0,.45-.37,1.27,1.27,0,0,0,0-.39,1.08,1.08,0,0,1,0-.38q0-.14.36-.75A5.12,5.12,0,0,1,479.39,51l1.49-1.28a6.3,6.3,0,0,0,.78-.44,3.34,3.34,0,0,1,1-.42,7.88,7.88,0,0,0,1.65-.69l1.32-.42a1.67,1.67,0,0,0,.92-.42,6.43,6.43,0,0,0,1.1,0l0-.07-.07,0,.07,0,0,.07s.07.08.08.18l.79-.24.61.23a1.88,1.88,0,0,0,.58.07,3.36,3.36,0,0,1,.53,0,.84.84,0,0,1,.37.45l.67.25-.1.27.54.59c.17.64.3,1,.39,1a8.23,8.23,0,0,0-.38,1.63,1.8,1.8,0,0,0-.87.44l-.2-.08a.54.54,0,0,1-.25-.25c-.08-.13-.14-.21-.18-.22s-.06.08-.26,0a1.75,1.75,0,0,0-.14-.24.35.35,0,0,1-.07-.22h-.38A2.17,2.17,0,0,1,489,51a2,2,0,0,0-.37-.33c-.05,0-.09,0-.14.06s-.09.08-.14.06-.1-.06,0-.09l-.07,0-.18.09L487,50.63a1.87,1.87,0,0,0-.42.11,2.1,2.1,0,0,1-.66.09l-.2-.07.15-.41a3,3,0,0,0,.42-.07,4,4,0,0,1,.57-.09l.05-.14c-.14-.31-.27-.49-.41-.54a2.75,2.75,0,0,0-2,.33.66.66,0,0,0-.32,0,4.87,4.87,0,0,0-.93.42.27.27,0,0,0-.23,0c-1.29.69-1.95,1.14-2,1.33a1.81,1.81,0,0,0-.38.4l-.32,0a.73.73,0,0,1-.23.6L479,53.8a2.12,2.12,0,0,1-.81.92.71.71,0,0,1,0,.21c0,.08.06.16.17.26,0,.27.1.68.16,1.21s.15.83.28.88.1-.06.25-.06a.85.85,0,0,0-.06.36l.26.33a.12.12,0,0,0,.13,0,.11.11,0,0,1,.13,0l.21.23,1,.39a.13.13,0,0,0,.09.18.1.1,0,0,0,.12,0,.12.12,0,0,1,.13,0,.32.32,0,0,1,.14.13.35.35,0,0,0,.15.13,1.08,1.08,0,0,0,.51,0,1.16,1.16,0,0,1,.45-.06l.13,0a.07.07,0,0,0,0,.1l1,.15a3.57,3.57,0,0,0,.6,0,1.19,1.19,0,0,1,.43,0c.09,0,.11.07.07.11s0,.07.08.1c-.12-.09.17-.19.88-.28L487,59a5.85,5.85,0,0,0,1.06-.37l1.19-.09A9.68,9.68,0,0,0,491,58l.71,0,.49-.28a.47.47,0,0,0,.29,0l2.85-1.23a.59.59,0,0,0,.3,0,5,5,0,0,1,.88-.29.48.48,0,0,1-.27.29,2.58,2.58,0,0,0-.78.24,6.6,6.6,0,0,0-1,.55l-1,.47a10.51,10.51,0,0,1-1.49.59l-3.8.87a6.33,6.33,0,0,1-1,.09h-.62l-.65.29a6.55,6.55,0,0,0-1.73,0,1.88,1.88,0,0,1-.89,0l-.06,0a.07.07,0,0,0-.05-.09,3.11,3.11,0,0,1-1.29,0s-.1,0-.15.17l-.35-.28a.66.66,0,0,0-.32,0,.83.83,0,0,1-.32,0l-.14,0s0-.08,0-.1A.39.39,0,0,0,480.14,59.41Z"/><path d="M492.94,63.78a1.52,1.52,0,0,1-.08-.27c0-.12-.07-.18-.11-.2l-.07,0a.07.07,0,0,1-.09,0c-.09,0-.1-.28,0-.71a1.88,1.88,0,0,0-.38-.4q.1-.81-.12-1l.76-1.79.79-.37c.06,0,.1-.19.13-.49l.24-.21a1.07,1.07,0,0,1,.32-.18,2.29,2.29,0,0,0,.13-.49,1.22,1.22,0,0,1,.65-.42,1.25,1.25,0,0,1,.58-.62c.09,0,.44-.12,1.06-.48l1.09-.71a7.58,7.58,0,0,0,1.11-.39l.11-.26a2.12,2.12,0,0,0,.57-.23.94.94,0,0,0,.83-.11l.09-.2a.56.56,0,0,1,.17-.24.73.73,0,0,1,.3,0,1.09,1.09,0,0,0,.36.07,1.07,1.07,0,0,1,.55-.38,1.59,1.59,0,0,0,1.66-.39,1,1,0,0,0,.37,0,1,1,0,0,1,.37,0c-.07,0,0,.1.14.22a.48.48,0,0,0,.22-.14,1.34,1.34,0,0,1,.68,0l.5-.25a.13.13,0,0,1,.07.11.12.12,0,0,0,.07.11,1.9,1.9,0,0,0,.57,0,1.72,1.72,0,0,1,.56.05l.07,0c-.06,0-.05,0,0,.09a.29.29,0,0,0,.21,0,.3.3,0,0,1,.2,0,.42.42,0,0,1,.23.21A.49.49,0,0,0,508,54a.12.12,0,0,0,.13,0,.21.21,0,0,1,.19,0c-.08,0,0,0,.15.22a.32.32,0,0,1,.44-.12c.09,0,.13.09.12.17a.19.19,0,0,0,.13.17s.07,0,.09,0l.13.06c.09,0,.19.29.31.75l.18-.07a1.54,1.54,0,0,1,.31.75l-.29.67-.07-.19a2.94,2.94,0,0,1-.85-.21.11.11,0,0,1-.07-.11s-.05-.1-.14-.14a.4.4,0,0,0-.19,0,.32.32,0,0,1-.2,0,.4.4,0,0,1-.2-.16.37.37,0,0,0-.14-.14s-.07,0-.09,0-.08,0-.16,0l-.07,0c.06,0,.05-.06,0-.09a5.49,5.49,0,0,0-.9,0,6.42,6.42,0,0,1-.9,0s-.09-.12-.12-.29l-1.58,0-.4-.33a1,1,0,0,0-.45.12c-.25.1-.42.14-.51.1s0-.05,0-.1l-.06,0a.68.68,0,0,0-.62.08,1.4,1.4,0,0,1-.88.13q-.11,0-.12.27a1.78,1.78,0,0,1-1.26.56c-.06,0-.12.1-.18.23l-.46-.2a1,1,0,0,0-.26.44.79.79,0,0,1-.3-.21.77.77,0,0,0-.35.64l-.67-.29-.6.49a9.3,9.3,0,0,0-.78.72,3,3,0,0,1-.44.4,3.94,3.94,0,0,0-.6.57,4.13,4.13,0,0,0-1.14.84l-.26.59a.64.64,0,0,1-.18.24,1,1,0,0,0-.2.3,1,1,0,0,0,.52.62,2,2,0,0,0,.54.11,1.25,1.25,0,0,0,.83-.39l.14.22a4.72,4.72,0,0,0,1.5-.22,1,1,0,0,1,.39,0,.34.34,0,0,0,.41-.22.24.24,0,0,1,.1.13l.46-.35a.92.92,0,0,0,1.14-.46.32.32,0,0,1,.17.15l.63-.19a.69.69,0,0,1,.18-.24.25.25,0,0,0,.15,0h.24l.71-.56a1.2,1.2,0,0,1,.77,0,1.73,1.73,0,0,0,.51-.18l.44-.2c0-.11,0-.21,0-.32a1.73,1.73,0,0,0-.08-.35c0-.17.05-.26.27-.28-.11,0-.13-.05-.08-.18l.17-.4a3.58,3.58,0,0,1,.61,0,3.59,3.59,0,0,0,.8-.13,1.3,1.3,0,0,1,.39,0c-.13-.06-.11,0,.07.19.19-.19.4-.38.65-.59a10.75,10.75,0,0,0,.79-.76l.65,0,0,.45a2.28,2.28,0,0,0-1,.9c-.06.13.1.36.49.68a.2.2,0,0,1-.13.1,2.61,2.61,0,0,1,.26.58,2.08,2.08,0,0,1,.1.43,2.47,2.47,0,0,0-1,1.06l.08.19a1.32,1.32,0,0,0-.29.5c-.07.29-.14.59-.19.9s-.12.67-.18,1.06l.18.86-.09.2a2.38,2.38,0,0,0,0,1.87l.26-.05-.09.2a2.66,2.66,0,0,1,.61,1l.73.31a.55.55,0,0,0,.28.43c.71.31,1.14.28,1.29-.07l.07.19a8.67,8.67,0,0,0,3.12-1.25c1-.51,1.54-.73,1.61-.65l.23.18-.11.27,0,.09-.84.5c-.08.18-.35.33-.81.44.07.08,0,.15-.09.2l-.51.09.05.26a3.14,3.14,0,0,0-1.29.08c-.36.1-.53.21-.53.32s-.3,0-.63.19a.26.26,0,0,0-.38.16l-.07-.19-.26,0a2.94,2.94,0,0,0-.44.13l-.2-.09a.59.59,0,0,0-.3,0l-.21.14-.33-.14a.21.21,0,0,0-.11-.13,1.35,1.35,0,0,0-1.07-.06l.12-.27-.86-.37.11-.26a.49.49,0,0,1-.25,0q-.13-.06-.27-.39a.55.55,0,0,0-.43-.38,14.35,14.35,0,0,0-.29-1.42c-.13-.49-.25-.72-.38-.67a.2.2,0,0,1,.13-.1,1.13,1.13,0,0,1,0-.71,21.42,21.42,0,0,1-.4-4c-.25.1-.58.25-1,.44s-.84.4-1.35.6l-.26.24a2.76,2.76,0,0,0-.31.38l-.58.06a1.33,1.33,0,0,1-.16.28,4.8,4.8,0,0,1-.29.39,1.22,1.22,0,0,0-.47.11,1,1,0,0,1-.68,0,.48.48,0,0,1-.14-.22c-.13.05-.29.12-.49.22l-.7.37c0,.06.15.14.37.23l-.12.27a1.83,1.83,0,0,1-.59.29l.07.19a8.82,8.82,0,0,0-1.2.42l-.23-.1a1.87,1.87,0,0,0-.39-.09c-.67,0-.89,0-.67.11a2.5,2.5,0,0,1-.44-.27l-.39-.17C493,63.67,493,63.69,492.94,63.78Z"/><path d="M514.05,72.29a8,8,0,0,1-1.14-1.12l-.06,0a.06.06,0,0,1-.1,0q-1.49-.89-.45-3.18a.44.44,0,0,1,0-.32,1.27,1.27,0,0,1,.29-.34q.23-.21.57-.6l-.06-.19a1.55,1.55,0,0,0,.79-.5.36.36,0,0,0,0-.32.53.53,0,0,0,.71-.46c.06,0,.2,0,.42.13l.12-.26a1.23,1.23,0,0,1,.22-.29l.13.06c.39.19.74.07,1.06-.36a.7.7,0,0,0,.65-.17l.35.09a4.78,4.78,0,0,1,1.35-.78l.32.16a5.9,5.9,0,0,1,1.24-.24.18.18,0,0,0,.21-.1,1.48,1.48,0,0,0,.83-.23c.06,0,.16,0,.29.06l.1-.2c-.16-.12-.21-.5-.18-1.12,0-.34-.07-.8-.09-1.37s0-1.23,0-2c0-.15,0-.42.08-.81s0-.55,0-.51a.92.92,0,0,1,.11-.15.7.7,0,0,0,.14-.21l0-.06V56l.22-.45-.14-.87c.12-.37.27-.79.42-1.27a14.82,14.82,0,0,0,.42-1.6l.13-.1a9,9,0,0,0,.47-1.45l.16-.33-.1,0a.25.25,0,0,1,0-.17l1.2-2.13a.46.46,0,0,0,.26-.2l0-.22a3.62,3.62,0,0,1,.83-.88l0-.23.44-.26a.53.53,0,0,1,0-.39l0-.06.33-.16.09-.2a6.43,6.43,0,0,0,1-.81,5.77,5.77,0,0,1,1.42-1,.32.32,0,0,0,.23,0c.1-.22.84-.58,2.21-1.08h.72a8.19,8.19,0,0,0,.92-.07,6.35,6.35,0,0,0,1.84.17l0,.26a5.48,5.48,0,0,1,2.36.75l.07.19a4.4,4.4,0,0,1,2.21,2.2l.45.22a5,5,0,0,0,.85,1.54.89.89,0,0,0,.49.8.72.72,0,0,0,.17,1l-.12.1a2.63,2.63,0,0,0,.23.84,1.94,1.94,0,0,1,0,.55.3.3,0,0,0,.16.15,3.58,3.58,0,0,0,.05,1.23q-.09.84-.24,1.56c-.11.49-.22,1-.34,1.44l-.6,1.23a2.2,2.2,0,0,0-.16.56,2.52,2.52,0,0,1-.19.63l-1.23,2.37h-.16a5.64,5.64,0,0,0-.76,1c-.3.44-.76,1.07-1.37,1.89l-.93.91a2.15,2.15,0,0,1-.73.85c-.06,0-.15.12-.27.31a5.42,5.42,0,0,1-.53.66,1.26,1.26,0,0,0-.44.42.85.85,0,0,1-.74.36l-.41.61c-.09.11-.12.15-.1.11l-1.08.91a2.17,2.17,0,0,0-.71.14,2.37,2.37,0,0,1-1.17,1c-.58.27-1.15.52-1.68.74a5.8,5.8,0,0,0-1.66,1l-.2.07a.66.66,0,0,0-.22.13l-.09.51-.39-.19-.1,0-.06.13a4.39,4.39,0,0,0,.49.72c.22.26.45.57.72.91l-.2.06c.11.22.27.5.46.87l.07,0a.06.06,0,0,1,.09,0c.05,0,.06.09.05.22s0,.21,0,.23.08,0,.1,0l.07,0,.23.51a.56.56,0,0,1,.22.19l.26.13c.13.06.19,0,.19-.07a.61.61,0,0,0,.3.54.33.33,0,0,1,.23,0,.54.54,0,0,0,.29.07l.39.51a1.46,1.46,0,0,0,.53.06,1.66,1.66,0,0,1,.47,0l.13.23a.5.5,0,0,0,.38,0l.07,0a.4.4,0,0,0,.32,0c-.06,0,0,.1.29.23a1.71,1.71,0,0,0,1.48-.24.27.27,0,0,0,.1.13.3.3,0,0,0,.22,0l.26.12-.15.33a1.6,1.6,0,0,0-1,.33l-.29-.06a5.13,5.13,0,0,1-3.61-.49l-.32-.31-.94-.22a2,2,0,0,1-.63-.67,1.62,1.62,0,0,0-.8-.67c.06-.13,0-.29-.16-.48s-.18-.49-.27-.69a5.26,5.26,0,0,0-.26-.53,1.73,1.73,0,0,0-.36-.41l-.69-1.38c.15.12-1,.44-3.34.93a2.36,2.36,0,0,0-1.29.18,13.59,13.59,0,0,0-2.41.34,4.64,4.64,0,0,0-.74-.2,3.76,3.76,0,0,1-.87-.27l-.13-.06,0-.1A3.45,3.45,0,0,1,514.05,72.29Zm.16-.81a.78.78,0,0,0,.32,0,.77.77,0,0,1,.39,0,.61.61,0,0,1,.17.2.69.69,0,0,0,.18.21,1.56,1.56,0,0,1,.77-.1.33.33,0,0,0,.17.16.56.56,0,0,1,.22.19.39.39,0,0,0,.34,0q.21-.09.27-.06s0,.09.17.16a.59.59,0,0,0,.42,0,4.92,4.92,0,0,0,1.56-.08,4.22,4.22,0,0,1,1.75,0,5.05,5.05,0,0,1,1.35-.63l.13.23a2.45,2.45,0,0,1,1.35-.47l.19-.39a2.82,2.82,0,0,0-.66-.79.32.32,0,0,1,0-.23.57.57,0,0,0,.07-.29,2.36,2.36,0,0,1-.23-.35,5.22,5.22,0,0,0-.33-.48,12.36,12.36,0,0,0-.9-3.08c-.21.1-.34.15-.38.13a.07.07,0,0,1,0-.1l-.06,0a.92.92,0,0,0-.37-.06,1,1,0,0,1-.31,0,.28.28,0,0,1-.35.07,4.45,4.45,0,0,0-1.39,0,8.65,8.65,0,0,1-1,.25c-.45.1-1.17.23-2.15.39l-.51.56-.26,0a.66.66,0,0,0-.48.17,3.72,3.72,0,0,1-.68.39l-.16-.32-.13.26c-.27,0-.49.29-.63.81a.28.28,0,0,1-.16.16l-.21,1.74.26.13a1.45,1.45,0,0,1,.36.25l.38.19A2.44,2.44,0,0,0,514.21,71.48Zm11-.94,1.09-.27c0-.08.09-.18.15-.29a1.73,1.73,0,0,1,.27-.39,5.76,5.76,0,0,1,2.37-1.41l.27-.22a1.87,1.87,0,0,1,.36-.27l.25-.83,1.42-.44a.85.85,0,0,0,0-.48,5.26,5.26,0,0,1,.53-.26q.3-.14.69-.27l.92-1.07a.3.3,0,0,1,0-.22,1,1,0,0,0,.1-.36l.25-.2.07-.12a13.06,13.06,0,0,0,1.14-1.37l.06-.45c.11-.11.23-.25.37-.42l.43-.55.63-1.3a1,1,0,0,1,.11-.38,2.44,2.44,0,0,0,.17-.52l.48-.65a4.62,4.62,0,0,0,.26-.95c.09-.46.16-.79.2-1a.18.18,0,0,0-.1-.12l.1-.2.12-.26a.91.91,0,0,0,.1-.35s.09-.09.22-.13l.1-.2a3.65,3.65,0,0,0,.17-1.67l0-.74,0-.07a2.25,2.25,0,0,0,0-1,2.24,2.24,0,0,0,.18-1.2c.24-1.48.15-2.33-.28-2.54-.09,0-.14,0-.16,0l-.09.84a.32.32,0,0,1-.23,0c-.17-.4-.35-.84-.53-1.3s-.35-.94-.53-1.46l-.62-.86a.44.44,0,0,0-.32,0,1.06,1.06,0,0,0-.07-.51l0,.06s-.07,0-.16,0a.65.65,0,0,1-.26-.28.69.69,0,0,0-.26-.29s-.05-.05-.23,0l-.25-.13c-.35-.17-.52-.36-.53-.57a2.77,2.77,0,0,0-.59,0,4.73,4.73,0,0,1-.82,0c0,.08-.27.11-.68.07l-2.08.66a2.14,2.14,0,0,1-1.51.79.45.45,0,0,1-.06.29c-.15,0-.37.09-.64.33l.06.19c-.45.16-.7.35-.76.59a10.62,10.62,0,0,0-1.18,1.18.69.69,0,0,1-.36.31l-.91,1.72s.08.09.13.22a3,3,0,0,0-.41.68l-.29.59-.31.64a4,4,0,0,0-.26.68,5,5,0,0,0,0,.87,2.62,2.62,0,0,1-.18,1.19.78.78,0,0,0-.22.3,3.93,3.93,0,0,1-.32.48,2.88,2.88,0,0,1-.07.65c-.06.21-.11.44-.17.67,0-.08.12-.09.25,0a.6.6,0,0,1,.2.74l.07.35a2.31,2.31,0,0,0-.08,1.4c.11.49.21,1,.3,1.43l0,.07a3.56,3.56,0,0,0-.21.58,3.17,3.17,0,0,0-.07,1,.25.25,0,0,1,.23,0q.13.06,0,.09l0,.07-.1,0a.4.4,0,0,0,0,.32l-.13.1a2.83,2.83,0,0,1,.09.56c0,.25,0,.51.05.79l.23.19.26,0s0,.08.09.13a7.25,7.25,0,0,1,.94,0,4.47,4.47,0,0,1,1.45.47l.52.25.07.2c.13.06.21,0,.25,0l.39.19c.09,0,.14.2.17.48l.16-.16a5.65,5.65,0,0,1,.11,1.9l-.89.84-.26-.12c-.07-.2-.36-.47-.88-.83l-1-.48a4.18,4.18,0,0,0-.68-.25l0-.09-.19.39.26,0a.44.44,0,0,1-.13.42,5.31,5.31,0,0,0,.35,1c.16.38.36.78.58,1.2l-.1.36a1.51,1.51,0,0,0,.56.83Z"/><path d="M537.14,84.34a1,1,0,0,1-.64-.18.93.93,0,0,1-.3-.28,1.18,1.18,0,0,0-.23-.25l-.32-.09a2.32,2.32,0,0,1-.39-.12,4.34,4.34,0,0,1-.32-.3,2.15,2.15,0,0,0-.4-.34c.26-.57-.11-1-1.11-1.42l.07-.13a1.24,1.24,0,0,0,.18-.8,2.64,2.64,0,0,1,.13-1,2.65,2.65,0,0,1-.06-.41,2,2,0,0,1,.33-1l.27-.18c.06,0,.08-.15,0-.39a5.23,5.23,0,0,0,.8-.88c.16-.18.28-.34.37-.45a2.2,2.2,0,0,0,.2-.3,1,1,0,0,1-.07-.78l.43-.34c0,.07.16.17.41.31l.26.13.5-.25a3.91,3.91,0,0,1,.67-.26c.25.14.61,0,1.07-.32l.08-.29a.85.85,0,0,1,.23-.12l.06,0-.06,0a.53.53,0,0,1,.15.17l.39-.12a7.61,7.61,0,0,1,.91-.16,4.74,4.74,0,0,1,1-.29,5.67,5.67,0,0,1,1.13-.05,1.78,1.78,0,0,0,.74-.08l.19.26a6,6,0,0,0,1.25.1c-.14.15-.14.26,0,.32l.44.24h.42a3,3,0,0,1,1.14,1.51.29.29,0,0,0,.16.17l-.55,1a.37.37,0,0,1-.18-.26l-.57.43.05.52a4.89,4.89,0,0,0-1.21.73l-.28.51a1.73,1.73,0,0,0-.47-.18,7.12,7.12,0,0,1-1.52.09l-.13-.07a.24.24,0,0,0-.09-.14,1.79,1.79,0,0,0-.83-.12l-.31.12a.45.45,0,0,1-.41,0l-.06,0a.07.07,0,0,0,0-.1,3.25,3.25,0,0,0-.78-.13,3.63,3.63,0,0,1-.72-.11l-.13-.07a.25.25,0,0,0-.09-.13l-.3.09-.38-.2a.66.66,0,0,1-.31-.34l-.82-.44a3.09,3.09,0,0,1-.57.67,4.51,4.51,0,0,0-.47.49,2.82,2.82,0,0,0,0,1.12c0,.07.05.21.1.42a4.84,4.84,0,0,0,.28.85,2.06,2.06,0,0,0,.1.71.59.59,0,0,0,.22.2,1.38,1.38,0,0,1,.28.24l.06.36a.73.73,0,0,1,.57.3l.21.36.32.18,0-.07c0,.07,0,.09,0,.07a.21.21,0,0,0,.09.13.31.31,0,0,0,.21,0,.31.31,0,0,1,.21,0l.13.07a.05.05,0,0,0,0,.09.77.77,0,0,0,.58,0,.72.72,0,0,0,.38.21l0,.09-.1.19-.42,0a2.86,2.86,0,0,1-.64,0l-.14.26s.05.1.22.2a2.67,2.67,0,0,0,2,.29l.19.26a.12.12,0,0,0,.19-.06l.32.17a1.64,1.64,0,0,0,.57-.14.8.8,0,0,1,.66,0l.22.2.46-.4.12.23a1,1,0,0,1,.64.18.29.29,0,0,1,.17-.16,4,4,0,0,0,2.16-.22l.26.14,1.36-.25a.83.83,0,0,1,.39-.28.46.46,0,0,1,.12.23l1-.45a.82.82,0,0,0,.54,0l.09.29-.75.33a12.43,12.43,0,0,0-1.36.25c-.57.13-1.21.31-1.92.52-.3-.16-.51-.17-.65,0a1.81,1.81,0,0,0-1.06.16l-.09-.3a4,4,0,0,1-.5.1,6.08,6.08,0,0,1-1.21,0l-.57.15a.93.93,0,0,1-.63-.06q-.12-.06,0-.09l-.06,0a.94.94,0,0,0-.61-.08q-.36,0-.42.18a.39.39,0,0,1-.13-.23,5.17,5.17,0,0,1-1.18-.07l-.13-.07,0-.1-1.09-.26a.26.26,0,0,0,0-.22l-.33.15a.34.34,0,0,0-.19,0,.34.34,0,0,1-.19,0S537.19,84.54,537.14,84.34Zm2-7c0-.15.1-.19.23-.12a.07.07,0,0,1,0,.1l.12.07a.88.88,0,0,0,.39,0c.22,0,.35-.06.39,0a.59.59,0,0,1,.15.16.66.66,0,0,0,.16.17c-.08,0,.1-.14.56-.27l.12.23c1.31-.11,2.09-.4,2.35-.86a1.08,1.08,0,0,0-.25-1.44c-.46-.42-.89-.81-1.28-1.19a.39.39,0,0,1-.32,0,2.72,2.72,0,0,1-1.11.38,3,3,0,0,0-1.1.23,3.89,3.89,0,0,1-.69.36l-.6.58a1.38,1.38,0,0,0-.3.33c0,.39.1.62.27.71l.06,0a.22.22,0,0,1,.16,0A2.52,2.52,0,0,1,539.1,77.38Zm11.57,6.75.07-.12a.45.45,0,0,1,.62-.24A1.39,1.39,0,0,1,550.67,84.13Z"/><circle class="cls-1" cx="25.93" cy="33.73" r="23.25"/><circle class="cls-2" cx="630.97" cy="33.73" r="23.25"/><path d="M57,154.46A50.44,50.44,0,0,1,44.72,152a70.59,70.59,0,0,1-11.11-4.81v-.5h-.7v-.49l-2-1.19L21.3,130.76c-.65,1.93-1.31,3.81-2,5.66a13.52,13.52,0,0,1-3.1,5,24.78,24.78,0,0,1-7.87,3.87c-2.82.8-5.6,1.62-8.37,2.46a83.9,83.9,0,0,0,8.12-5.49,32.32,32.32,0,0,0,6.86-7.1A12.51,12.51,0,0,0,16.21,131a41.47,41.47,0,0,0,.24-4.61l-.21-.49H14.06l-1.68.49-2.18-2.88-1-1.19,3.17-1.69.7-1a10.16,10.16,0,0,0,1.44-.1,3.43,3.43,0,0,0,1.23-.39l.7.28v-3.65l-.7-3.17.91-.21.5-1.47h-.5l-6.46,2.18c-1.13-.66-2.3-1.27-3.52-1.83s-2.39-1.08-3.52-1.55v-.21A88.11,88.11,0,0,0,16.45,107q6.54-1.78,13.08-3.76V103h1.69l4.57.21,1.69-.21,1,1H39l.43,1.69a23.86,23.86,0,0,1-7.6,1.2,12,12,0,0,0-7.1,2.18v-.78h-.49l-4.85,1.48v.49l3.37,2.67.28,6.26h.49q2.4-1.18,4.57-2.39A8.56,8.56,0,0,1,33.4,116l1.19.49L34.8,118a49.85,49.85,0,0,1-5.3,2.53q-2.64,1.05-5.52,2V123A34.71,34.71,0,0,0,29,133.29a110.19,110.19,0,0,0,7.45,9.29,57.92,57.92,0,0,0,11.85,5.59,97.34,97.34,0,0,0,12.83,3.41h-.28V152l1.48.49v1l1,.71Z"/><path d="M97.89,161.42v-.91l-1.41-26.93h-.42l-4,.42-.63-.21a31.4,31.4,0,0,1-3.76-8.86,28.39,28.39,0,0,0-3.9-8.79l-.71-.21a17.75,17.75,0,0,1-2.7,4.39,16.19,16.19,0,0,0-2.64,4.4l.91,2.32,3.73,1.4.21,1.62-.49.91-.63.29v.42l-1,.21-2-.92-.49,5.63.21,1.12-.21.22v13.5l-1.19,1.12h-.92c-.61-.89-1.18-1.8-1.72-2.74a6,6,0,0,1-.81-3,5.26,5.26,0,0,0,1.27-3.93c-.1-1.55-.15-3-.15-4.43a15.48,15.48,0,0,1-.21-4.43,5.77,5.77,0,0,0-.7-3.73l-6,7.67a3,3,0,0,1-1.72.84A2.58,2.58,0,0,0,64,139.83l-4.43,4.43V144a51.82,51.82,0,0,0,7.17-8.93,64.49,64.49,0,0,0,5.13-9.84l1.41-1.62c.28-.94.59-1.84.91-2.71s.64-1.67.92-2.42h-.42l-5.63,1.83-1.12-1.13a3.35,3.35,0,0,1-2.11-.7,9.36,9.36,0,0,0-2.11-1.2v-.21H64l.91.21.71-.21.21-1.12h.91l.7.21v-.49h.5l4.14.28,5.14-2.11,1.4-2.11,2.82-.21,4.14.91.22,1.2-1.41,1.61v.43a2.52,2.52,0,0,0,1.65,1,13.43,13.43,0,0,0,2.08.14l3.3-1.9v-1.33l4.64-1.2v-2.53a12.23,12.23,0,0,0-.74-1.51,2.5,2.5,0,0,1-.24-1.79h-.71v-.43l.71-.49.49-5.06-.7-2.32.7-1.41,4.15.71a35.2,35.2,0,0,1,.59,5.2c.08,1.78.11,3.51.11,5.2l-.21,2.81,1.41.22,4.14-.92v-.49l2.82-.42v.42l6.75,1.19.42,1.62-.42.92-.71.28V114l-1.89,1.19-.22.43-1.4,1.89a61.42,61.42,0,0,0-1.37,7.67,25.25,25.25,0,0,1-1.87,7.17l-.7-.21-.7.91-.42-.21-2.11-2.32-.71-.7-2.81,2.53-.21,1.9.49,1.34-.28,1,.28,1.12-.28,3,.28,7.66-.7,6.75v-.49h-.49v-.42H98.8l-.7,1.83ZM81.44,111v-.92a9.06,9.06,0,0,0-2-4.08q-1.52-1.76-2.92-3.58l-2.11-2.11h.29A23.51,23.51,0,0,1,79,102.08a14.55,14.55,0,0,0,4.28,1.47,8.48,8.48,0,0,1,.81,1.41,2.51,2.51,0,0,1,.11,1.62l-.7,1.4-1.62,1.62L81.65,111Zm14.62,9.28.21-.92-.7-3.72-2.11-.71-2.53,1.2-.21,1.62.21,2.53-.21,1,1.61.21Zm.21,9.56.21-3-.21-3.24h-1.4l-.92.21-2.53-.21V124c.28.94.57,1.95.88,3s.62,2.08,1,3l1.83.21Zm7-2.11,1.62-.49.21-2.32v-10l-.63-1.33h-.49l-3.52,1.12-.21,3,.21,1.19h1l1.62-.28v.91a1.86,1.86,0,0,1-.7,1.55,3.93,3.93,0,0,1-1.62.77,4.83,4.83,0,0,0-.6,2.82c.07,1.08.11,2.08.11,3l.21.91h.7Z"/><path d="M139.2,161.28l-3.51-3.8V157h-.49v-1.2l.49-1.12h1.12v-18l-.21-4.22h-.49l-.42.92h-.49l-7.32,15.11v-1.4h-.49L126,149v-.49c.32-.61.64-1.26,1-2a5.65,5.65,0,0,0,.45-2.25l.49-.21c1.41-3.79,2.63-7.63,3.66-11.49s2.09-7.75,3.16-11.64h-.49a10.54,10.54,0,0,1-3.06,1.72,10.3,10.3,0,0,1-3.55.6c-.75-.47-1.52-.9-2.32-1.3a8.66,8.66,0,0,0-2.39-.81l1.9-.49.7-.92,1.41-.49v-.49a27.54,27.54,0,0,0,5.1-.91,20.49,20.49,0,0,0,4.6-1.9l.21-6.4-.7-2.11.28-1.9-.28-1.4h.49l.21-4.22h.29a2.81,2.81,0,0,0,1.4,2.46c.8.37,1.66.72,2.6,1v6.12l-.28,1.9.28,2.11h.71l3.79-.42,1.13,1.19h.7v.42L140.82,118l-.21,1.19.7.49.29.92a6.47,6.47,0,0,0-1.34,2.6,12.49,12.49,0,0,0-.35,3.09h.49v.43l1.41,1,.21.7.7.21v.5h.49l1.2,2.6-.28.7h-1.41l-.91-.21-1.2.21-.7-.21v1.13l.21.77-.21.21.21,1.41a11.26,11.26,0,0,0-.67,5.09,19.19,19.19,0,0,1-.25,5.31v9.92l.5,4.92Zm37.06-2.18-1.41-.7a7.58,7.58,0,0,1-1.44-2.43,9.12,9.12,0,0,1-.46-3l1.69-1.61a25,25,0,0,0,.71-6v-6.15l-1-5.41-2.11-.49a48.92,48.92,0,0,0-6.05,1.93,38,38,0,0,0-5.76,2.85l-.21.42h-1.69c-.61-.47-1.19-.9-1.76-1.3a2.28,2.28,0,0,0-2-.32l-2.18,1.62-.21,2.39.5,1.19-.71.71a6.89,6.89,0,0,1,2.92,4.22c.4,1.73.76,3.47,1.09,5.2h-1.69a5.53,5.53,0,0,1-2.11-.81,6.91,6.91,0,0,1-1.68-1.58l-1.62-1.62-.49-1.69.28-.7a7.76,7.76,0,0,0-2.15-3.76,5.42,5.42,0,0,1-1.65-4h.49a4.68,4.68,0,0,0,2,.42h2.25l4.71-2.81v-1.62H155v.42h.71v-.42h1.19l.92.21a26.28,26.28,0,0,1,7.7-2.25q4.11-.57,8.12-1.27l.21-.49h.49c1.73.33,3.47.73,5.2,1.2a13.31,13.31,0,0,1,4.71,2.32l.29,1-2.61.92a42.94,42.94,0,0,0-2.14,12,23.46,23.46,0,0,1-3.34,11.39Zm-14.41-29-.43-.21-1.68-1.41v-.91h-.5l-2.81-2.39-.7-1.9-2.11-.21-.49.21.91-3.09-.7-1.62-3.31-1.2-.42-.7-1-.21v-1h.49l.91.49,5.91-3.31.49-3.79-.21-3.52a10.07,10.07,0,0,0,.67-2.11c.16-.8.31-1.59.46-2.39h.49l1,.49.7-.21,4.22.92,1.9,1.61v.78l-3.3,3.3-3.31.7v.43a5.36,5.36,0,0,1,1.3.73,1.37,1.37,0,0,0,1.3.25v-.49l-.21-.7h.92v-.22a2.35,2.35,0,0,0,1-.73c.24-.31.68-.39,1.34-.25l1.4-.49a9.45,9.45,0,0,0,2.32.28,4.35,4.35,0,0,1,2.11.49l.29.92-4.29,2.1-.21.71c.93.94,1.92,1.89,3,2.85a10.28,10.28,0,0,0,3.44,2.14l7.53,4H178l-7.81-1.9-1,.49-3.31,5.42a1.62,1.62,0,0,0-.91,1.54,2.41,2.41,0,0,1-.7,1.76l-1.69,2.11ZM163,151.58a7.19,7.19,0,0,0-1.86-.71,2.8,2.8,0,0,1-1.66-1.19,7.25,7.25,0,0,1-2.14-3.87,10.57,10.57,0,0,0-1.86-4.15h.42l2.39.21,2.32-1.61.28-1.2a2.74,2.74,0,0,1,2-.25,1.73,1.73,0,0,0,1.83-.66l.42-1,1.9-.49,3.34,1a16,16,0,0,1,3.27,1.41V140l-2.6.78a11.48,11.48,0,0,0-1.41,3.16,8.92,8.92,0,0,1-1.62,3.17l-2.39,1v1.62Zm-1.41-26a11.92,11.92,0,0,0,1.9-3.06,7.24,7.24,0,0,0,.42-3.83h-.7l-2.11,1.69-.91-1.2h-.49v.49l.21,1.2-1.41.21v.7a8.4,8.4,0,0,1,1.55,1.87,7.71,7.71,0,0,1,.84,2.14h.49Zm3.8,22.15v-.91l-.28-.71h-.21V145l.21-1.2-.21-2.81h-1l-.42,1.19-.7.22-2.18-2.11a13.9,13.9,0,0,1-1,1.05,2,2,0,0,0-.6,1.55l2.82,1.4,1.4,3.31Zm-1.9-32.06.71-1.69-1.9-1.41-2.11,1.2-.49,1.9,3.51.21Z"/><path d="M209.24,157.69l-2-1.82-.22-3.24h-.49l1.13-.21a15.73,15.73,0,0,0,.49-4v-4.29l-.49-8H207a5,5,0,0,1-2.67,1.76,16,16,0,0,0-2.88,1q-.63,2.81-1.23,5.66a20.56,20.56,0,0,1-1.93,5.38l-1.62,1.62-2.53,1.61v-.28a15.37,15.37,0,0,0,3.2-7c.44-2.53.9-5.09,1.37-7.66l-.71-.28-.42-1.13h.21l1.13.21.28-7.73a8.2,8.2,0,0,1-.6-2.46c-.07-.85-.1-1.71-.1-2.61l.7-.21v-.7l-.28-.49h.28l2,.91a6.89,6.89,0,0,1,.7,2.08,12.73,12.73,0,0,1,.21,2.28h1.13l3.94-.7V124a8,8,0,0,1-.81-1.4,2.51,2.51,0,0,1-.11-1.62H205.1l-1.13.49-.91-.7-.43-1.62a7.2,7.2,0,0,0,3.06-.24,17.17,17.17,0,0,0,2.85-1.16,8.09,8.09,0,0,0,2.67.95,13.67,13.67,0,0,1,2.6.66v.71l-1.12.91-.91.21-.43,12.17.21,2.53-.21.7.21,2.74-.21,6,.21,3.65-.21.71.21,3.44-.21.64.21,1.89-.21,1.13-.7.7Zm-12.79-44.22v-.28a13.7,13.7,0,0,0,.42-3.45v-3.66a2.61,2.61,0,0,1-1-2,5.42,5.42,0,0,0-.6-2.18h.49a7.43,7.43,0,0,0,3,.8,4.53,4.53,0,0,1,2.74,1.09l.49,2.75a9.19,9.19,0,0,1-.67,2.14,9.08,9.08,0,0,1-1.16,1.93l-3.23,1.62Zm8.22,2.46-2.95-2.74v-.71h.63c.94.19,1.87.35,2.78.49a5.26,5.26,0,0,1,2.5,1.13l.28.91-1.2.92h-.42l-1.41-.21Zm1.62,18.63,1.34-.7V129h-.42a9.32,9.32,0,0,1-2.4,1.05c-.84.24-1.66.49-2.46.77l-.63,5.28h.91Zm-1.62-24.82-2.53-.91v-.43a26.21,26.21,0,0,1,4.12-1.05,26.66,26.66,0,0,1,4.39-.35l.21.7a4.18,4.18,0,0,1-2.85,1.62Zm9.64-2.25V107a8.06,8.06,0,0,0,.81-3.2c.07-1.24.17-2.38.31-3.41l-.7-2.11H218l3,1.62v.7L219.09,104l-2,1.62-1.41.63v-.21h-.42l-.7,1.41Zm14.9,51.33-2.32-.7-1.33-1.55-.71-4.15.21-1.41-.21-.42h1.34v-.91l-.21-.49h.21l1,.28A53,53,0,0,0,229.78,139a64.44,64.44,0,0,0,.56-11.32l-.92-.91-.21-1.62h-.7L226,126.26q-1.12,6-2.74,11.82a29.69,29.69,0,0,1-5.49,10.68l-.91.21-.71,1.13-.7.49v-.21q1.62-5.55,3.24-10.93a53.1,53.1,0,0,0,2-11.36l-4.08-1.62v-.21l1.83-.91.63-.91h.49V124h.91v-.7l-.21-1.41c.14-.46.28-.92.43-1.37a5.09,5.09,0,0,1,.7-1.37l.49-.21v-.7l-.28-.49,1.19,1.89,3.17.64.21,1.61-.21.92,1.62.21a12.06,12.06,0,0,0,3-.77,11.72,11.72,0,0,1,3-.78l1.83.92v.21l2.95,1.4.5,1.34-1.41,3H237q-1.62,7.81-3.45,15.51T229.21,158.82Zm-11.46-42.89a6,6,0,0,0,1.69-3.06c.23-1.15.42-2.33.56-3.55l-.42-1.41h3.87l3.72.71v.49a9.82,9.82,0,0,1-3.23,3.62q-2,1.36-4.15,3Zm4.15-8.72-2.53-1.55.63.21v-.49l-.63-.63c1.83-.19,3.62-.39,5.38-.6a27.53,27.53,0,0,1,5.38-.11v.71l-.21.42a11.8,11.8,0,0,1-4,1.16A19,19,0,0,0,221.9,107.21Z"/><path d="M292.36,160.22l-1.9-1.89-.49-4.22a33.5,33.5,0,0,0,2-9.6,91.83,91.83,0,0,0,.14-10.23c-.19-1.45-.43-2.88-.74-4.29a10.14,10.14,0,0,0-1.65-3.8l-.91-.42c-1.74.14-3.44.33-5.1.56a32.47,32.47,0,0,0-4.82,1.06v.49l3.31,3.52c1.22.32,2.46.69,3.72,1.09a9.21,9.21,0,0,1,3.31,1.79v.7a1.39,1.39,0,0,1-1,.42h-1.09a20,20,0,0,1-4.47-.91,8.36,8.36,0,0,1-3.76-2.6l-1.9-3.31-1.68-.21-4.5,1.41-.21.7,1.19.92.21,2.18a4.18,4.18,0,0,1-.46,1.86,5.91,5.91,0,0,1-1.16,1.65l-3.3,1.41V138a4,4,0,0,0,.81-2.11,7.29,7.29,0,0,1,.6-2.32,9.84,9.84,0,0,1-.11-2.5,2,2,0,0,0-1.09-2,2.09,2.09,0,0,0-1.19-.6,9.57,9.57,0,0,0-1.41-.11l-1.62.92a7.86,7.86,0,0,0-.84,1.54,4.46,4.46,0,0,0-.35,1.76,19.45,19.45,0,0,1,1.05,3.34c.24,1.1.52,2.19.85,3.27l-.29.21v10.2l.29,1.9h-.29c-.61-.19-1.19-.36-1.75-.5a3.27,3.27,0,0,1-1.55-.91,13,13,0,0,1-1.16-1.93,4.85,4.85,0,0,1-.46-2.15,4.35,4.35,0,0,0,.49-2.11v-2.32a30.89,30.89,0,0,0-1.68-6.75c-.8-2.11-1.67-4.19-2.6-6.26h.49l2,1.55a3.63,3.63,0,0,0,2.22.84,52.6,52.6,0,0,1,14.66-5.8,79.63,79.63,0,0,1,15.78-2v-.28l2.39-.42a12.7,12.7,0,0,0,4,1.65,39,39,0,0,1,4.22,1.16l.49,1.41a13.64,13.64,0,0,0-.35,1.4,1.36,1.36,0,0,1-1.06,1l-1.19.42a89.94,89.94,0,0,0-2,15.15,72.32,72.32,0,0,1-2.25,15.08ZM262.83,114a9.75,9.75,0,0,0-3.06-1.44,6.5,6.5,0,0,1-2.85-1.65v-.22c1-.32,1.95-.6,2.89-.84a14.18,14.18,0,0,0,2.81-1l4.22.49a77.34,77.34,0,0,1,8.75-1.9q4.47-.7,8.76-1.69l.21-.42,1.69-.28a9.86,9.86,0,0,0,4.81.84,6.68,6.68,0,0,1,4.61,1.34v.7l-1.2.7V109a8.91,8.91,0,0,1-2.71.59c-1,.07-2,.11-2.91.11l-2.39-.21a55,55,0,0,0-12.17,1.3Q268.53,112.07,262.83,114Zm7.31,8.23c-.75-.29-1.49-.54-2.21-.78a4.21,4.21,0,0,1-2-1.54,4,4,0,0,1-1.44-2.4,24.27,24.27,0,0,0-.66-2.81h.42a9.87,9.87,0,0,1,3.44,1.65c1,.78,2.09,1.56,3.17,2.36l.77,2.81-.49.71Zm10.41,29.32-2.81-1.41-2.39.21a4.87,4.87,0,0,1-2.46-.6,23.46,23.46,0,0,0-2.25-1.09,7.94,7.94,0,0,1-2-4.22,16.27,16.27,0,0,0-1.34-4.5h.21l2.6,1.41v-.42h.5a14.52,14.52,0,0,0,1.75,2.71,12.33,12.33,0,0,1,1.76,2.91l.28,1.41,2.82.28a9.62,9.62,0,0,0,.7-3.69v-3.9l-.21-.92h-1l-1.12.71-.28.49h-.92l-2.6-2.18v-.21l5.91-.71v-.7l2.32-.49,6.4,2.39.21.91-1.62,1-1.41,3.3-1.19.71a5.75,5.75,0,0,0-.81,3.51A3.54,3.54,0,0,1,280.55,151.51Zm-4.5-46.76v-.49l-7.31-5.63h1.68l4.22,1.41a18.18,18.18,0,0,1,4,1.9l.7,1.89Zm2.39,15.33a15.15,15.15,0,0,0,1.41-3.41,14.29,14.29,0,0,0,.49-3.7l-2.11-1.4a7.68,7.68,0,0,1,1.72-.21,3,3,0,0,0,1.58-.49l5.42,1.4.21.7-.21.5-2.6,3.09q-1.41.7-3.06,1.41A7.64,7.64,0,0,0,278.44,120.08Z"/><path d="M310.09,154.46v-.28a36.09,36.09,0,0,0,3.87-4.57q1.76-2.46,3.38-5.07,3.8-6.81,6.85-13.88a38.06,38.06,0,0,0,3.06-15.29h.7l1.62.28,1.41-.28.28,2.6-3.59,12h-.42q-1.68,4.22-3.69,8.23t-4.32,8l-7,7.74Zm18.78-42.4v-.21l-3.52-.91-.21-1.2,2.81-1a2,2,0,0,1,.71-1.06,2,2,0,0,1,1.19-.35,3.88,3.88,0,0,0,2.43.6c.87-.07,1.77-.11,2.71-.11l5.9-1.4v-.71a9.88,9.88,0,0,0-3.41-4.36q-2.22-1.55-4.6-3.16v-.7h1.4l8.51,4.21.7,2.61h-1l-.7,1.89h1c1.22-.32,2.46-.6,3.73-.84a23.3,23.3,0,0,0,3.79-1l.21-.92h.5a6,6,0,0,0,2.7.81c1,.07,2,.11,3.13.11v.49h.71l1.19-.49.28.7-1,.21-.21,1.2H359l-1.19.21v.7l.49.49h-.49l-1.41-.21a91.35,91.35,0,0,0-14,1.51C337.79,110,333.27,111,328.87,112.06Zm12.23,42.82-1.9-1.41-.91-3.72-.7-.28a8.77,8.77,0,0,1-1.76-4.08,10.92,10.92,0,0,0-1.55-4.15l-.91-.42-2.39-5h.28c.61.46,1.26,1,2,1.54a3.77,3.77,0,0,0,2.46.85l5.2-4.93.21-10.61-.91-3.31-.49-.21-.5-2.81.29-.49h.42v-1h.49l1,.28,1.83-.49c.47.8.94,1.58,1.41,2.36a4.32,4.32,0,0,1,.49,2.85h1l.92-.29.21-.7,5-.7.92.28v.91L351.44,121h.77v.49h.42v.28a23.79,23.79,0,0,1-2.46,1.27,6.4,6.4,0,0,1-2.67.56v-.42h-.7v.42h-1l-1.4,7.53,2.6.49a16,16,0,0,0,4-.92,9.66,9.66,0,0,1,4.22-.49,3,3,0,0,0,2.21,1.3,8.24,8.24,0,0,1,2.5.6,2.87,2.87,0,0,1,.49,1.65v1.87h.42l.28.7-2.6.91a80.29,80.29,0,0,0-2,8.26c-.54,2.84-1.14,5.66-1.8,8.48l-1.12.21-2.6-.71c-1.6.47-3.21.87-4.85,1.2A16.5,16.5,0,0,1,341.1,154.88Zm7.81-3.51.21-.22-.49-.28v-.42l.49-1L350,149a48.3,48.3,0,0,0,1-6.85c.17-2.37.25-4.72.25-7.07l-1.2-.7-7,2.11-.7-1.62-.71-.21-1.68,3-2.11,1.69v1.41a16.61,16.61,0,0,1,1.9,4.08,34.75,34.75,0,0,0,1.68,4.36,1.49,1.49,0,0,0-.49,1.05v1.06l7.74.28Z"/><path d="M386.63,151.58c-.56-.94-1.17-1.89-1.82-2.85a5.88,5.88,0,0,1-1-3.41h.56a15.44,15.44,0,0,0,1.27-5.42c.09-1.87.14-3.82.14-5.83l-1.12-.78q-2.19,3.24-3.94,6.47a49.88,49.88,0,0,1-4.22,6.47l-2.88.78v-.29l.49-1.12h-.28l1.62-1.83H376q3-6.18,6.11-12.2a40.66,40.66,0,0,0,4.22-13l-.28-1.34,1.62-.28v-.28h.77l3.59,1.13.28,1.61-5.2,10.69a3,3,0,0,0,1.37.28,1.07,1.07,0,0,1,1.09.78l.21,2.39c-.52,2.86-.9,5.81-1.16,8.86a79.68,79.68,0,0,1-1.23,8.78Zm-4.35-36.71a9.62,9.62,0,0,0,3.93-5.2,57.14,57.14,0,0,0,1.48-6.33l1.34-.28.77.56v.5l2.81,1,.21,2L391,110.3l-1.68,1.9-3.69,1.09A11.77,11.77,0,0,0,382.28,114.87Zm14.9,29.67-1.12-2.1h-.5v-.57l-1.12-1.05v-.49h1.34l.91.28,6.19-3.24.56-6.18H402.1v.56h-2a8.56,8.56,0,0,0-1.58-.42,2.81,2.81,0,0,1-1.37-.64l-.77-1.05a8.05,8.05,0,0,0,3.62-.85c1.15-.56,2.28-1.1,3.41-1.61l.28-2.39-.56-1.62H402.1l-6.54,2.67-3.79-2.67q3.8-1.33,7.45-2.67t7.17-2.67l.28-.85,1.41-.28,2.95.84.78-.28,1.12.57v1h-.56v1.34a16.72,16.72,0,0,1-4.22,1,6,6,0,0,0-3.66,1.62l3.59.84.28,1.34-.28.77,2.11.28v1.06l-.21,1-1.9.85-.63,3.72,4.36,1.06,1.12-.28.21,1.4a1.33,1.33,0,0,1-.52,1.16,5.35,5.35,0,0,1-1.31.67l-12.79,7.73Zm6-27,1.33-3a5.91,5.91,0,0,1-3.34-.38,7.38,7.38,0,0,1-2.63-2l1.61-.28,1.13-1.13,1.12-.49,1.34.28,1.62-1,.28-4.08-1.13-2.6H404v-.56l.78-2.18-.29-.57h.57v.57l3.79.56.57,5.62-.29,1.34,4.29.84v1.27l-.77,1.34-4.57,2.18-1.41,2.67-.84.28v.49Zm21.44,38.75L423,155v-.56h-.57l-.77-4.71h.49v.21h1.13l.49-7.45a67.82,67.82,0,0,1-.49-8.3,18.47,18.47,0,0,0-1.62-7.81h-.84a2.9,2.9,0,0,1-1.76.57h-1.76l-.84-1.06H416a1.23,1.23,0,0,0-.46-1.44,1.31,1.31,0,0,1-.67-1.23h-.49l1.83-.56.28-.57h.84l3.8.57,8.65-2.11.28-.85,1.69-.21,4.92,1.27v1.12a9,9,0,0,1-5.63,2,10.16,10.16,0,0,0-5.55,1.69l1.33.77.57,6.47-.29,6.12.29,5.62-.29,1.06.29,1.69-.85,8.15H426l-.28.85Zm-2.46-39.59-3.51-2.11-.28-.77h-.57a6.86,6.86,0,0,0,3.45-.42,21.45,21.45,0,0,0,2.81-1.48l4.92.84v1.83l-.28.56Z"/><path d="M458.28,144.62v-.5l-.21-.7.21-.77a11.85,11.85,0,0,1-.7-4.15,24.47,24.47,0,0,0-.42-4.5h.7l.21-1.9h1l2,1v.5l3.09,1.61.42,3.87-1.62,3.31-1.68.28-.21.77ZM476.35,156l-3.16-2.18-.7-1.2-.71-.21h.71v-.49l-1-.21v-.43l1.69-.49v-.49l.7-.77V140L473,121.41h-.7q-2.19.91-4.36,1.76c-1.46.56-2.89,1.08-4.29,1.55a10.75,10.75,0,0,1-2.82-1.44,4.92,4.92,0,0,0-2.95-1l-.28-.71.7-.21v-.49l.78-.28v-.21l-.28-.28h.49l1,.28c2.25-.38,4.42-.83,6.51-1.37s4.16-1,6.22-1.52v-2.88l-.28-.7.28-4.08-.7-1.19h.42v-.5l-.42-1.68h.42l1,.77.21.7c.66.14,1.31.26,2,.35a1.75,1.75,0,0,1,1.41,1.06,6.74,6.74,0,0,1,.49,2.53v2.74l1.69.28.49-.28.21.49h1.2l2.67-.49,1.69.49.49.71h1.4l1.41,1.4v.5h-.49v.49h.77v.21a19.63,19.63,0,0,1-6,.49,9.36,9.36,0,0,0-5.52,1.2c-.14,1.59-.33,3.18-.56,4.78s-.45,3.28-.64,5.06l.29,1.2c-.19.93-.36,1.93-.5,3s-.3,2.05-.49,3l1,5.49-.29,1,.5,4.78-.21,3.1.21,1.61-.21.92.21,1.68Zm19.9-13.36-2.88-1.48-2.11-2.11a21,21,0,0,0-2-3.37,16.47,16.47,0,0,0-2.88-3.1l-2.88-1.9h3.86v.5a6.91,6.91,0,0,1,4.05,1.19c1.14.8,2.35,1.57,3.62,2.32l.21.77,1,1a31.76,31.76,0,0,1,1.65,2.85c.5,1,1,2,1.52,3.06Zm-4.08-27.71-2.46-4.15-1.61-1.61h.42v-.49l6.54-.71,2.6,2.11.21,2.18-2.39.77-.42,1.13Zm3.1-2.67v-1.9l-.21-1.19-3.8-.28v2.18h.91v1.19Z"/><path d="M521.46,132.15l-2.11-1.23-3.75-3.4a11.82,11.82,0,0,1,4.24,1.14,9,9,0,0,0,4.54.79q6.51-.47,13.22-.88t13.21-.88a16.45,16.45,0,0,1,2.29.5,21,21,0,0,1,2.11.79l.23.47-1.11.18-.77,1.58-.64.17a10.87,10.87,0,0,0-4.75-1.2c-1.75-.05-3.53-.08-5.33-.08-3.63.19-7.23.46-10.78.79S525,131.64,521.46,132.15Z"/><path d="M579.7,150.5l1.54-1.41a13.38,13.38,0,0,0,3.31-3.37q1.26-1.91,2.6-3.87,1.83-3.16,3.76-6.22a31.48,31.48,0,0,0,3.13-6.51q-2.53-1.18-5-2.6a14.89,14.89,0,0,1-4.25-3.73h1a22.53,22.53,0,0,1,5.21,1.06q2.52.84,5.06,2l3.16-10.62-.91-1.12L597,113.3l-1.61-2.39a16.29,16.29,0,0,0,3.65-.42,14.12,14.12,0,0,0,3.45-1.27v-.7h.7a32.19,32.19,0,0,0,3.27,1c1.15.28,2.26.61,3.34,1l.49,2.11a6.23,6.23,0,0,0-1.83.77,6.56,6.56,0,0,0-1.61,1.41l-.92,1.19h-.49q-4.15,7.45-8,15.23a62.86,62.86,0,0,1-10,14.52h-.42l-1.62,2.18a7.53,7.53,0,0,0-2.81,1.26A8.68,8.68,0,0,1,579.7,150.5Zm.35-26.79a25.26,25.26,0,0,0,4-6,32.79,32.79,0,0,0,2.29-6.51h-.08v-1.26l.85-.85h.7l.28.57,3.38,1,.21,1.69-3.24,4.92-3.86,2.88-2.53,1.55-.14.42Z"/><path d="M636.87,141.1v-.49h-1l.28-.85h-.42v-1.33c.94-2.39,1.74-4.77,2.42-7.14a33.74,33.74,0,0,0,1.23-7.56l-.21-1.61.21-1.06-1.26-4.29,1.05-.21v-2.25l-.28-.42h.28l.21.91.71.21v.43l1,.42,3.24.91.28,2L644,122.4l.29,1.33H644a24.9,24.9,0,0,1-1.65,8.33,56.41,56.41,0,0,1-3.69,7.7Zm18.64,8.16-1-.43v-.42l-1.55-.7-3.16-2.46v-.42l.21-.43,1.27-.21a16.53,16.53,0,0,0,.84-4.36c.09-1.54.14-3,.14-4.5l-.49-7,.21-.91-.7-12,.28-1.13-.78-2V111h.78v-2l-.28-.5,1.19,2.32a5,5,0,0,1,2.29.11,15.76,15.76,0,0,1,1.93.74l.28,1.12a48.53,48.53,0,0,0-1,9.85,36.7,36.7,0,0,1-1.27,9.77V142h.78l7.17-6c1.31-1.36,2.67-2.68,4.08-3.94a37.87,37.87,0,0,0,3.58-3.66v2h.28l.5-.49.28,1.55a14.24,14.24,0,0,1-4.15,5.59,16.1,16.1,0,0,0-4.29,5.38h-.49l-1.83,2.18c-.94.6-1.91,1.27-2.92,2A6.54,6.54,0,0,0,655.51,149.26Z"/></g></g></g></svg>