<svg xmlns="http://www.w3.org/2000/svg" viewBox="0 0 30.79 29.46"><defs><style>.cls-1,.cls-3{fill:#d8d8d8;}.cls-2{fill:#f4d0cb;}.cls-3{stroke:#000;stroke-linecap:round;stroke-linejoin:round;stroke-width:0;}</style></defs><title>icon_about</title><g id="レイヤー_2" data-name="レイヤー 2"><g id="レイヤー_1-2" data-name="レイヤー 1"><path class="cls-1" d="M25.53.94s0,0,0,0h.06S25.55.93,25.53.94Z"/><path class="cls-1" d="M24.93,1.05s0,0,0,.06l.07,0S25,1,24.93,1.05Z"/><path class="cls-1" d="M6,1.05s0,0-.05,0l.07,0S6,1.05,6,1.05Z"/><path class="cls-1" d="M5.39.94a0,0,0,0,0-.06,0h.06Z"/><path class="cls-1" d="M4.56,2.54a2.1,2.1,0,0,1,.28.12.46.46,0,0,0,.29.13.65.65,0,0,1,.27.08.51.51,0,0,0,.32.06c.1,0,.18.08.31.1s.27,0,.39,0a2.09,2.09,0,0,0,.3.11H7c.09,0,.17,0,.28.07a2,2,0,0,0,.35,0h.31a.3.3,0,0,0,.1.05h.07l.18,0h0a.36.36,0,0,1,.15.06.21.21,0,0,0,.14,0h.11l.08,0h0a.93.93,0,0,0,.14,0H9l.17,0h0s.09,0,.17.06h0c.08,0,.14,0,.2,0h0l.13.06h0a.57.57,0,0,0,.15,0h0c.08,0,.16.07.29.08h0a.71.71,0,0,0,.15-.07h0l.08,0,.12,0h.08l.07,0h0a.86.86,0,0,0,.17,0h0a.78.78,0,0,0,.14,0h0s.07,0,.12.06a.19.19,0,0,0,.1,0,.42.42,0,0,0,.15,0h.1a.24.24,0,0,0,.15.07h0a.34.34,0,0,0,.17-.07h0s.11.08.24.09h0c.09,0,.15-.07.19-.06h0a.21.21,0,0,0,.14.09h.05a.35.35,0,0,0,.17-.06h0s.09.05.18.05h0c.08,0,.11-.07.12-.06h0a.43.43,0,0,1,.12.06l.1,0,.09,0,.07,0h0c.06,0,.14.09.26.1h0l.07,0,.06,0V4.93s0,0,0,0h2.95s0,0,0,0V3.66a.15.15,0,0,0,.06,0l.07,0h0c.11,0,.19-.09.25-.1h0l.07,0,.09,0,.1,0a.36.36,0,0,1,.13-.06h0s0,0,.12.06h0a.69.69,0,0,0,.18-.05h0a.35.35,0,0,0,.17.06h.05a.21.21,0,0,0,.14-.09h0s.1.05.19.06h0c.12,0,.18-.1.23-.09h0a.34.34,0,0,0,.17.07h0a.21.21,0,0,0,.15-.07h.1a.42.42,0,0,0,.15,0,.19.19,0,0,0,.1,0c.05,0,.09-.06.12-.06h0a.49.49,0,0,0,.13,0h0a.86.86,0,0,0,.17,0h0l.07,0h.07l.12,0,.08,0h0a.45.45,0,0,0,.14.07h0c.12,0,.2-.08.28-.08h0a.57.57,0,0,0,.15,0h0l.13-.06h0c.06,0,.12,0,.2,0h.05c.08,0,.13-.07.17-.06h0l.17,0h0a.93.93,0,0,0,.14,0h0l.08,0h.12a.2.2,0,0,0,.13,0,.36.36,0,0,1,.15-.06h0l.18,0h.07a.3.3,0,0,0,.1-.05h.31a2,2,0,0,0,.35,0c.11,0,.19-.06.28-.07h.28a2.09,2.09,0,0,0,.3-.11c.12,0,.24,0,.39,0s.21-.09.32-.1a.5.5,0,0,0,.31-.06.65.65,0,0,1,.27-.08.46.46,0,0,0,.29-.13,2.1,2.1,0,0,1,.28-.12c.11,0,.22-.12.22-.24v0s0,0-.05,0,0,0,0,0v0c0,.06-.06.11-.17.16a2.73,2.73,0,0,0-.29.13c-.13.09-.09.09-.25.11a.75.75,0,0,0-.3.09.5.5,0,0,1-.28.06c-.14,0-.23.08-.33.1a3.18,3.18,0,0,0-.4,0c-.1,0-.2.09-.29.11H23.9c-.11,0-.19.06-.28.07a1.87,1.87,0,0,1-.34,0H23a.3.3,0,0,0-.1,0H22.8c-.05,0-.11,0-.18,0h0a.37.37,0,0,0-.18.08.16.16,0,0,1-.09,0h-.11l-.08,0h0a.8.8,0,0,0-.17.06h0c-.05,0-.1,0-.18,0h0c-.09,0-.14.06-.19.06h0c-.05,0-.11,0-.2,0h-.06c-.06,0-.09.06-.13.06h0l-.14,0h0c-.13,0-.21.08-.28.08h0l-.12-.06h-.07l-.1,0-.1,0h0s0,0-.1-.05h-.05l-.15,0h0s-.07,0-.13,0h0a1.31,1.31,0,0,0-.13.07l-.07,0-.11,0-.1,0a.16.16,0,0,0-.09,0c-.05,0-.06,0-.1,0h0s-.07,0-.14-.06h-.06c-.11,0-.17.1-.23.09h0s-.1-.06-.19-.06a.12.12,0,0,0-.09,0c-.06,0-.06.06-.1.07h0a.24.24,0,0,1-.13,0,.11.11,0,0,0-.08,0c-.08,0-.14.06-.18.06h0s-.05-.06-.12-.07h0c-.08,0-.13.06-.17.07h-.12s0,0-.1,0h0c-.1,0-.18.09-.23.09h0s-.06-.06-.14-.07H15.78a.11.11,0,0,0-.09,0,.29.29,0,0,0-.14,0h-.19a.29.29,0,0,0-.14,0,.12.12,0,0,0-.09,0H14c-.08,0-.11.06-.14.07h0c-.06,0-.14-.07-.24-.09h0c-.06,0-.08,0-.1,0h-.12s-.09-.07-.16-.07h0c-.07,0-.1.07-.12.07h0s-.1-.05-.18-.06a.13.13,0,0,0-.08,0,.24.24,0,0,1-.13,0h0s0,0-.1-.07a.12.12,0,0,0-.09,0c-.09,0-.15.06-.19.06h0c-.07,0-.12-.08-.24-.09h-.06c-.07,0-.1.06-.14.06h0s-.06,0-.11,0a.16.16,0,0,0-.09,0l-.09,0a.3.3,0,0,1-.12,0l-.07,0a.69.69,0,0,0-.13-.07h0a.49.49,0,0,0-.14,0h0l-.15,0h0c-.06,0-.08,0-.11.05h0l-.1,0-.1,0h-.07l-.12.06h0c-.08,0-.16-.07-.29-.08h0l-.14,0h0a.45.45,0,0,1-.13-.06H9.56c-.08,0-.15,0-.2,0h0c-.05,0-.1-.06-.19-.06h0c-.08,0-.13,0-.18,0h0a.8.8,0,0,0-.17-.06h0l-.08,0h-.1a.18.18,0,0,1-.1,0,.33.33,0,0,0-.18-.08h0c-.07,0-.13,0-.18,0h0A.36.36,0,0,0,8,3.2H7.63a1.87,1.87,0,0,1-.34,0c-.09,0-.17-.05-.28-.07H6.74c-.09,0-.19-.08-.29-.11a3.18,3.18,0,0,0-.4,0c-.1,0-.19-.1-.33-.1a.52.52,0,0,1-.28-.06.75.75,0,0,0-.3-.09c-.16,0-.12,0-.25-.11a2.73,2.73,0,0,0-.29-.13c-.11,0-.18-.1-.17-.16v0s0,0,0,0a.05.05,0,0,0,0,0v0C4.34,2.42,4.45,2.49,4.56,2.54Zm9.67,1.3h2.45v.83H14.23Z"/><path class="cls-1" d="M3.3.73h.2a.22.22,0,0,1,.1.09s0,.05,0,.05h0a1.72,1.72,0,0,1,.18,0h0A.18.18,0,0,1,4,1S4,1,4,1l.09,0h.12a.19.19,0,0,1,.22.15h.19a.39.39,0,0,1,.24.07c.07.05.08.1.13.11H5a1.39,1.39,0,0,1,.17,0h0a.14.14,0,0,1,.11.08.12.12,0,0,0,0,.05h.21c.13,0,.18.11.25.14l.09,0c.07,0,.14,0,.24,0h0c.15,0,.2.1.3.1h.15a.34.34,0,0,1,.19,0,.27.27,0,0,0,.15,0H7.1c.15,0,.22.1.32.11h0s.08,0,.17,0h0c.08,0,.12.08.17.08h0c.06,0,.14,0,.22,0h0c.12,0,.2.1.28.1h0s.08,0,.16,0h0c.09,0,.11,0,.17.06l.13,0L9,2h0c.13,0,.19.06.27.06h.41l.21,0h0c.12,0,.18.08.24.08h0c.09,0,.14-.08.27-.09h.06a.42.42,0,0,1,.1.07h0s.05,0,.13-.06h0a.2.2,0,0,1,.14.06l.09,0h0c.06,0,.12-.1.26-.1h0c.08,0,.1.07.12.06h0l.1,0,.12,0a.21.21,0,0,1,.17.09,1.25,1.25,0,0,1,.18-.06h0a.19.19,0,0,1,.09,0l.05,0h0s.09-.05.17-.05h0a.25.25,0,0,1,.13.11h0l.06,0a.18.18,0,0,1,.1,0h0a.14.14,0,0,1,.1.05l0,0h0a1.2,1.2,0,0,1,.23-.06.1.1,0,0,1,.11.05h0a.14.14,0,0,1,.07,0h.05a.58.58,0,0,1,.14,0l.07,0h0a.3.3,0,0,1,.14-.06h0c.09,0,.11.05.14.05h.13a.24.24,0,0,1,.12,0h0c.08,0,.11.08.13.08h0c.07,0,.15-.09.29-.09h.05l.07,0s0,0,0,0h0a.18.18,0,0,1,.1,0h0c.08,0,.11,0,.15,0h0s.11-.08.23-.09h0l.08,0,.07,0h0c.11,0,.17.09.22.09h0s.07,0,.15,0h0a.15.15,0,0,1,.1,0h0s0,0,0,0a.19.19,0,0,1,.08,0h0c.14,0,.22.09.29.09h0s0-.06.13-.08h0a.24.24,0,0,1,.12,0H17s.05-.05.14-.05h0a.3.3,0,0,1,.14.06h0l.07,0a.7.7,0,0,1,.14,0h.05l.08,0a0,0,0,0,0,0,0,.1.1,0,0,1,.11-.05,1.2,1.2,0,0,1,.23.06h0l0,0a.14.14,0,0,1,.1-.05h0a.21.21,0,0,1,.11,0l.05,0h0a.25.25,0,0,1,.13-.11h0c.08,0,.14.05.17.05h0l.05,0a.2.2,0,0,1,.1,0h0a.74.74,0,0,1,.18.06.21.21,0,0,1,.17-.09l.12,0,.1,0h0s0,0,.12-.06h0c.14,0,.2.1.26.1h0l.09,0a.21.21,0,0,1,.15-.06h0c.08,0,.1.06.13.06h0s0,0,.1-.07h.06c.13,0,.18.09.27.09h0c.06,0,.12-.08.24-.08h0l.21,0h.42c.07,0,.13,0,.26-.06h0l.2,0,.13,0c.06,0,.08-.06.17-.06h0c.07,0,.11,0,.15,0h0c.08,0,.16-.09.29-.1h0c.08,0,.16,0,.22,0h0s.08-.06.17-.08h0c.09,0,.14.06.17,0h0c.1,0,.17-.11.32-.11h.11a.27.27,0,0,0,.15,0,.34.34,0,0,1,.19,0h.15c.1,0,.15-.09.3-.1h0c.1,0,.18,0,.24,0l.09,0c.07,0,.12-.12.25-.14h.21a.12.12,0,0,0,.05-.05.14.14,0,0,1,.11-.08h0a1.39,1.39,0,0,1,.17,0h0c.05,0,.06-.06.13-.11a.39.39,0,0,1,.24-.07h.19A.2.2,0,0,1,26.67,1h.11l.09,0s0,0,.05-.06A.2.2,0,0,1,27,.85h0a1.72,1.72,0,0,1,.18,0s0,0,0,0,0,0,.05-.05a.16.16,0,0,1,.09-.09h.25c.1,0,.19-.1.31-.14A.19.19,0,0,1,27.89.4S27.64.27,27.6.29l-.06,0L27.41.22s0,0,0,0-.05,0-.07,0,0-.08-.07-.1-.1.11-.08.17.08.16.11.26l-.4.15s0,0,0-.07,0-.26-.12-.18,0,.08,0,.12a.1.1,0,0,1-.05.08.19.19,0,0,0-.05.14L26.3.79l0-.09a.38.38,0,0,0-.13-.18c-.11,0-.07.11-.06.16s0,.08,0,.12V.86L25.68,1l-.05-.1s0-.09-.05-.11a.1.1,0,0,0-.12,0,.83.83,0,0,0-.08.24l-.33.07S25,1,25,1s0-.07,0-.11S25,.83,25,.85a.39.39,0,0,0-.2.22s0,0,0,.06l-.33.06a.13.13,0,0,0,0-.06s0-.16,0-.16-.12.11-.15.16a.17.17,0,0,0,0,.1l-.26,0s0,0,0-.06,0-.2-.08-.12,0,.08,0,.11,0,.05-.06.08l0,0-.43.06c0-.05,0-.09,0-.12s0-.09,0-.15a.32.32,0,0,0-.1-.1c-.06,0-.1,0-.11-.06s0-.12,0-.16S23,1,23,1s-.1,0-.14,0-.05.11-.06.15a.28.28,0,0,0,0,.18l.05.07a21.49,21.49,0,0,1-2.87,0,.1.1,0,0,0,0-.17,1.57,1.57,0,0,1-.39-.07c-.43-.2-.34.22-.34.22-.75.09-2.7.15-3.79.18s-3.05-.09-3.8-.18c0,0,.09-.42-.34-.22a1.56,1.56,0,0,1-.38.07.1.1,0,0,0,0,.17,21.65,21.65,0,0,1-2.88,0l0-.07a.28.28,0,0,0,0-.18S8.1,1,8.06,1,8,1,7.92,1s0-.32-.11-.23,0,.11,0,.16,0,0-.11.06a.32.32,0,0,0-.1.1c0,.06,0,.09,0,.15s0,.07,0,.12L7.16,1.3l0,0s0-.05-.06-.08,0-.09,0-.11S7,1.17,7,1.21a.13.13,0,0,1,0,.06l-.26,0a.17.17,0,0,0,0-.1S6.58,1,6.51,1s0,.11,0,.16,0,0,0,.06l-.33-.06a.13.13,0,0,0,0-.06A.41.41,0,0,0,5.93.85s-.08,0-.09,0,0,.07,0,.11,0,.06,0,.09L5.53,1A.83.83,0,0,0,5.45.77a.1.1,0,0,0-.12,0c-.06,0,0,.06,0,.11l0,.1L4.87.86s0,0,0-.06,0-.06,0-.12,0-.19-.06-.16A.38.38,0,0,0,4.64.7l0,.09L4.32.7A.19.19,0,0,0,4.27.56a.1.1,0,0,1,0-.08s0-.1,0-.12-.12.12-.12.18A.19.19,0,0,1,4,.61L3.64.46c0-.1.1-.22.11-.26s0-.27-.08-.17,0,.07-.07.1-.05,0-.07,0,0,0,0,0L3.37.33l-.06,0S3.07.38,3,.4a.18.18,0,0,1-.08.19c.12,0,.21.11.31.14ZM25.53.94s0,0,0,0h-.06S25.52,1,25.53.94Zm-.6.11s0,0,.05,0l-.07,0S24.92,1.05,24.93,1.05ZM6,1.05s0,0,0,.06l-.07,0S6,1,6,1.05ZM5.39.94V1H5.33A0,0,0,0,1,5.39.94Z"/><polygon class="cls-1" points="16.68 4.67 16.68 3.84 15.46 3.84 14.23 3.84 14.23 4.67 15.46 4.67 16.68 4.67"/><path class="cls-1" d="M15.28,6.23h-1s0,0,0,0v.66a0,0,0,0,0,0,0h1.07s0,0,0,0V6.27a0,0,0,0,0,0,0Z"/><rect class="cls-1" x="21.44" y="6.27" width="0.92" height="0.57" transform="translate(-0.04 0.15) rotate(-0.38)"/><path class="cls-1" d="M16.52,6.22h-1a0,0,0,0,0,0,0v.66s0,0,0,0h1.06l0,0V6.26a0,0,0,0,0,0,0Z"/><path class="cls-1" d="M13.94,6.24h-1l0,0v.65s0,0,0,0l0,0h1a0,0,0,0,0,0,0V6.28a0,0,0,0,0,0,0Z"/><path class="cls-1" d="M17.86,6.21h-1a0,0,0,0,0,0,0v.66l0,0h1.06s0,0,0,0V6.26s0,0,0,0Z"/><rect class="cls-1" x="20.1" y="6.28" width="0.92" height="0.57" transform="translate(-0.04 0.14) rotate(-0.38)"/><path class="cls-1" d="M19.75,6.2h-1s0,0,0,0v.66a0,0,0,0,0,0,0h1s0,0,0,0l0,0V6.24a0,0,0,0,0,0,0Z"/><path class="cls-1" d="M12.05,6.25H11s0,0,0,0V7a0,0,0,0,0,0,0h1.06l0,0V6.29a0,0,0,0,0,0,0Z"/><rect class="cls-1" x="9.78" y="6.35" width="0.92" height="0.57" transform="translate(-0.04 0.07) rotate(-0.38)"/><rect class="cls-1" x="8.44" y="6.36" width="0.92" height="0.57" transform="translate(-0.04 0.06) rotate(-0.38)"/><path class="cls-2" d="M16.15,19.28a2.73,2.73,0,0,0,0-.57,1.65,1.65,0,0,0-.11-.26h0c.2-.07.09-.23.05-.37a8.89,8.89,0,0,1-.19-1c-.05-.36-.28-.64-.34-1a5.07,5.07,0,0,0-.24-.65c-.08-.23-.21-.44-.28-.66s0-.32-.07-.47a4.56,4.56,0,0,0-.62-1.2c-.07-.09-.11-.22-.19-.31a.76.76,0,0,0-.41-.31,4.78,4.78,0,0,0-.83-.33A.21.21,0,0,0,13,12c0-.09,0-.16,0-.25s.16-.18,0-.25a.25.25,0,0,0,0-.36c0-.07.14-.18.12-.27s-.17-.13-.22-.21a.5.5,0,0,1,0-.32.67.67,0,0,0-.05-.26,1.19,1.19,0,0,0,0-.24.61.61,0,0,0-.3-.35,1,1,0,0,0-.63-.12c-.11-.12-.43-.1-.57-.08a1.61,1.61,0,0,0-.8.38,2,2,0,0,0-.4,1.84c.05.16.13.29.19.44s0,.19,0,.31a.38.38,0,0,0,0,.41l0,0a2.66,2.66,0,0,0-1.11,1.12.44.44,0,0,0,0,.14,1.62,1.62,0,0,0-.11.52c0,.47-.09.94-.12,1.41a5.31,5.31,0,0,0-.09.79.77.77,0,0,1-.09.39,3.66,3.66,0,0,0-.17.85,6.9,6.9,0,0,1-.07,1,2.19,2.19,0,0,0-.06.76c0,.07,0,.18,0,.23s.11.05.18.06,0,.16,0,.24a1.3,1.3,0,0,0,0,.34c0,.13,0,.26,0,.39a.41.41,0,0,0,.08.29l.12.14s0,.1.08.13.09,0,.12,0a.42.42,0,0,1,.12,0s.1,0,.13,0,0-.06,0-.09.07-.09,0-.13-.11-.07-.15-.1S9,21.05,9,20.92c0,0,.07.1.12,0s0-.12,0-.18.07-.12.09-.19-.07-.28-.09-.43a1.15,1.15,0,0,1,0-.19.28.28,0,0,1,.12,0c0-.26.11-.51.15-.77a3.92,3.92,0,0,1,.26-1.06.14.14,0,0,1,0-.06c0,.37,0,.74,0,1.1,0,.63-.14,1.21-.2,1.83,0,.37,0,.75-.06,1.12,0,.14-.17.6-.09.73s.44.1.58.1.46,0,.69,0a7.22,7.22,0,0,1-.05.82,2.75,2.75,0,0,0,.08.65c0,.21,0,.42,0,.63A14.65,14.65,0,0,0,11,26.81c.05.27.06,1.12.31,1.23h.06a2.81,2.81,0,0,1-.16.49c-.13.26-.49.49-.06.64a1.21,1.21,0,0,0,.82,0c.38-.14.46-.8.37-1.31l0,0c.18-.18,0-.78,0-1a5,5,0,0,1-.11-.94,7.92,7.92,0,0,0,0-1.29,2.62,2.62,0,0,1-.12-.62c0-.3.12-.59.12-.91a2.53,2.53,0,0,1,0-.28l.66-.09a6.78,6.78,0,0,1,0,.77,1.75,1.75,0,0,0,0,.56,1.07,1.07,0,0,1,0,.56,12.23,12.23,0,0,0-.09,1.72c0,.33,0,.66,0,1,0,.17-.08.46,0,.61a0,0,0,0,0,0,0c0,.17-.06.33-.09.43s-.06.17-.1.27a.49.49,0,0,0,0,.28c.09.3.74.14,1,.23a2.11,2.11,0,0,0,1.15.3c.24,0,.44-.1.41-.39s-.41-.27-.63-.39a1.76,1.76,0,0,1-.64-.66h.06c.14-1.23.39-2.41.46-3.64,0-.46.09-.9.14-1.35a3.51,3.51,0,0,0,0-.56c.37-.11.28-.45.25-.82l-.12-1.23c-.05-.61,0-1.22-.08-1.83s-.17-.93-.19-1.4-.05-.78-.08-1.17a3.25,3.25,0,0,0,.21.37,3.17,3.17,0,0,1,.28.8c.11.34.25.66.36,1a.88.88,0,0,0,.1.27c.06.08.16.07.25.05a2.57,2.57,0,0,1-.07.46c0,.18.05.29.1.46s0,.36.09.35.11-.13.12-.24c0,.11.08.26.11.37s-.26.07-.27.18.05.09.13.07.17.09.23.06a2.39,2.39,0,0,0,.21-.13c.1,0,.14-.08.13-.2S16.16,19.49,16.15,19.28Z"/><path class="cls-1" d="M6.15,6.14c.11.13.06.23.12.38l0,0a13.63,13.63,0,0,0,1.45.13V6.13c0-.09,0-.21,0-.32a.44.44,0,0,0,0-.25c0-.06-.11,0-.17-.16a.91.91,0,0,1,0-.31v0c0-.06,0-.15,0-.23a.15.15,0,0,0,0-.08c0-.08-.18-.1-.27-.23s0-.31-.13-.41a.69.69,0,0,1-.2-.31c-.06-.16-.4-.19-.59-.23a4.12,4.12,0,0,1-1-.33,6.2,6.2,0,0,0-.89-.37,1,1,0,0,1-.34-.11A.33.33,0,0,1,4,2.45a4.23,4.23,0,0,0-.42-.22l-.46-.16c0,.09,0,.23.23.23a.71.71,0,0,0,0,.15c0,.12.09.12.19.14a.53.53,0,0,0,0,.22s.12,0,.15.08,0,.12,0,.17.12,0,.15.09,0,.12,0,.16S4,3.35,4,3.4s0,.11,0,.16.12,0,.16.07,0,.09,0,.13a.17.17,0,0,0,.14.06c0,.1,0,.25.15.23,0,.11,0,.2.16.19s0,.16.14.16a.13.13,0,0,0,.14.17c0,.09,0,.17.15.16s0,.11,0,.14.09,0,.11,0A.09.09,0,0,0,5.3,5c0,.08,0,.12.1.12a.08.08,0,0,0,.1.1s0,.08,0,.1.06,0,.07,0,0,.13.09.13,0,.13.08.12,0,.14.11.13,0,.13.1.14C5.93,6.11,6.07,6.05,6.15,6.14Z"/><path class="cls-1" d="M2.85,1.74a.21.21,0,0,0,0,.12c0,.06.08.11.24.11h0c.16.07.32.12.48.18s.3.17.45.23a.05.05,0,0,1,0,.05h0c0,.16,0,.22.1.26a1.76,1.76,0,0,0,.32.1,5.15,5.15,0,0,1,.91.38,4.45,4.45,0,0,0,.93.32c.17,0,.54,0,.65.27a.71.71,0,0,0,.18.29c.13.15.07.31.15.42s.2.1.27.24a.25.25,0,0,1,0,.12c0,.09,0,.18,0,.23v0a1.18,1.18,0,0,0,0,.28c0,.07.08.06.16.15a.5.5,0,0,1,.07.3c0,.12,0,.24,0,.32v.56h.1a0,0,0,0,1,.05,0,0,0,0,0,1,0,0v.49l7.38,0,7.38-.06V6.58a0,0,0,0,1,0,0,0,0,0,0,1,.05,0H23V6a2.73,2.73,0,0,1,0-.32.5.5,0,0,1,.07-.3c.07-.1.12-.08.15-.16a1,1,0,0,0,0-.28h0c0-.06,0-.15,0-.23a.23.23,0,0,1,0-.12c.07-.14.23-.15.27-.24s0-.28.14-.43a.68.68,0,0,0,.18-.29c.11-.23.48-.24.65-.28A4.43,4.43,0,0,0,25.37,3a7.33,7.33,0,0,1,.91-.39,1.61,1.61,0,0,0,.31-.1c.07,0,.1-.1.1-.26h0a.05.05,0,0,1,0,0c.15-.06.27-.18.45-.24s.32-.11.47-.18h0c.17,0,.23-.06.24-.12a.21.21,0,0,0,0-.12,6.07,6.07,0,0,0,.56-.46c.07-.07.24-.29.12-.38s-.28.07-.39.06S28.11.62,28,.57h0a2.23,2.23,0,0,0-.4.16h-.24s0,0-.05.06a.37.37,0,0,1-.09.09h-.05a1,1,0,0,1-.18,0h0a.1.1,0,0,0-.06.05.15.15,0,0,1-.08.1.22.22,0,0,1-.14,0h-.11c-.09,0-.12,0-.14.11s0,0,0,0h-.24a.29.29,0,0,0-.19.06s-.06.1-.16.13h0c-.07,0-.13,0-.17,0h0c-.05,0,0,0-.06,0a.17.17,0,0,1-.07.09.18.18,0,0,1-.1,0h-.15c-.09,0-.12.08-.23.14l-.11,0c-.1,0-.18,0-.25,0v0h0c-.09,0-.14.08-.28.1h-.08s-.06,0-.08,0a.29.29,0,0,0-.15,0,.38.38,0,0,1-.19.05h-.1c-.11,0-.17.09-.31.11h0c-.09,0-.13,0-.17,0h0c-.05,0-.09.07-.17.09H23c-.09,0-.17,0-.23,0h0c-.08,0-.15.08-.27.1h0c-.07,0-.11,0-.15,0h0c-.07,0-.06,0-.14.05a.34.34,0,0,1-.16,0l-.21,0h0c-.09,0-.14,0-.26,0h-.07l-.13,0-.15,0h-.06a1.66,1.66,0,0,1-.22,0h0c-.08,0-.13.07-.25.08h0c-.13,0-.18-.1-.25-.09h0s0,.06-.12.07h0c-.08,0-.11-.05-.14-.05h0a.14.14,0,0,0-.1,0,.23.23,0,0,1-.14.05h0c-.13,0-.19-.1-.26-.09h0s-.05.05-.13.06h0c-.07,0-.09,0-.12,0l-.11,0c-.05,0-.07,0-.1.07s0,0,0,0h0c-.1,0-.16-.06-.21-.07h0s0,0,0,0l-.09,0h0c-.08,0-.14-.06-.18,0h0s0,0-.05,0,0,.06-.09.07h0a.24.24,0,0,1-.1,0l-.07,0h0l0,0a.26.26,0,0,1-.09.06h0c-.09,0-.18-.07-.24-.06s0,0,0,0,0,0,0,0h0a.11.11,0,0,1-.09,0l0,0h0l-.12,0,0,0-.06,0h0c-.08,0-.1-.06-.14,0h0c-.05,0-.05,0-.13,0h-.07l-.09,0-.1,0h0s-.06.07-.15.09h0c-.13,0-.21-.09-.29-.09h0s0,0,0,0a.19.19,0,0,1-.09,0h0a.24.24,0,0,1-.09,0,.06.06,0,0,0-.05,0s-.08,0-.16,0h0c-.11,0-.16-.09-.22-.08h0l-.08,0-.08,0h0c-.06,0-.11.07-.22.08h0c-.08,0-.12,0-.16,0l-.06,0s0,0-.08,0h0a.12.12,0,0,1-.08,0l-.05,0h0c-.08,0-.16.09-.28.09h0c-.09,0-.12-.08-.15-.08h0l-.1,0-.09,0h-.07c-.08,0-.08-.06-.13,0h0s-.06,0-.13.06h0a.08.08,0,0,1-.06,0l0,0-.12,0h0l0,0a.12.12,0,0,1-.08,0h0s0,0,0,0,0,0,0,0a2.08,2.08,0,0,1-.24.06h0a.17.17,0,0,1-.09-.05s0,0,0,0h0l-.07,0a.15.15,0,0,1-.1,0h0s-.07-.05-.09-.07,0,0-.05,0h0s-.1,0-.18,0h0a.36.36,0,0,1-.09,0H12c-.05,0-.11.06-.21.07h0s0,0,0,0-.05-.06-.11-.07l-.1,0s0,0-.12,0h0c-.08,0-.1-.06-.13-.06h0c-.08,0-.13.09-.26.1h0a.23.23,0,0,1-.14,0,.14.14,0,0,0-.1,0h0s-.06.05-.14.06h0c-.08,0-.1-.08-.12-.07h0c-.07,0-.12.07-.25.1h0c-.12,0-.18-.08-.25-.08h0a1.7,1.7,0,0,1-.22,0H9.44l-.13,0H9.24c-.12,0-.17-.06-.26-.06H9l-.21,0a.34.34,0,0,1-.16,0c-.08,0-.07,0-.14,0h0a1.3,1.3,0,0,1-.15,0h0C8.13,2.11,8.06,2,8,2H8c-.06,0-.14,0-.23,0h0C7.62,2,7.57,2,7.53,2h0S7.42,2,7.34,2h0c-.14,0-.21-.11-.31-.11h-.1a.32.32,0,0,1-.19-.06.44.44,0,0,0-.15,0H6.41c-.15,0-.19-.1-.29-.1h0v0c-.08,0-.16,0-.25,0a.27.27,0,0,1-.12,0c-.11-.05-.14-.12-.23-.13h0l-.13,0a.19.19,0,0,1-.1,0,.13.13,0,0,1-.07-.08s0,0-.06,0,0,0,0,0-.1,0-.17,0h0c-.1,0-.12-.11-.16-.13a.34.34,0,0,0-.19,0H4.33s0,0,0,0,0-.1-.14-.11H4a.36.36,0,0,1-.14,0,.24.24,0,0,1-.08-.1S3.79,1,3.76,1h0a1.72,1.72,0,0,1-.18,0H3.51A.15.15,0,0,1,3.43,1s0,0-.06-.06,0,0-.05,0H3.13a3.25,3.25,0,0,0-.4-.15h0c-.1,0-.21.08-.16.22-.11,0-.32-.13-.4,0s.06.31.13.38A4.79,4.79,0,0,0,2.85,1.74ZM8.44,6.93V6.36h.92v.56Zm2.26,0H9.78V6.35h.92Zm1.4,0,0,0H11a0,0,0,0,1,0,0V6.3s0,0,0,0h1.07a0,0,0,0,1,0,0Zm1.89,0a0,0,0,0,1,0,0h-1l0,0s0,0,0,0V6.29l0,0H14a0,0,0,0,1,0,0Zm1.34,0s0,0,0,0H14.25a0,0,0,0,1,0,0V6.28s0,0,0,0h1.07a0,0,0,0,1,0,0Zm1.24,0,0,0H15.49s0,0,0,0V6.27a0,0,0,0,1,0,0h1.07a0,0,0,0,1,0,0Zm1.33,0s0,0,0,0H16.83l0,0V6.26a0,0,0,0,1,0,0h1.07s0,0,0,0Zm1.9,0,0,0s0,0,0,0h-1a0,0,0,0,1,0,0V6.25s0,0,0,0h1.07a0,0,0,0,1,0,0ZM21,6.85H20.1V6.29H21Zm1.34,0h-.92V6.28h.92ZM4.26,2.34a0,0,0,0,1,0,0s0,0,0,.05v0c0,.06.07.11.17.16a2.23,2.23,0,0,1,.3.13c.13.09.09.09.24.11a.75.75,0,0,1,.31.09c.11.06.13,0,.28.05S5.87,3,6,3s.25,0,.4,0a2,2,0,0,0,.29.1h.27a1.63,1.63,0,0,1,.28.07l.34,0h.34A.36.36,0,0,1,8,3.3H8a1.41,1.41,0,0,0,.18,0h0a.42.42,0,0,1,.18.07.19.19,0,0,0,.1,0h.1l.09,0h0c.08,0,.13,0,.17,0h0a1.39,1.39,0,0,1,.17,0h0c.09,0,.15.06.19.06h0c.06,0,.12,0,.2,0h.07s.09.06.12.06h0l.14,0h.05c.12,0,.2.08.28.08h0s.07,0,.12,0l.07,0a.35.35,0,0,1,.11,0h.14s0,0,.1,0h0l.16,0h0s.07,0,.14,0h0a.88.88,0,0,1,.14.07l.06,0a.7.7,0,0,0,.12,0,.15.15,0,0,1,.09,0,.09.09,0,0,1,.09,0c.06,0,.07,0,.11,0h0s.07,0,.14-.06l.06,0c.12,0,.17.1.24.09h0s.1-.06.19-.06a.14.14,0,0,1,.1,0c.05,0,.05.06.1.07h0a.33.33,0,0,0,.13,0l.08,0c.09,0,.14.06.19,0h0s0,0,.13-.06h0a.35.35,0,0,1,.16.06l.07,0h.05a.16.16,0,0,1,.11-.05h0c.1,0,.18.1.24.09h0s0-.06.14-.07h.39l0,0h.68a.13.13,0,0,1,.1,0,.25.25,0,0,1,.13,0h.2a.22.22,0,0,1,.13,0,.14.14,0,0,1,.1,0h1.11c.09,0,.11.06.14.07h0c.06,0,.14-.07.24-.09h0a.22.22,0,0,1,.11,0h.12a.27.27,0,0,1,.16-.07h0c.08,0,.11.06.13.06h0c.05,0,.1-.05.19-.05a.13.13,0,0,1,.08,0,.22.22,0,0,0,.13,0h0c.05,0,.05,0,.1-.07a.13.13,0,0,1,.1,0c.08,0,.14.06.19.06h0c.07,0,.12-.08.24-.09h.06c.06,0,.09.06.13.06h0s.05,0,.1-.06a.17.17,0,0,1,.1,0l.09,0,.11,0h.07s.07-.06.13-.07h0c.07,0,.11,0,.14,0h0l.16,0h0c.06,0,.07,0,.1,0h0l.1,0,.11,0h.06c.06,0,.09,0,.13,0s0,0,0,0,.16-.08.28-.08h.05l.13,0h0s.06,0,.12-.05h.07c.08,0,.14,0,.2,0h0s.1-.06.18-.06h0c.07,0,.12,0,.17,0h0s.09-.05.16-.05h0l.09,0h.1a.16.16,0,0,0,.09,0,.68.68,0,0,1,.19-.08h0c.08,0,.13,0,.18,0h.05l.1-.05h.33a1.88,1.88,0,0,0,.34,0c.09,0,.17-.06.28-.08h.27c.09,0,.19-.08.29-.11a3.18,3.18,0,0,1,.4,0,1.82,1.82,0,0,1,.33-.11.52.52,0,0,0,.28,0,.76.76,0,0,1,.3-.1c.16,0,.12,0,.25-.11a1.57,1.57,0,0,1,.29-.13c.11-.05.17-.11.17-.17h0a0,0,0,0,1,.08,0,0,0,0,0,1,0,0c0,.13-.12.2-.22.25a2.1,2.1,0,0,0-.28.12.46.46,0,0,1-.29.13.66.66,0,0,0-.27.09.7.7,0,0,1-.32.06c-.1,0-.18.07-.31.1s-.27,0-.39,0a2.09,2.09,0,0,1-.3.11h-.28c-.09,0-.17.06-.28.07a1.34,1.34,0,0,1-.35,0h-.31a.36.36,0,0,1-.09,0h-.08l-.18,0h0a.48.48,0,0,0-.15.07.28.28,0,0,1-.13,0h-.12s-.07,0-.08,0h0l-.15,0h0c-.08,0-.12,0-.17,0h0s-.1,0-.18.06h0c-.09,0-.15,0-.2,0h0s-.07.05-.14.06h0l-.15,0h0c-.08,0-.16.08-.28.08h0a.77.77,0,0,1-.15-.06h0l-.08,0a.28.28,0,0,1-.13,0h-.07l-.07,0h0a.86.86,0,0,1-.17,0h0a.78.78,0,0,1-.14,0h0s-.06,0-.11.07l-.11,0a.58.58,0,0,1-.14,0l-.06,0a.06.06,0,0,0-.05,0,.23.23,0,0,1-.15.07h0c-.09,0-.13-.06-.17-.07h0c-.06,0-.11.08-.24.09h0c-.09,0-.15-.07-.18-.06h0s-.06.08-.14.09H18.2A.37.37,0,0,1,18,3.61h0s-.1,0-.19,0h0c-.07,0-.1-.07-.12-.07h0s-.07,0-.13.07l-.1,0-.09,0-.07,0h0c-.06,0-.14.09-.25.1h0l-.07,0-.07,0V4.92a0,0,0,0,1,0,0H13.92l0,0V3.67l-.07,0-.07,0h0c-.11,0-.19-.09-.25-.09h0s0,0-.07,0h-.09a.16.16,0,0,1-.1,0c-.06,0-.1-.06-.13-.06h0a.33.33,0,0,1-.11.07h0c-.09,0-.15-.05-.19-.05h0a.39.39,0,0,1-.18.06h-.05c-.08,0-.1-.06-.14-.09h0s-.09.05-.18.06h0c-.13,0-.19-.1-.24-.09h0s-.08.06-.17.07h0a.3.3,0,0,1-.16-.07l0,0-.06,0a.35.35,0,0,1-.14,0,.22.22,0,0,1-.11,0s-.09-.06-.11-.06h0s-.07,0-.14,0h0a.47.47,0,0,1-.17,0h0l-.07,0h-.07l-.13,0-.08,0h0a.77.77,0,0,1-.15.06h0c-.12,0-.21-.08-.28-.07h0a.76.76,0,0,1-.16,0h0c-.07,0-.11,0-.14,0h0c-.05,0-.12,0-.2,0h0a1.2,1.2,0,0,0-.17-.06h0c-.05,0-.1,0-.17,0H8.84c-.06,0-.11-.06-.14-.06h0l-.07,0H8.5a.29.29,0,0,1-.14,0s-.11-.07-.14-.06h0L8,3.39H8a.17.17,0,0,1-.09,0H7.55a1.37,1.37,0,0,1-.35,0c-.1,0-.19-.06-.28-.07H6.64a2.65,2.65,0,0,1-.3-.11c-.12,0-.24,0-.39,0S5.74,3,5.64,3a.7.7,0,0,1-.32-.06.66.66,0,0,0-.27-.09.41.41,0,0,1-.29-.12l-.28-.12c-.11,0-.22-.11-.22-.24A0,0,0,0,1,4.26,2.34Z"/><path class="cls-1" d="M1.29,6.07l.12,0,.08,0a.14.14,0,0,1,.14.12.71.71,0,0,0,0,.12s0,0,.06,0h0c.07,0,.15-.06.27-.07H2c.08,0,.14,0,.13.1a.87.87,0,0,1,0,.1h0a1.72,1.72,0,0,0,.26-.05h.1a.18.18,0,0,1,.15.1,0,0,0,0,1,0,0h0l.27,0a.22.22,0,0,1,.17.06.11.11,0,0,1,0,.09c0,.06,0,.09,0,.11h0s0,0,.07,0h.07a1.77,1.77,0,0,1,.31-.11.17.17,0,0,1,.14.08.13.13,0,0,1,0,.06v0h.1c.07,0,.16-.07.28-.07h0s.07,0,.09,0a.09.09,0,0,1,0,.07s0,.06,0,.08a0,0,0,0,0,0,0,.09.09,0,0,0,.07,0,.37.37,0,0,0,.15,0,.53.53,0,0,1,.16,0A.21.21,0,0,1,4.82,7a.09.09,0,0,1,0,.07h0l.11,0a.65.65,0,0,1,.21,0h0c.06,0,.1,0,.12.06a.26.26,0,0,1,0,.08.13.13,0,0,0,.07,0c.06,0,.18-.13.32-.14a.16.16,0,0,1,.09,0,.16.16,0,0,1,.07.13v0H6a2.64,2.64,0,0,1,.38-.08.21.21,0,0,1,.12,0,.15.15,0,0,1,.06.09c.08,0,.16,0,.25,0h0A.14.14,0,0,1,7,7.36a.1.1,0,0,0,.06,0h0s.15-.07.24-.08h0a.17.17,0,0,1,.14,0s0,0,.07,0h0c.08,0,.17,0,.28,0h.07A.17.17,0,0,1,8,7.4a.07.07,0,0,1,0,.06v0s.14-.06.21-.07h.15c.05,0,.05.08.06.09h0c.06,0,.15-.1.28-.11h0a.15.15,0,0,1,.06,0v0h0l.11,0a.15.15,0,0,1,.09,0c.12,0,.21.06.29.06l.09,0c.05,0,.07-.07.14-.07l.09,0a.23.23,0,0,1,.07.06l0,0h0s.06,0,.12-.06h0c.09,0,.13,0,.17.06h0c.06,0,.12,0,.22,0h0a.23.23,0,0,1,.14.06s0,0,.07,0h0s.11-.09.21-.11h0a.33.33,0,0,1,.13,0s0,0,.07,0h0c.06,0,.1-.06.21-.07h0l.06,0h0s0,0,.1-.06l.11,0h0c.08,0,.11.07.13.07h0c.05,0,.11-.08.22-.1h0a.15.15,0,0,1,.13.07s0,0,.06.06h0s.08-.06.17-.09h.05a.17.17,0,0,1,.12.05s0,0,.07,0h0s0,0,0,0a.29.29,0,0,1,.1-.08h.06A.11.11,0,0,1,13,7.5s0,0,.06,0h0s0,0,.08,0a.24.24,0,0,1,.12-.1h.07a.12.12,0,0,1,.12.06l0,.06a.29.29,0,0,1,.19-.09h0c.07,0,.12,0,.12.08s0,0,0,.07l0,0A.32.32,0,0,0,14,7.49a.21.21,0,0,1,.12,0c.07,0,.08,0,.13.07h0s.06,0,.1-.06a.23.23,0,0,1,.16-.08.17.17,0,0,1,.13,0l.07.08,0,0,0,0c.05,0,.09-.09.18-.09a.12.12,0,0,1,.08,0c.08,0,.12.09.15.09s0,0,.07,0,0,0,0-.05a.11.11,0,0,1,.09-.07.12.12,0,0,1,.1.07s0,0,0,.05a.08.08,0,0,0,.07,0s.07,0,.15-.09l.08,0c.09,0,.13.08.18.09l.05,0,0,0,.07-.08a.21.21,0,0,1,.12,0,.24.24,0,0,1,.17.09s.07.06.1.06h0c.05,0,.06-.07.13-.08a.24.24,0,0,1,.12,0,.32.32,0,0,0,.12.09l0,0s0,0,0-.07a.1.1,0,0,1,.12-.08h0a.38.38,0,0,1,.19.09l0-.05a.13.13,0,0,1,.12-.07h.07a.29.29,0,0,1,.12.1.21.21,0,0,0,.09,0h0s0,0,.05-.06A.13.13,0,0,1,18,7.38H18a.29.29,0,0,1,.1.08s0,0,.05,0l0,0a.18.18,0,0,0,.07,0,.16.16,0,0,1,.11-.05h.06c.09,0,.14.09.18.08h0a.2.2,0,0,0,.06-.07.15.15,0,0,1,.13-.06h0c.11,0,.17.11.22.1h0s.05,0,.13-.07h0l.11,0,.1.06h0l.06,0h0c.11,0,.15.08.21.08h0s0,0,.07,0a.33.33,0,0,1,.13,0h0c.1,0,.17.11.21.11h0l.07,0a.18.18,0,0,1,.14-.06h0c.1,0,.16,0,.22,0h0s.08-.06.17-.06h0c.06,0,.1.06.12.06h.05a.15.15,0,0,1,.07-.07l.09,0c.07,0,.09,0,.14.07a.16.16,0,0,0,.09,0c.08,0,.17-.06.29-.07l.09,0,.11,0h0v0A.12.12,0,0,1,22,7.33h.05c.12,0,.22.12.28.11h0s0-.06.06-.09a.15.15,0,0,1,.09,0h.06l.21.07a0,0,0,0,1,0,0,.09.09,0,0,1,0-.06.17.17,0,0,1,.11,0H23c.11,0,.2,0,.28,0h0a.08.08,0,0,0,.07,0,.17.17,0,0,1,.14-.06h0a2.55,2.55,0,0,1,.25.08h0s0,0,.06,0A.16.16,0,0,1,24,7.18h0l.25,0a.16.16,0,0,1,.05-.09.27.27,0,0,1,.12,0,2.84,2.84,0,0,1,.39.08h0c.05,0,.07,0,.07,0v0h0A.15.15,0,0,1,24.93,7,.13.13,0,0,1,25,7c.13,0,.25.14.32.13s0,0,.06,0,0,0,0-.08a.17.17,0,0,1,.13,0h0a1,1,0,0,1,.21,0l.12,0h0l0-.06a.22.22,0,0,1,.15-.08.48.48,0,0,1,.15,0l.15,0,.07,0a.06.06,0,0,0,0-.05s0,0,0-.08a.09.09,0,0,1,0-.07s.05,0,.09,0h0c.12,0,.21.07.28.07H27s0,0,0-.05a.11.11,0,0,1,0,0,.15.15,0,0,1,.14-.08,1.25,1.25,0,0,1,.31.1h.07s.06,0,.07,0h0a.35.35,0,0,1,0-.11.14.14,0,0,1,.05-.09.26.26,0,0,1,.17,0,2.65,2.65,0,0,0,.27,0h0s0,0,0,0a.18.18,0,0,1,.15-.1h.1c.06,0,.19,0,.27,0h0v0a.56.56,0,0,1,0-.1c0-.06.06-.1.13-.1h0c.11,0,.2.06.27.06h0s0,0,.05,0,0-.07,0-.12a.13.13,0,0,1,.14-.12h.08l.12,0s0,0,.08,0l.07-.09s0-.08,0-.13a.84.84,0,0,0-.06-.14.18.18,0,0,0-.19-.07.69.69,0,0,0-.09-.16c-.05,0-.1-.06-.13-.12S29.09,5,29,5s-.07.22-.05.28,0,.11,0,.17a.08.08,0,0,0,0,.06l-.31.09s0,0,0,0a.65.65,0,0,0-.09-.08s0-.17-.11-.15-.07.18-.1.23a.41.41,0,0,0,0,.16l-.25.08A.26.26,0,0,0,28,5.62L28,5.54s0-.11,0-.13-.11.19-.12.24,0,.1-.05.17a0,0,0,0,0,0,0l-.27.07a.36.36,0,0,0-.07-.1s-.05,0-.06-.08,0-.09,0-.12-.13.07-.15.12a.57.57,0,0,0,0,.26l-.28.07L26.82,6c0-.08.05-.18,0-.24s-.2.1-.23.18a.34.34,0,0,0,0,.2l-.18,0-.14,0h0s-.07-.07-.08-.11.05-.08.05-.13-.09-.1-.15-.09-.08.15-.12.23a.41.41,0,0,0-.05.18l-.21,0s0-.09,0-.11,0-.17-.1-.16l0,0s0,.09-.05.14a.69.69,0,0,1,0,.13.22.22,0,0,0,0,.1l-.22,0v0c0-.09-.08-.07-.14-.11s.09,0,.11-.09,0-.12-.06-.12-.18.1-.3.09l-.07,0s0-.06-.07-.06-.11.13-.08.18.09.14.12.22,0,0,0,0l-.26,0c-.05,0-.06,0-.06-.06a8.7,8.7,0,0,1-1.34.13h-.18V7.1a0,0,0,0,1,0,.05l-7.43.06L8,7.25a0,0,0,0,1,0,0V6.78H7.75a12.85,12.85,0,0,1-1.34-.12s0,0-.06.06l-.26,0s0,0,0,0,.09-.14.12-.22,0-.2-.09-.18l-.06.06a.12.12,0,0,1-.08,0c-.11,0-.2-.1-.3-.08s-.08.07-.05.12.08.06.11.09-.14,0-.15.11v0l-.22,0a.2.2,0,0,0,0-.1A.31.31,0,0,1,5.3,6.3a.24.24,0,0,0,0-.14s0,0,0,0-.11.09-.11.17v.1l-.22,0a.31.31,0,0,0-.05-.18c0-.07,0-.21-.12-.23s-.15,0-.15.1.07.06.06.12-.07.07-.09.11h0l-.14,0-.17,0a.34.34,0,0,0,0-.2c0-.08-.14-.26-.23-.17s0,.15,0,.23l-.05.07-.29-.06a.46.46,0,0,0,0-.26c0-.05-.08-.2-.15-.12s0,.08,0,.12,0,0-.06.08a.36.36,0,0,0-.07.1L3,6V6c0-.07,0-.12,0-.18s0-.32-.13-.23,0,.1,0,.13l-.08.08a.37.37,0,0,0-.06.14l-.25-.08a.47.47,0,0,0,0-.16c0-.05,0-.22-.09-.23s-.09.12-.12.16-.06,0-.08.08,0,0,0,0l-.3-.09s0,0,0-.05a.55.55,0,0,1,0-.18c0-.06.11-.32-.06-.28s-.08.12-.11.17a.68.68,0,0,1-.12.12.35.35,0,0,0-.09.15.21.21,0,0,0-.2.08.58.58,0,0,0-.05.14,1.12,1.12,0,0,0-.05.13L1.21,6S1.27,6.07,1.29,6.07Z"/><path class="cls-1" d="M10,12.59a.41.41,0,0,1,0-.19.58.58,0,0,1,.06-.26.38.38,0,0,0,0-.12v0c0-.09-.08-.18-.13-.29l-3,0,0,5a.69.69,0,0,1,.43.36.05.05,0,0,1,0,0h.87v0l0-4h1.2A4,4,0,0,1,10,12.59Z"/><path class="cls-1" d="M30.68,5.88c-.17,0-.32.15-.48.18.05,0,.15-.07.13-.15s-.15,0-.21-.08,0-.08-.09-.1-.07,0-.11,0v0a0,0,0,0,1-.06,0h-.05c-.06,0-.1.07-.17.14a.19.19,0,0,1-.13.08.37.37,0,0,1-.15,0h-.1a1.23,1.23,0,0,0,0,.13.14.14,0,0,1-.15.12h0c-.1,0-.19-.07-.26-.07h0l-.05,0h0s0,.05,0,.1a.1.1,0,0,1,0,.08.11.11,0,0,1-.09,0,1.3,1.3,0,0,1-.28,0h-.09s0,0-.08.06h0v0s0,0,0,0h-.07l-.27,0a.21.21,0,0,0-.12,0s0,0,0,0,0,0,0,.11v0a.16.16,0,0,1-.15.09h-.09c-.09,0-.22-.11-.29-.11s0,0-.06,0h0v.05a.11.11,0,0,1,0,.07.09.09,0,0,1-.08,0h-.08c-.12,0-.2-.08-.28-.08h0s0,0,0,.08a.17.17,0,0,1-.18.16,1,1,0,0,1-.18,0l-.12,0s0,0-.08,0l0,0s0,0-.07.07h0l-.14,0a.77.77,0,0,0-.19,0h0l-.06,0s0,0,0,.08a.17.17,0,0,1-.14.09C25.22,7.16,25.1,7,25,7l-.05,0s0,0,0,.05v0a.12.12,0,0,1,0,.09.23.23,0,0,1-.13,0h0a3.45,3.45,0,0,0-.39-.07c-.07,0-.08,0-.08.07h0s0,0,0,0h0c-.1,0-.19,0-.28,0h0c-.06,0,0,0-.07,0a.2.2,0,0,1-.11.08h0c-.09,0-.2-.08-.25-.07h0a.09.09,0,0,0-.08,0,.17.17,0,0,1-.12.06h0c-.11,0-.19-.05-.28-.05h-.12s0,0,0,0a.08.08,0,0,1,0,.07h0c-.08,0-.19-.07-.22-.07h-.1v0a.13.13,0,0,1-.06.07h-.05c-.12,0-.22-.12-.28-.11h0v0s0,0,0,0h0a.39.39,0,0,1-.14,0h-.06c-.08,0-.17.06-.29.06a.31.31,0,0,1-.13,0c-.07,0-.09-.07-.1-.06H21.2l-.05,0a.1.1,0,0,1-.08,0H21c-.06,0-.09,0-.12,0h0s-.07,0-.15.07h-.06c-.09,0-.16,0-.22,0h0s-.05,0-.08,0a.18.18,0,0,1-.13.06h0c-.1,0-.17-.11-.22-.1h0a.13.13,0,0,0-.08,0,.17.17,0,0,1-.12,0h0c-.11,0-.16-.08-.21-.07h0l0,0a.11.11,0,0,1-.07,0c-.08,0-.11-.06-.13-.06l-.08,0h0s0,0-.11.07h0c-.12,0-.17-.1-.24-.1h0l-.06,0a.2.2,0,0,1-.09.1h-.06c-.1,0-.16-.08-.2-.09h0s0,0-.06,0a.35.35,0,0,1-.09.07.12.12,0,0,1-.08,0,.16.16,0,0,1-.12-.06s0,0-.06,0h0s0,0,0,0a.13.13,0,0,1-.1.09h0a.2.2,0,0,1-.15-.08.3.3,0,0,0-.09-.08h0l-.05,0a1,1,0,0,0,0,.1s0,0,0,0h0c-.06,0-.12-.11-.18-.11h0c-.05,0,0,0,0,0a.22.22,0,0,1-.06.12.18.18,0,0,1-.1,0h0c-.09,0-.13-.08-.17-.11a.13.13,0,0,0-.07,0h0l-.07.05a.13.13,0,0,1-.08,0,.28.28,0,0,1-.16-.09.17.17,0,0,0-.11-.06l-.06,0-.06.06a.11.11,0,0,1-.09.06l-.08,0c-.09,0-.12-.09-.15-.08h0c-.06,0-.1.1-.19.1a.27.27,0,0,1-.13,0,.25.25,0,0,1-.05-.08l0,0,0,0a.25.25,0,0,1-.05.08.17.17,0,0,1-.12,0c-.1,0-.14-.07-.2-.1h0s-.07,0-.15.09a.16.16,0,0,1-.09,0,.09.09,0,0,1-.09,0l-.06-.06-.07,0a.28.28,0,0,0-.1.06.22.22,0,0,1-.16.09l-.08,0-.07,0,0,0-.07,0s-.08.1-.17.11h0a.21.21,0,0,1-.1,0,.3.3,0,0,1-.06-.11s0,0,0,0h0a.38.38,0,0,0-.18.12h0s0,0,0,0a.51.51,0,0,0,0-.1s0,0-.05,0h0l-.09.08a.2.2,0,0,1-.14.08h0a.16.16,0,0,1-.1-.1s0,0,0,0h0a.17.17,0,0,0-.06.06.2.2,0,0,1-.12.06l-.08,0a.35.35,0,0,1-.09-.07.06.06,0,0,0-.05,0h0s-.09.09-.19.09h-.07A.37.37,0,0,1,12,7.51s0,0-.06,0h0c-.07,0-.12.1-.24.11h0c-.06,0-.08-.07-.11-.07h0a.12.12,0,0,0-.08,0s0,0-.12.06a.09.09,0,0,1-.08,0h0c-.05,0-.09.06-.21.07h0a.19.19,0,0,1-.12,0,.13.13,0,0,0-.08,0h0s-.11.09-.22.11h0a.17.17,0,0,1-.12-.06s0,0-.09,0h0c-.06,0-.13,0-.22,0h-.06c-.08,0-.11-.07-.15-.06h0s-.06,0-.12.06h0a.1.1,0,0,1-.08-.05l-.05,0h0s0,0-.1.06a.31.31,0,0,1-.13,0c-.12,0-.2-.06-.29,0H9a.42.42,0,0,1-.14,0h0s-.05,0-.05-.06v0h0c-.06,0-.16.1-.28.11h0s-.05,0-.06-.06a0,0,0,0,0,0,0h-.1s-.14.07-.22.07H8a.09.09,0,0,1,0-.07s0,0,0,0H7.8c-.09,0-.17,0-.28,0h0a.17.17,0,0,1-.12,0,.15.15,0,0,0-.08,0h0s-.16.08-.25.09H7a.16.16,0,0,1-.12-.08s0,0-.07,0h0a1.93,1.93,0,0,1-.27,0h0a0,0,0,0,1,0,0h0c0-.07,0-.07-.09-.07s-.29.08-.38.08H6a.17.17,0,0,1-.13,0,.09.09,0,0,1,0-.08v0s0,0,0-.06h0c-.08,0-.19.12-.32.13a.16.16,0,0,1-.14-.09.27.27,0,0,1,0-.08H5.21a.72.72,0,0,0-.19,0,.42.42,0,0,1-.13,0h0a.1.1,0,0,1-.07-.07s0,0,0,0S4.7,7,4.68,7l-.13,0a.74.74,0,0,1-.18,0,.22.22,0,0,1-.13,0A.14.14,0,0,1,4.2,7V6.88h0c-.08,0-.16.07-.28.08H3.79l-.08,0a.11.11,0,0,1,0-.08v0h0s0,0-.06,0a1.53,1.53,0,0,0-.29.11H3.24a.16.16,0,0,1-.15-.09v0c0-.07,0-.11,0-.11v0a.21.21,0,0,0-.12,0l-.27,0H2.65s0,0,0,0v0h0c-.06-.06-.05-.06-.09-.06H2.44s-.18,0-.27,0a.16.16,0,0,1-.1,0,.13.13,0,0,1,0-.08.41.41,0,0,1,0-.1h0s0,0-.06,0H2c-.08,0-.16.06-.27.07h0a.15.15,0,0,1-.16-.12s0-.1,0-.12,0,0,0,0H1.43a.7.7,0,0,1-.14,0,.15.15,0,0,1-.14-.07C1.08,6,1,5.94,1,5.94h0a0,0,0,0,1-.06,0v0H.75S.7,6,.67,6s-.2,0-.21.09.08.11.13.15c-.16,0-.31-.17-.48-.18S0,6.35.1,6.43a1.9,1.9,0,0,0,.21.19h0a.06.06,0,0,1,.07,0l.13.1A3.67,3.67,0,0,0,1,7,11.49,11.49,0,0,0,3,7.73a39.2,39.2,0,0,0,10.6,1.08l1.78,0c.62,0,1.22,0,1.79,0A39.17,39.17,0,0,0,27.78,7.57a11.32,11.32,0,0,0,2.07-.8l.44-.26.13-.1s0,0,.06,0h0a1,1,0,0,0,.22-.2C30.77,6.14,30.87,5.87,30.68,5.88Z"/><path class="cls-1" d="M27.65,1.9a4.13,4.13,0,0,1-.45.17,4.36,4.36,0,0,0-.42.23.32.32,0,0,1-.14.31,1.35,1.35,0,0,1-.34.12,6.26,6.26,0,0,0-.89.38,3.91,3.91,0,0,1-.94.34c-.19,0-.53.08-.59.23a.8.8,0,0,1-.19.32c-.1.1,0,.24-.13.41s-.24.15-.27.23a.22.22,0,0,0,0,.09,1.79,1.79,0,0,0,0,.23s0,0,0,0a.68.68,0,0,1,0,.31c-.05.11-.12.11-.16.17a.36.36,0,0,0-.05.25c0,.11,0,.23,0,.32v.56a14.19,14.19,0,0,0,1.44-.15.05.05,0,0,0,0,0c.07-.15,0-.25.12-.39s.23,0,.19-.21c.06,0,.13-.13.1-.14s.11,0,.1-.13.09-.06.09-.12.05-.09.08-.14.06,0,.07,0,0-.08,0-.1a.08.08,0,0,0,.1-.11c.08,0,.12,0,.1-.11s.13-.06.09-.12.08,0,.11-.06,0-.1,0-.13.15-.07.15-.17A.13.13,0,0,0,26,4.26c.13,0,.13,0,.14-.16s.15-.08.15-.19c.18,0,.11-.14.15-.24a.14.14,0,0,0,.14-.06s0-.11,0-.13.12,0,.15-.07,0-.13,0-.17.11,0,.15-.08,0-.14,0-.17.11,0,.15-.08,0-.13,0-.17.11,0,.14-.09,0-.15,0-.21.16,0,.18-.15a.71.71,0,0,0,0-.15C27.62,2.14,27.65,2,27.65,1.9Z"/><path class="cls-1" d="M25.28,9.07a.63.63,0,0,0,.44-.25.55.55,0,0,1,.37-.26l.47-.14c.32-.09.63-.19.94-.3s.89-.19,1.07-.56a2.36,2.36,0,0,1,.13-.2C26.87,8,23.38,8.83,17.2,8.87H15.41l-1.78,0C7.45,8.94,4,8.18,2.11,7.53a1.28,1.28,0,0,1,.13.21c.19.36.7.42,1.08.54s.62.2.94.29l.48.13A.58.58,0,0,1,5.11,9a.58.58,0,0,0,.45.24c.14,0,.25-.08.26-.36v0a0,0,0,0,1,0,0h0a.56.56,0,0,0,.17.07h0s.06,0,.13,0h0l.12,0,.07,0,.09,0a.21.21,0,0,1,.11,0,.23.23,0,0,0,.11,0h0s.07,0,.11,0a.1.1,0,0,1,.07,0,.41.41,0,0,0,.17.05h0s.07,0,.15,0h.05c.07,0,.09.07.13.07h0c.07,0,.14,0,.24-.06h0c.07,0,.1.06.13.07H8l.13,0h0A.53.53,0,0,1,8.33,9h0s.09-.05.19-.06h0A.82.82,0,0,1,8.82,9h0C8.91,9,9,9,9.07,9a.23.23,0,0,1,.11,0c.06,0,.08.06.12.06h0S9.38,9,9.46,9h0A.38.38,0,0,1,9.64,9l.07,0,.08,0a.25.25,0,0,1,.13,0L10,9c.07.05.06.06.12.06h0c.08,0,.13-.07.24-.07s.08,0,.12.06.08.07.13.07h0c.08,0,.09,0,.17-.1a.11.11,0,0,1,.07,0c.09,0,.15.06.19.07h.07a.5.5,0,0,1,.13,0h.24a.76.76,0,0,1,.43.08H12l.08,0a.21.21,0,0,1,.11,0h0s.06,0,.1,0h.05l.12-.06h.06c.11,0,.18.09.25.08h0l.08,0s0-.05.07-.08H13a.29.29,0,0,1,.17.07l.07,0a1.85,1.85,0,0,0,.2-.06h0a1.4,1.4,0,0,1,.23.05.13.13,0,0,0,.08,0A.26.26,0,0,1,14,9.06l.05,0a.12.12,0,0,0,.13.08.3.3,0,0,0,.19-.08,0,0,0,0,1,0,0,.05.05,0,0,1,0,0s0,.05.11.05a.2.2,0,0,0,.18-.07l0,0s0,0,0,0,.09.08.19.08h0c.11,0,.1,0,.19-.08h0l0,0a.26.26,0,0,0,.21.08h0a.23.23,0,0,0,.2-.08s0,0,0,0h0c.09.07.08.08.19.08h0c.1,0,.15,0,.19-.08l0,0,0,0a.2.2,0,0,0,.18.07c.07,0,.1,0,.11-.06a0,0,0,0,1,0,0,0,0,0,0,1,0,0,.32.32,0,0,0,.19.07.15.15,0,0,0,.14-.07s0,0,0,0a.37.37,0,0,1,.14.07.1.1,0,0,0,.07,0c.06,0,.12,0,.23-.05h0c.1,0,.15.05.2.05l.07,0a.29.29,0,0,1,.17-.07h.06c.06,0,.06.07.07.07l.08,0h0c.07,0,.13-.08.24-.08h.06c.09,0,.1.07.15.07h0c.05,0,.05,0,.1-.05a.24.24,0,0,1,.13,0c.12,0,.19.08.26.08h0s.06-.07.15-.11h0c.09,0,.11.06.15.06h0s.06,0,.11-.06l.09,0c.08,0,.13,0,.17,0h0s.1-.07.19-.07H20c.09.06.09.11.17.11h0A.2.2,0,0,0,20.34,9a.17.17,0,0,1,.12-.06c.11,0,.16.08.24.07h0c.06,0,.05,0,.12-.06a.18.18,0,0,1,.09,0,.25.25,0,0,1,.13,0h.15s.06-.06.14-.07h0c.08,0,.1.08.14.08h0s.06,0,.12-.07a.23.23,0,0,1,.11,0c.09,0,.16.06.22.06h0a.82.82,0,0,1,.25-.08h0c.1,0,.15.06.19.06h0s.07,0,.13-.06h0a.5.5,0,0,1,.13,0H23s.06-.06.13-.08h0c.1,0,.17.05.24.05h0s.06-.05.13-.07h0a1.3,1.3,0,0,1,.15,0h0c.06,0,.09,0,.16-.06l.08,0,.1,0h0l.11,0s.06,0,.1,0a.19.19,0,0,1,.1,0h.07l.12,0h0l.14,0h0A.51.51,0,0,0,25,8.63h0l0,0v0C25,9,25.13,9.07,25.28,9.07Z"/><path class="cls-1" d="M28.65,7.6c-.22.42-.76.48-1.12.61s-.63.2-.94.29l-.48.14c-.22.08-.19.08-.32.24a.72.72,0,0,1-.51.28A.33.33,0,0,1,25,9.05a.52.52,0,0,1-.1-.31.27.27,0,0,1-.15,0h0l-.14,0h0a.35.35,0,0,1-.14,0l-.11,0-.05,0-.07,0a.42.42,0,0,1-.15,0h-.05l-.09,0h0a.4.4,0,0,1-.2.07h0c-.08,0-.12,0-.15,0h0s-.07.05-.14.07h0a2.42,2.42,0,0,1-.24-.05h0s-.06,0-.12.07a.15.15,0,0,1-.09,0l-.12,0s-.08,0-.1,0h0s-.06,0-.12.06h-.06c-.09,0-.14-.06-.2-.06h0A.85.85,0,0,0,22,9H22c-.1,0-.17-.07-.22-.06a.07.07,0,0,0-.06,0s-.09.08-.17.08h0c-.09,0-.12-.08-.15-.09h0s0,0-.11.06l-.1,0L21,9a.16.16,0,0,0-.09,0l0,0a.23.23,0,0,1-.17.08h0c-.12,0-.19-.08-.24-.07a.08.08,0,0,0-.06,0s-.09.1-.19.1h0c-.13,0-.16-.09-.21-.11h0s-.09.05-.16.08h-.06l-.17,0h0a.24.24,0,0,1-.16.08h-.05c-.07,0-.1-.07-.12-.07h0s-.06.08-.16.11H19c-.12,0-.2-.09-.26-.08a.11.11,0,0,0-.08,0,.16.16,0,0,1-.15.06h0c-.09,0-.12-.05-.17-.06h0c-.06,0-.12.08-.24.09h0a.19.19,0,0,1-.12,0c-.05,0,0-.06-.05-.06h0s-.09,0-.13.06a.19.19,0,0,1-.12,0c-.09,0-.14-.05-.21-.06h0c-.07,0-.13.05-.23.05a.19.19,0,0,1-.12,0s0,0-.07,0a.26.26,0,0,1-.19.09.47.47,0,0,1-.21-.06.22.22,0,0,1-.17.07.3.3,0,0,1-.21-.07.3.3,0,0,1-.24.08h0a.33.33,0,0,1-.21-.07.34.34,0,0,1-.24.09h0a.32.32,0,0,1-.25-.09.26.26,0,0,1-.21.08h0a.29.29,0,0,1-.23-.08.34.34,0,0,1-.22.07.22.22,0,0,1-.17-.07.48.48,0,0,1-.2.07.22.22,0,0,1-.19-.1l-.07.06-.13,0c-.09,0-.16-.05-.22,0h0a1.08,1.08,0,0,1-.21.05.13.13,0,0,1-.11,0c-.05,0-.1-.06-.13-.05h0s0,0-.06.06a.27.27,0,0,1-.11,0h0c-.13,0-.19-.09-.25-.08H12.5l.1,0a.83.83,0,0,1,.39.48A1,1,0,0,1,13,10a.76.76,0,0,1,.05.27v.05a1,1,0,0,0,0,.16v0h0l.06,0a.4.4,0,0,1,.19.26.07.07,0,0,1,0,0,.42.42,0,0,1-.08.24h0a.59.59,0,0,1,0,.2.3.3,0,0,1,0,.16.17.17,0,0,1,0,.07.31.31,0,0,1,0,.11l2.17,0H18l0,5.14h0l0,0a.43.43,0,0,0-.2.23h1.26a.55.55,0,0,0-.29-.28l0-3.75h0V11.55l5.27,0,0,5.15h0a.9.9,0,0,0-.22.1.52.52,0,0,0-.17.19.05.05,0,0,0,0,0h1.55v0c0-.27-.44-.31-.44-.31l0-5.17c.07,0,.14,0,.2,0s0-.12.08-.18l.09-.07c.05,0,.07,0,.11,0s.07-.13.08-.19,0-.09.1-.14a.91.91,0,0,0,.17-.17,1.27,1.27,0,0,0,.12-.23c.05-.08.11-.07.19-.12s.06-.12.11-.18a.2.2,0,0,1,.18-.06c.1,0,.12,0,.16-.08s.05-.11.15-.12.15,0,.21-.08,0-.13.09-.15.11.05.18,0,.06-.11.14-.13.16,0,.22-.08,0-.12.11-.14.12,0,.16-.06,0-.08.06-.1.09,0,.12,0,0-.06,0-.08.08,0,.11,0,.05,0,.07-.1,0-.09.05-.1.07,0,.1,0,0-.11.05-.18.12,0,.17,0,0-.08,0-.13.11,0,.14,0,0-.1.06-.15.1,0,.15-.06.06-.11.08-.17,0-.06.1-.07.14-.11.15-.23.14,0,.16-.08,0-.13.07-.15.15,0,.18-.11,0-.16,0-.23.12.1.19,0a.16.16,0,0,0,0-.1c-.14,0-.28,0-.41.09C28.86,7.31,28.8,7.33,28.65,7.6Z"/><path class="cls-1" d="M7.13,16.89a.9.9,0,0,0-.22-.1h0l0-5.15,3.08,0,0-.07A1.87,1.87,0,0,1,9.8,11a2.05,2.05,0,0,1,.55-1.48,2,2,0,0,1,.6-.35s-.07,0-.09,0h0c-.06,0-.09.11-.22.12h0a.29.29,0,0,1-.19-.1l-.06,0s-.11.08-.24.08h0c-.1,0-.12-.05-.17-.08l0,0-.09,0a.25.25,0,0,1-.12,0h-.1C9.55,9.07,9.52,9,9.5,9h0s-.06.07-.15.09h0c-.08,0-.12-.05-.17-.08L9.07,9C9,9,9,9.09,8.85,9.09h0A1.83,1.83,0,0,0,8.57,9h0c-.05,0-.1.06-.19.06H8.3L8.18,9h0l-.1,0-.12,0a.15.15,0,0,1-.09,0C7.79,9,7.76,9,7.73,9h0a2.42,2.42,0,0,1-.24,0H7.43a.58.58,0,0,1-.14-.08h0S7.2,9,7.11,9h0a.52.52,0,0,1-.2-.06h0s0,0-.09,0h0a.25.25,0,0,1-.15,0l-.07,0,0,0-.11,0-.14,0h0s-.06,0-.13,0h0a.33.33,0,0,1-.14,0,.52.52,0,0,1-.1.31.32.32,0,0,1-.25.11A.72.72,0,0,1,5,9a.45.45,0,0,0-.33-.22l-.47-.14-1-.28c-.36-.13-.9-.18-1.13-.59S2,7.49,1.61,7.4c-.13,0-.27-.06-.42-.09a.29.29,0,0,0,0,.1c.07.1.11,0,.18,0s0,.15,0,.23.09.09.19.11,0,.08.06.15.1.07.17.07,0,.22.15.23.08,0,.1.07a.3.3,0,0,0,.08.16c.05,0,.11,0,.15.06s0,.11.06.15.13,0,.14,0,0,.09,0,.13.12,0,.17,0,0,.15,0,.18.07,0,.1,0,0,.07,0,.1,0,.08.07.1.08,0,.11,0,0,.06,0,.08.08,0,.12,0,0,.07,0,.1.1,0,.17.06.07.07.11.14.13,0,.22.07.07.1.14.13.12,0,.18,0,0,.1.09.15a.24.24,0,0,0,.21.07c.1,0,.12,0,.16.13s.06.08.16.07a.2.2,0,0,1,.18.06c0,.06,0,.13.11.18s.14,0,.19.12a1.55,1.55,0,0,0,.12.22l.17.17c.08.05.1.05.11.14s0,.17.08.19.06,0,.11,0a.31.31,0,0,1,.09.07c0,.06,0,.13.08.18s.13,0,.2,0l0,5.17s-.4.05-.43.32v0H7.33s0,0,0,0A.55.55,0,0,0,7.13,16.89Z"/><path class="cls-1" d="M18,16.69l0-5h-2.5l-2.21,0,0,.07a.92.92,0,0,1,0,.17v0a6.06,6.06,0,0,1,.65.28,1,1,0,0,1,.5.39.61.61,0,0,1,.07.1h3.07l0,4.26h.19A.53.53,0,0,1,18,16.69Z"/><path class="cls-1" d="M24,16.6l0-5-5.09,0V13l3.77,0,0,4v0h.88s0,0,0,0A.73.73,0,0,1,24,16.6Z"/><path class="cls-3" d="M11.12,9.07h0"/></g></g></svg>